<?xml version="1.0" standalone="no"?>
<!DOCTYPE svg PUBLIC "-//W3C//DTD SVG 1.1//EN" "http://www.w3.org/Graphics/SVG/1.1/DTD/svg11.dtd" >
<svg xmlns="http://www.w3.org/2000/svg">
<metadata></metadata>
<defs>
<font id="pf_din_text_cond_proMdIt" horiz-adv-x="1818" >
<font-face units-per-em="1000" ascent="750" descent="-250" />
<missing-glyph horiz-adv-x="226" />
<glyph unicode="fj" horiz-adv-x="477" d="M123 494l15 77q18 88 71 126.5t125 38.5q48 0 88.5 -15.5t66.5 -47.5l-68 -79q-33 39 -92 39q-22 0 -36.5 -6t-24 -16t-14.5 -22.5t-8 -25.5l-13 -69h238l-103 -549q-13 -67 -53 -106t-113 -39h-8.5t-14.5 0.5t-14.5 0.5h-7.5l19 101h21q33 0 46.5 17t19.5 45l85 443 h-132l-108 -558h-109l107 558h-52l18 87h51z" />
<glyph unicode="ffj" horiz-adv-x="720" d="M108 -150h-109l107 557h-52l18 87h52l11 60q9 44 28 75t45.5 50.5t59 28.5t68.5 9q29 0 57 -5.5t50 -17.5q29 23 62.5 33.5t73.5 10.5q48 0 88 -14.5t67 -47.5l-69 -77q-16 18 -39 28.5t-53 10.5q-42 0 -60.5 -21.5t-23.5 -47.5l-15 -75h238l-103 -548 q-13 -66 -52 -105.5t-115 -39.5h-22t-22 1l19 101q2 0 10.5 -0.5t10.5 0.5q34 0 47 19t19 49l84 436h-131l-108 -557h-108l107 557h-133zM366 494l14 75q2 8 4 16.5t5 16.5q-27 15 -61 15q-21 0 -36.5 -6t-25.5 -16t-15.5 -22.5t-7.5 -24.5l-10 -54h133z" />
<glyph unicode="ff" horiz-adv-x="519" d="M338 721q25 0 52 -4.5t47 -13.5q17 17 44.5 27.5t68.5 10.5q13 0 28.5 -1.5t28.5 -4.5l-18 -97q-8 2 -18 3t-18 1q-18 0 -29.5 -6.5t-18.5 -16t-10 -20.5t-5 -21l-16 -84h86q-5 -22 -9 -43.5t-8 -43.5h-87l-108 -557h-108l108 557h-132l-108 -557h-108q26 140 53 278.5 t54 278.5h-52q5 22 9 43.5t8 43.5h52l12 59q17 83 70.5 125.5t131.5 42.5zM365 494l17 84q2 7 3.5 13.5t3.5 13.5q-13 8 -28.5 11t-32.5 3q-23 0 -38.5 -7t-25 -18t-15 -26.5t-8.5 -31.5l-8 -42h132z" />
<glyph unicode="fi" horiz-adv-x="477" d="M124 494l15 77q9 45 27.5 76t44 50.5t57.5 28.5t68 9q48 0 89 -15t67 -47l-70 -79q-33 39 -91 39q-21 0 -36 -6.5t-25 -16.5t-15.5 -22.5t-7.5 -24.5l-13 -69h242l-96 -494h-109l79 407h-133l-108 -558h-109l107 558h-52l18 87h51z" />
<glyph unicode="fl" horiz-adv-x="495" d="M297 135q24 122 48 243.5t49 243.5q-15 6 -32.5 8.5t-29.5 2.5q-43 0 -62 -22t-24 -49l-13 -68h87q-5 -22 -9 -43.5t-8 -43.5h-87l-107 -558h-109l107 558h-52l18 87h51l15 75q15 83 67.5 124t126.5 41q38 -2 85 -9t99 -29l-107 -546q-5 -23 1 -38t35 -15h16l-19 -99h-32 q-51 0 -83.5 20.5t-34.5 69.5q0 11 1 22.5t3 24.5z" />
<glyph unicode="ffi" horiz-adv-x="717" d="M109 -151h-109l107 558h-52l19 87h51l11 60q9 44 28 75.5t45.5 51t59.5 28.5t69 9q29 0 56.5 -6t49.5 -18q29 23 62.5 33.5t73.5 10.5q48 0 88.5 -14.5t67.5 -47.5l-71 -77q-15 18 -38.5 28.5t-52.5 10.5q-42 0 -61 -21.5t-23 -47.5l-15 -75h242l-96 -494h-108l78 407 h-133l-107 -558h-109l107 558h-132zM367 494l14 75q2 8 4 17t5 17q-25 14 -61 14q-22 0 -37 -6t-25 -16t-15.5 -22.5t-7.5 -24.5l-10 -54h133z" />
<glyph unicode="ffl" horiz-adv-x="733" d="M562 494l-18 -87h-87l-107 -558h-108l107 558h-133l-107 -558h-109l107 558h-52l18 87h51l12 60q8 44 27.5 75t46.5 50.5t60.5 28.5t69.5 9q29 0 55.5 -5.5t49.5 -18.5q29 24 63.5 34.5t73.5 10.5q20 0 66 -7t108 -33l-107 -546q-5 -23 1 -38t35 -15h16l-19 -99h-32 q-51 0 -83.5 20.5t-34.5 69.5q0 11 1 22.5t3 24.5q24 122 48 243.5t49 243.5q-16 7 -31 9.5t-28 2.5q-43 0 -61.5 -21.5t-23.5 -48.5l-14 -72h87zM329 616q-22 0 -37 -6t-25 -15.5t-15.5 -22t-7.5 -24.5l-10 -54h132l15 75q2 8 4.5 16t5.5 15q-27 16 -62 16z" />
<glyph unicode="ft" horiz-adv-x="513" d="M366 494l26 131h105q-7 -32 -13 -65t-12 -65h67l-18 -88h-66l-49 -253q-5 -24 2.5 -39.5t33.5 -15.5h24q-5 -25 -9.5 -50t-9.5 -49h-55q-53 0 -77 28t-24 69v12t2 12l56 286h-133l-107 -556h-109l107 556h-52l18 87h50l18 90q6 30 17 57t30.5 47.5t48.5 32t71 11.5 q26 0 55 -6q-5 -22 -9 -49t-9 -49q-10 3 -18 4t-17 1q-17 0 -28.5 -6t-18 -15t-10.5 -20t-6 -21l-15 -77h134z" />
<glyph unicode=" "  horiz-adv-x="226" />
<glyph unicode="&#x09;" horiz-adv-x="226" />
<glyph unicode="&#xa0;" horiz-adv-x="226" />
<glyph unicode="!" horiz-adv-x="259" d="M171 187h-90l89 509h109zM34 0l22 111h111l-22 -111h-111z" />
<glyph unicode="&#x22;" horiz-adv-x="318" d="M238 485l41 211h84l-41 -211h-84zM102 485l41 211h85l-42 -211h-84z" />
<glyph unicode="#" horiz-adv-x="465" d="M27 288h85l45 125h-73l15 76h84l74 207h82l-74 -207h89l74 207h82l-75 -207h76l-14 -76h-88l-45 -125h77l-15 -76h-89l-74 -212h-83l75 212h-88l-75 -212h-82l75 212h-72zM238 413q-11 -32 -22 -63l-22 -62h88l45 125h-89z" />
<glyph unicode="$" horiz-adv-x="465" d="M110 179q11 -29 29.5 -49.5t51.5 -25.5l39 199q-65 27 -101 65.5t-36 96.5q0 51 15.5 92.5t43.5 72t67.5 48.5t87.5 20l14 73h45l-15 -74q60 -6 97 -41.5t49 -82.5l-93 -54q-11 27 -28.5 45.5t-45.5 23.5l-35 -180q37 -15 64.5 -31.5t45.5 -37t27 -46.5t9 -60 q-1 -54 -17 -97.5t-45.5 -74t-71.5 -48t-93 -18.5q-5 -23 -9 -47t-9 -47h-45q1 6 4 19t6 28t5.5 28.5t3.5 19.5q-63 6 -100.5 42.5t-56.5 90.5zM320 221q0 23 -14 38.5t-35 26.5l-35 -182q42 8 63 40.5t21 76.5zM212 488q0 -37 42 -60l31 160q-17 -4 -30 -14t-22.5 -23.5 t-14.5 -30t-6 -32.5z" />
<glyph unicode="%" horiz-adv-x="710" d="M168 -17h-80l511 730h81zM321 387q-11 -52 -42 -81.5t-88 -29.5q-28 0 -51 9t-38.5 25t-21.5 38.5t-1 49.5l38 191q10 52 43.5 81.5t86.5 29.5q26 0 48 -8.5t37.5 -24t22.5 -37.5t2 -48zM274 582q4 17 -5 30.5t-28 13.5q-17 0 -28.5 -10.5t-14.5 -27.5l-37 -195 q-3 -17 5.5 -30t28.5 -13q19 0 29 11.5t13 26.5zM655 107q-11 -52 -42 -81.5t-88 -29.5q-28 0 -51 9t-38.5 25t-21.5 38.5t-1 49.5l38 191q10 52 43.5 81.5t86.5 29.5q26 0 48 -8.5t37.5 -24t22.5 -37.5t2 -48zM608 302q4 17 -5 30.5t-28 13.5q-17 0 -28.5 -10.5 t-14.5 -27.5l-37 -195q-3 -17 5.5 -30t28.5 -13q19 0 29 11.5t13 26.5z" />
<glyph unicode="&#x26;" horiz-adv-x="542" d="M270 474q5 -21 17.5 -51.5t27.5 -64.5t31 -68.5t28 -61.5q13 20 22.5 45.5t16.5 48.5l94 -9q-12 -44 -34.5 -93t-51.5 -87l64 -133h-122q-7 13 -13 26t-13 27q-39 -33 -76.5 -46t-78.5 -13q-71 0 -107.5 42.5t-36.5 109.5q0 71 40 128.5t110 104.5q-11 30 -24 65.5 t-13 80.5q0 38 13 70.5t37 56t58.5 36.5t76.5 13q48 0 88 -18.5t63 -62.5l-80 -61q-16 26 -36 35t-43 9q-16 0 -28.5 -7t-21.5 -17.5t-14 -24.5t-5 -27q0 -22 11 -53zM227 294q-84 -63 -84 -136q0 -29 15.5 -48t47.5 -19q24 0 50 12t44 29z" />
<glyph unicode="'" horiz-adv-x="218" d="M120 485l41 211h85l-41 -211h-85z" />
<glyph unicode="(" horiz-adv-x="291" d="M156 -122q-43 69 -69.5 150.5t-26.5 170.5q0 76 21.5 150t56.5 142.5t81.5 128.5t96.5 110l57 -36q-46 -55 -84 -116t-65 -126t-42 -134t-15 -139q0 -69 14 -135t41 -124z" />
<glyph unicode=")" horiz-adv-x="291" d="M-19 -80q43 52 80.5 112t65.5 125.5t43.5 134.5t15.5 138q0 68 -13.5 136t-41.5 128l70 36q41 -67 66.5 -145t25.5 -167q0 -78 -21 -153t-57 -143.5t-83.5 -130t-100.5 -113.5z" />
<glyph unicode="*" horiz-adv-x="393" d="M365 423q-2 -2 -13 -9t-24.5 -15.5t-25 -16t-13.5 -8.5l-41 103l-83 -103l-57 48l96 93l-106 29q1 2 6.5 13.5t12.5 25t13 25t7 13.5l100 -45l13 120h82l-35 -120q4 1 21 7.5t37.5 14.5t37.5 14.5t21 8.5q0 -2 1.5 -13.5t3.5 -25t4 -25t2 -13.5l-120 -29z" />
<glyph unicode="+" horiz-adv-x="465" d="M286 252l-34 -173h-89l33 173h-169l18 88h169l33 172h89l-33 -172h168l-17 -88h-168z" />
<glyph unicode="," horiz-adv-x="244" d="M-11 -134l58 131h-29l26 132h123l-25 -128l-92 -135h-61z" />
<glyph unicode="-" horiz-adv-x="388" d="M52 222l19 99h296l-19 -99h-296z" />
<glyph unicode="." horiz-adv-x="239" d="M8 0l24 130h124l-25 -130h-123z" />
<glyph unicode="/" horiz-adv-x="308" d="M29 -42h-85l367 767h87z" />
<glyph unicode="0" horiz-adv-x="465" d="M394 169q-7 -39 -22 -71t-39 -55t-58 -35.5t-78 -12.5q-39 0 -72 12.5t-55.5 37.5t-31.5 61.5t0 84.5l66 335q17 84 66.5 129.5t131.5 45.5q36 0 68.5 -12.5t55 -35.5t32.5 -57t2 -77zM350 519q7 35 -11.5 56t-48.5 21q-31 0 -50.5 -18.5t-25.5 -51.5l-65 -341 q-7 -39 7.5 -62t51.5 -23q34 0 52 20.5t23 49.5z" />
<glyph unicode="1" horiz-adv-x="465" d="M149 0l111 572l-109 -72l23 119l117 77h103l-135 -696h-110z" />
<glyph unicode="2" horiz-adv-x="465" d="M101 521q20 89 77 134.5t131 45.5q72 0 116.5 -36t44.5 -108q0 -54 -22.5 -97.5t-54.5 -82.5l-232 -271h218l-21 -106h-355l19 99l289 334q22 26 32.5 54t10.5 51t-14 40.5t-44 17.5q-28 0 -53 -22t-36 -72z" />
<glyph unicode="3" horiz-adv-x="465" d="M335 358q32 -15 43.5 -45t11.5 -57q0 -47 -12 -94t-38 -84.5t-67 -60.5t-100 -23q-36 0 -66 9.5t-51.5 30t-34 52.5t-12.5 77l109 15q0 -3 -0.5 -6t-0.5 -6q0 -29 15.5 -47t45.5 -18q26 0 45 11.5t31 31t17.5 45t5.5 53.5q0 30 -18.5 51.5t-52.5 21.5h-43l18 91h45 q49 0 76.5 37.5t27.5 91.5q0 10 -3.5 20.5t-10.5 19.5t-18 14.5t-27 5.5q-25 0 -51 -19t-35 -64l-106 17q20 88 75.5 130t128.5 42q46 0 76.5 -13.5t49 -36t26 -52t7.5 -62.5q-2 -25 -8 -51t-18.5 -49.5t-32 -43t-47.5 -32.5q0 -1 -0.5 -1.5t-0.5 -1.5z" />
<glyph unicode="4" horiz-adv-x="465" d="M365 102l-20 -102h-108l20 102h-244l18 96l285 498h115l-280 -491h126l33 177h109l-34 -177h50l-20 -103h-50z" />
<glyph unicode="5" horiz-adv-x="465" d="M204 99q30 0 50.5 22.5t33 55t17.5 68.5t5 62q0 25 -10.5 41.5t-39.5 16.5q-22 0 -44.5 -10t-39.5 -36h-98q19 94 37.5 188t36.5 189h336l-21 -105h-233l-30 -156q1 0 1 -0.5t1 -0.5q23 17 48 24.5t48 7.5q33 0 56.5 -9.5t38 -26t21 -39t6.5 -48.5q0 -72 -12.5 -135.5 t-40 -111t-71.5 -75t-107 -27.5q-35 0 -63.5 12t-49 34t-32 53.5t-11.5 70.5l109 14q-1 -5 -1 -8.5v-7.5q0 -63 59 -63z" />
<glyph unicode="6" horiz-adv-x="465" d="M248 319q-28 0 -46.5 -17.5t-28.5 -41.5q-10 -22 -15 -48.5t-5 -49.5q0 -26 11 -45t44 -19q26 0 44 16t28 41q12 30 17.5 58.5t5.5 45.5q0 26 -12.5 43t-42.5 17zM256 401q0 -2 2 -2q24 11 50 11q28 0 48.5 -10t34 -28t20 -42t6.5 -52q0 -32 -9.5 -77t-29.5 -87 q-26 -57 -73 -88t-113 -31q-40 0 -69 11.5t-47.5 32t-27 48.5t-8.5 61q0 45 16 100.5t46 102.5q57 87 111.5 172.5t111.5 172.5h119q-59 -94 -104.5 -165t-83.5 -130z" />
<glyph unicode="7" horiz-adv-x="465" d="M145 0h-114l318 591h-134l-17 -87h-104l37 192h358l-19 -98z" />
<glyph unicode="8" horiz-adv-x="465" d="M308 701q70 0 112.5 -38.5t42.5 -104.5q0 -24 -5.5 -53t-18 -57t-32 -51t-48.5 -34q29 -17 40.5 -46.5t11.5 -58.5q0 -36 -9.5 -78.5t-28.5 -77.5q-26 -48 -71 -77.5t-111 -29.5q-33 0 -62.5 9t-51.5 27.5t-35 45.5t-13 63q0 22 4 54.5t15.5 65.5t33 61t57.5 41 q-22 15 -33.5 40t-11.5 52q0 24 4.5 50.5t15.5 58.5q21 63 70 100.5t124 37.5zM240 316q-28 0 -47.5 -15.5t-31.5 -38t-17 -47t-5 -42.5q0 -12 2 -26t8.5 -25t19 -18.5t32.5 -7.5q29 0 46 15t27 32q14 23 20 51.5t7 47.5q0 30 -12.5 52t-48.5 22zM295 599q-18 0 -31 -6 t-22 -16t-15.5 -23t-11.5 -28q-5 -17 -8 -34t-3 -32q0 -23 14.5 -36.5t37.5 -13.5q35 0 55.5 22t30.5 54q9 25 9 55q0 25 -13.5 41.5t-42.5 16.5z" />
<glyph unicode="9" horiz-adv-x="465" d="M243 377q28 0 46.5 17.5t28.5 41.5q10 22 15 48.5t5 49.5q0 26 -11 45t-44 19q-26 0 -44 -16t-28 -41q-12 -30 -17.5 -58.5t-5.5 -45.5q0 -26 12.5 -43t42.5 -17zM235 295q0 2 -2 2q-24 -11 -50 -11q-28 0 -48.5 10t-34 28t-20 42t-6.5 52q0 32 9.5 77t29.5 87 q26 57 73 88t113 31q40 0 69 -11.5t47.5 -32t27 -48.5t8.5 -61q0 -45 -16 -100.5t-46 -102.5q-57 -87 -111.5 -172.5t-111.5 -172.5h-119q59 94 104.5 165t83.5 130z" />
<glyph unicode=":" horiz-adv-x="240" d="M17 0l25 130h123l-25 -130h-123zM71 278l25 130h123l-25 -130h-123z" />
<glyph unicode=";" horiz-adv-x="241" d="M73 278l25 130h123l-25 -130h-123zM-11 -134l58 131h-29l26 132h123l-25 -128l-91 -135h-62z" />
<glyph unicode="&#x3c;" horiz-adv-x="465" d="M32 257l16 80l456 200l-20 -105l-333 -139l278 -140l-19 -96z" />
<glyph unicode="=" horiz-adv-x="465" d="M46 347l17 89h427l-17 -89h-427zM9 159l18 88h427l-18 -88h-427z" />
<glyph unicode="&#x3e;" horiz-adv-x="465" d="M-5 57l19 107l332 139l-278 139l20 95l378 -200l-15 -80z" />
<glyph unicode="?" horiz-adv-x="437" d="M297 701q76 0 123.5 -41t47.5 -112q0 -32 -6 -56t-16.5 -43.5t-25 -37t-30.5 -35.5q-19 -23 -36 -40.5t-31 -34t-24 -33.5t-15 -37l-10 -45h-110q8 54 23 94.5t44 72.5q23 30 44 51.5t36.5 41t24.5 39.5t9 47q0 29 -16.5 45t-48.5 16q-35 0 -60.5 -24t-31.5 -72 q-28 5 -55 9l-54 8q20 97 74.5 142t143.5 45zM128 0q5 28 10.5 55.5t11.5 55.5h110q-6 -28 -11.5 -55.5t-10.5 -55.5h-110z" />
<glyph unicode="@" horiz-adv-x="830" d="M608 530l-55 -281q-1 -4 -1 -12q0 -33 34 -33q27 0 51 16.5t42 46.5t28.5 71.5t10.5 91.5q0 49 -16 88t-45.5 66.5t-70.5 42.5t-91 15q-80 0 -142.5 -31t-106 -82.5t-66.5 -118.5t-23 -139q0 -117 62 -182t182 -65q53 0 100 11t98 35q5 -17 10 -35t11 -35 q-57 -23 -112.5 -35.5t-115.5 -12.5q-73 0 -132 20.5t-100 59.5t-63.5 97t-22.5 133q0 95 30 178t85.5 144t133.5 96t175 35q72 0 128.5 -21t94.5 -58.5t58 -89.5t20 -114q0 -73 -18.5 -130t-49.5 -96t-71 -59.5t-83 -20.5q-12 0 -27.5 3t-29.5 10t-25.5 18t-15.5 27h-3 q-15 -21 -43 -38t-62 -17q-51 0 -79.5 29t-28.5 77q0 21 2 44.5t6.5 48.5t11 49t14.5 45q9 24 20.5 44.5t28 35.5t38 23.5t49.5 8.5q19 0 41 -9t36 -29q1 0 2 1l7 33h89zM402 215q27 0 45 23q10 13 18.5 35t13.5 45.5t8 45.5t3 36q0 21 -10.5 34.5t-33.5 13.5 q-17 0 -31.5 -8t-24.5 -27q-15 -35 -22.5 -70t-10.5 -73q-1 -22 8 -38.5t37 -16.5z" />
<glyph unicode="A" horiz-adv-x="520" d="M355 0l-8 150h-192l-69 -150h-121l335 696h109l64 -696h-118zM334 391l-6 149h-4l-61 -147l-63 -141h141z" />
<glyph unicode="B" horiz-adv-x="518" d="M412 364q0 -1 -0.5 -1.5t-0.5 -2.5q39 -14 55.5 -48.5t16.5 -77.5q-2 -65 -24.5 -110t-59 -72.5t-83.5 -39.5t-98 -12h-197q6 29 16.5 84t24 122.5t28 141.5t27.5 141.5t23.5 122.5t16.5 84h197q84 0 129 -38t45 -114q0 -69 -28.5 -114.5t-87.5 -65.5zM195 311l-41 -206 h100q28 0 50 11.5t36.5 30t22 42.5t7.5 49q0 35 -20.5 54t-58.5 19h-96zM250 592l-36 -182h77q26 0 49 7.5t40 22t27 36t10 49.5q0 35 -22 51t-60 16h-85z" />
<glyph unicode="C" horiz-adv-x="492" d="M336 701q89 0 137 -46.5t53 -118.5q-28 -8 -55.5 -16t-55.5 -16q-2 37 -23 63t-61 26q-32 0 -53 -12.5t-34.5 -33t-21.5 -46t-14 -51.5q-12 -52 -21 -105t-20 -106q-3 -17 -5 -32t-2 -31q0 -32 16 -53.5t63 -21.5q40 0 70 23.5t44 67.5q27 -8 54.5 -16.5t54.5 -17.5 q-24 -73 -80.5 -118.5t-146.5 -45.5q-51 0 -87 13.5t-58.5 36.5t-33 55t-10.5 70q0 16 2 33.5t5 36.5q2 12 4 23.5t4 22.5q8 38 16 78t15 78q10 49 26 96t43.5 83.5t70 58.5t104.5 22z" />
<glyph unicode="D" horiz-adv-x="534" d="M360 696q80 0 128 -39t48 -120q0 -33 -5.5 -78t-14.5 -96q-15 -85 -30 -149.5t-34 -98.5t-42.5 -56t-51 -35t-58 -18.5t-63.5 -5.5h-215l135 696h203zM375 233q8 40 15.5 79t15.5 79q2 14 5.5 29t5.5 29q2 16 4 29.5t2 23.5q0 40 -19 64t-73 24h-81l-95 -485h82 q34 0 58 9t40 25.5t25 40t15 53.5z" />
<glyph unicode="E" horiz-adv-x="467" d="M22 0l135 696h383l-21 -106h-269l-37 -186h232l-20 -104h-232l-37 -194h269l-20 -106h-383z" />
<glyph unicode="F" horiz-adv-x="458" d="M250 590l-37 -189h232l-21 -104h-231l-58 -297h-113l135 696h383l-21 -106h-269z" />
<glyph unicode="G" horiz-adv-x="517" d="M333 701q89 0 137 -46.5t53 -118.5q-28 -8 -55.5 -16t-55.5 -16q-2 37 -23 63t-61 26q-32 0 -53 -13t-34.5 -33.5t-21.5 -46t-14 -50.5q-9 -47 -18 -93.5t-19 -94.5q-4 -22 -7.5 -43.5t-3.5 -42.5q0 -32 16.5 -53.5t64.5 -21.5q31 0 52.5 12.5t36.5 32.5t24.5 45t14.5 51 l8 40h-103q5 25 9.5 49t9.5 49h216q-7 -37 -13 -73.5t-14 -73.5q-11 -52 -30 -96t-49 -75.5t-72.5 -49.5t-100.5 -18q-45 0 -78.5 11.5t-56 31.5t-34.5 48t-14 61q-1 11 -0.5 27.5t3 35t5.5 38t6 35.5l31 159q10 49 26 96t43.5 83.5t70 58.5t104.5 22z" />
<glyph unicode="H" horiz-adv-x="543" d="M328 0l59 301h-194l-58 -301h-113l135 696h113l-57 -292h194l57 292h112l-135 -696h-113z" />
<glyph unicode="I" horiz-adv-x="240" d="M22 0l136 696h113l-135 -696h-114z" />
<glyph unicode="J" horiz-adv-x="416" d="M351 190q-20 -102 -72 -148.5t-143 -46.5q-51 0 -92.5 20.5t-66.5 62.5l87 66q12 -20 31.5 -32.5t42.5 -12.5q82 0 101 95l98 502h113l-99 -506v0z" />
<glyph unicode="K" horiz-adv-x="528" d="M369 0l-92 314l-105 -117l-38 -197h-113l136 696h112l-57 -299q2 0 4 -1q31 37 60 72.5t61 70.5q12 13 32.5 37t41.5 49t38.5 45t23.5 26h130l-239 -283l124 -413h-119z" />
<glyph unicode="L" horiz-adv-x="456" d="M22 0l135 696h113l-114 -589h265l-20 -107h-379z" />
<glyph unicode="M" horiz-adv-x="662" d="M453 0l79 406q-1 0 -2 0.5t-2 0.5q-13 -23 -25.5 -44.5t-26.5 -43.5q-29 -49 -58.5 -97.5t-60.5 -96.5h-80l-42 187l-19 95h-4l-79 -407h-113l135 696h107q13 -66 28 -131.5t28 -131.5l30 -138h4l98 168l141 233h110l-135 -696h-113z" />
<glyph unicode="N" horiz-adv-x="572" d="M371 0q-20 59 -39.5 117t-39.5 117l-69 220h-3l-87 -454h-113l136 696h103l116 -364q9 -27 17 -52.5t13 -45.5h4l87 462h112l-135 -696h-102z" />
<glyph unicode="O" horiz-adv-x="516" d="M473 211q-20 -103 -74.5 -160t-152.5 -57q-63 0 -105 19.5t-65.5 52.5t-29.5 76t3 90l50 254q7 37 23 75t43.5 69t69 51t100.5 20q55 0 94.5 -19.5t62.5 -51.5t30.5 -72.5t-0.5 -82.5zM410 484q3 13 1 31.5t-11.5 35.5t-28.5 28.5t-50 11.5q-28 0 -47 -10.5t-31.5 -26 t-19.5 -33.5t-10 -34l-50 -263q-5 -26 -3 -48t12 -38.5t29 -25.5t48 -9q42 0 70 26.5t37 72.5z" />
<glyph unicode="P" horiz-adv-x="496" d="M359 696q84 0 131.5 -40.5t47.5 -122.5q0 -60 -17 -109.5t-48.5 -84t-77.5 -53.5t-103 -19h-105l-52 -267h-113l135 696h202zM250 590l-42 -216h94q54 0 88.5 35.5t34.5 100.5q0 80 -88 80h-87z" />
<glyph unicode="Q" horiz-adv-x="518" d="M334 701q46 0 81.5 -14t60.5 -38t37.5 -56.5t11.5 -69.5q-2 -70 -19 -148t-31 -149q-2 -11 -6 -26.5t-9 -32.5t-12 -34.5t-15 -31.5l58 -55l-69 -71l-55 52q-50 -33 -127 -33q-54 0 -91 14.5t-60.5 40t-34 60t-10.5 73.5q1 17 2 35t5 37q11 58 22.5 114t24.5 112 q10 43 27 83t44.5 71t67.5 49t97 18zM321 592q-23 0 -39.5 -7t-28 -18t-19.5 -25t-12 -28q-9 -31 -18 -70t-17.5 -79.5t-15.5 -78.5t-11 -68q-3 -18 -3 -29q1 -39 20.5 -63t67.5 -24q29 0 47 10q-14 14 -27 27.5t-24 24.5l57 58q11 -12 23 -23.5t24 -22.5v1q4 7 7 19 q5 20 9.5 41t9.5 42q5 27 12 58t13 61.5t10 58t4 46.5q0 17 -5 33t-15.5 28.5t-27.5 20t-41 7.5z" />
<glyph unicode="R" horiz-adv-x="522" d="M339 0l-60 290h-88l-56 -290h-113l135 696h212q84 0 129 -44t41 -131q-3 -85 -42.5 -137t-105.5 -75l71 -309h-123zM428 510q3 43 -20 62.5t-65 19.5h-93l-39 -199h99q48 0 82 29.5t36 87.5z" />
<glyph unicode="S" horiz-adv-x="498" d="M116 181q17 -35 45.5 -56t73.5 -21q29 0 50.5 9t35.5 24t21 34.5t7 39.5q0 38 -25 57t-71 33q-80 26 -117 64.5t-37 101.5q0 53 16.5 96t47 74t73.5 47.5t96 16.5q76 0 123 -31.5t67 -79.5l-97 -67q-38 66 -108 66q-44 0 -70 -29t-26 -68q0 -21 8.5 -34.5t24.5 -23.5 t38 -18t48 -17q75 -26 105 -66t30 -100q0 -54 -17 -98t-49.5 -75.5t-78.5 -48.5t-103 -17q-86 0 -137 35t-74 89z" />
<glyph unicode="T" horiz-adv-x="426" d="M344 592l-116 -592h-113l115 592h-152l21 104h416l-20 -104h-151z" />
<glyph unicode="U" horiz-adv-x="529" d="M479 222q-10 -51 -29 -93t-49 -72t-71 -46t-93 -16q-53 0 -91 17t-61 46.5t-30.5 69.5t1.5 87q3 18 10.5 56.5t16.5 86.5t19.5 101t19.5 100.5t16 84t10 52.5h113q-3 -15 -10 -51.5t-16.5 -84.5t-20 -101.5t-19.5 -101.5t-16.5 -86t-10.5 -54q-4 -23 -2.5 -43t10.5 -35 t25 -24t41 -9q56 0 84.5 34t39.5 88q1 7 8 42.5t16.5 85.5t20.5 106.5t21 106.5t16.5 85t8.5 42h114q-4 -19 -11 -56.5t-16 -84t-19 -97t-19 -97t-16.5 -83.5t-10.5 -56z" />
<glyph unicode="V" horiz-adv-x="493" d="M260 0h-111l-47 696h119l13 -313q0 -6 1 -34.5t2 -61.5t1.5 -62t-0.5 -37h5q2 4 8 19t14.5 35.5t18 44t18 44t14.5 35.5t8 19l133 311h122z" />
<glyph unicode="W" horiz-adv-x="717" d="M523 0h-102q-4 72 -5 145t-5 145q-2 40 -3 79.5t-2 79.5h-4q-20 -46 -38.5 -91.5t-37.5 -91.5l-114 -266h-101q-2 174 -3 347.5t-2 348.5h120l-5 -234q-2 -54 -3 -108.5t-4 -108.5h4l70 169l117 282h94q2 -94 6 -185t4 -185q1 -22 1.5 -43.5t0.5 -43.5h5l50 147 q9 25 22 62t28 79t31 86t30 83h122z" />
<glyph unicode="X" horiz-adv-x="490" d="M322 0q-16 62 -31.5 123t-32.5 123l-26 -35l-15 -22.5t-24.5 -37.5t-29.5 -45t-29.5 -45.5t-24.5 -38l-15 -22.5h-130q63 91 125.5 180t125.5 180q-26 85 -52 168t-52 168h124l57 -222h3l144 222h131q-59 -85 -117.5 -168t-118.5 -168q29 -91 57 -180t56 -180h-125z" />
<glyph unicode="Y" horiz-adv-x="471" d="M276 401q17 32 34.5 65.5t35.5 65.5q7 12 19.5 34.5t26.5 47.5t26.5 47.5t19.5 34.5h122q-11 -18 -31 -50t-44.5 -72t-51.5 -83.5t-51.5 -83.5t-44.5 -72.5t-31 -49.5l-56 -285h-110q2 12 6.5 34.5l10 50t11.5 58t11.5 58t9.5 50t7 34.5q-23 103 -47.5 205.5t-47.5 205.5 h116q2 -9 7.5 -36t11.5 -58t11 -57.5t7 -35.5q5 -24 9 -54.5t7 -53.5h6z" />
<glyph unicode="Z" horiz-adv-x="429" d="M-15 0l20 102l346 490h-240l20 104h368l-19 -97l-346 -493h250l-20 -106h-379z" />
<glyph unicode="[" horiz-adv-x="259" d="M5 -100l156 798h177l-16 -78h-77l-125 -643h77l-14 -77h-178z" />
<glyph unicode="\" horiz-adv-x="297" d="M152 -33l-61 752h86q16 -189 31 -376t30 -376h-86z" />
<glyph unicode="]" horiz-adv-x="259" d="M-38 -101l14 77h77l125 644h-77l16 78h176l-156 -799h-175z" />
<glyph unicode="^" horiz-adv-x="465" d="M33 301q65 99 128 196.5t128 196.5h79q26 -99 51.5 -196.5t51.5 -196.5h-96l-33 135l-33 142h-3q-22 -36 -43.5 -72t-44.5 -72q-20 -31 -41 -66.5t-41 -66.5h-103z" />
<glyph unicode="_" horiz-adv-x="498" d="M-68 -145l15 76h497l-16 -76h-496z" />
<glyph unicode="`" horiz-adv-x="438" d="M336 543l-124 182l89 38l91 -190z" />
<glyph unicode="a" horiz-adv-x="455" d="M251 0l9 42q-1 0 -2 0.5t-2 0.5q-43 -49 -104 -49q-34 0 -56.5 11t-36.5 30.5t-20 45.5t-6 57q0 32 4.5 67.5t11.5 64.5q11 49 26.5 91.5t39 73t55 48t75.5 17.5q28 0 52 -11t39 -36q1 0 1.5 0.5t1.5 0.5l9 40h108l-96 -494h-109zM202 98q26 0 44.5 18t27.5 42 q7 18 14 42.5t11.5 48.5t7.5 45t3 34q0 27 -12 46t-41 19q-21 0 -38 -10.5t-30 -33.5q-9 -17 -17 -43.5t-14 -56.5q-5 -23 -8.5 -44.5t-3.5 -39.5q0 -14 2.5 -26t8.5 -21t17 -14.5t28 -5.5z" />
<glyph unicode="b" horiz-adv-x="446" d="M221 -5q-30 0 -55 10t-39 36q-2 0 -3 -1l-9 -40h-108l141 726h109l-53 -274h3q23 23 51.5 35t58.5 12q34 0 56 -10.5t35 -29t18.5 -43.5t5.5 -53q-1 -29 -6.5 -71.5t-15.5 -84.5q-11 -45 -25.5 -83.5t-37 -67t-53.5 -45t-73 -16.5zM205 98q17 0 29 6t22 15q17 16 29 49.5 t20 71.5q6 25 9.5 53t3.5 42q0 29 -12 45t-44 16q-42 0 -67 -48q-9 -21 -17 -45.5t-13.5 -49.5t-8.5 -49.5t-3 -45.5q0 -10 2.5 -20.5t8.5 -19.5t16 -14.5t25 -5.5z" />
<glyph unicode="c" horiz-adv-x="396" d="M185 -5q-46 0 -76 14t-48 37.5t-25 54t-7 62.5q0 20 2.5 45.5t7 52t11.5 51.5t15 45q13 31 31.5 57.5t43.5 45.5t56.5 30t70.5 11q57 0 97.5 -28.5t48.5 -82.5l-96 -46q-5 29 -21 42t-37 13q-26 0 -44 -12t-31 -31.5t-21 -46t-14 -54.5q-4 -22 -7 -42t-3 -38 q0 -36 12.5 -56t45.5 -20q26 0 47 13.5t36 36.5l85 -47q-28 -49 -73 -78t-107 -29z" />
<glyph unicode="d" horiz-adv-x="445" d="M243 501q26 0 52 -12t40 -33h3q14 68 27 135t26 135h109l-141 -726h-109l8 40l-3 2q-23 -24 -49 -35.5t-58 -11.5q-36 0 -59 11.5t-35.5 31.5t-17.5 47t-5 58q0 15 1.5 32.5t4 35t5 33.5t5.5 28q9 45 23.5 86.5t37.5 73t56 50.5t79 19zM256 395q-25 0 -41.5 -13 t-28 -33.5t-18 -46t-11.5 -50.5q-11 -52 -11 -91q0 -26 11.5 -43.5t43.5 -17.5q26 0 45 17.5t28 40.5q8 20 13.5 42t10.5 45q5 24 8 45.5t3 39.5q0 26 -12 45.5t-41 19.5z" />
<glyph unicode="e" horiz-adv-x="436" d="M256 401q-38 0 -61.5 -30.5t-34.5 -81.5q8 -2 18.5 -1.5t18.5 0.5q63 1 88 21t25 49q0 19 -14 31t-40 12zM185 -5q-81 0 -117.5 45t-36.5 120q0 54 11 114.5t37.5 111t71 83.5t111.5 33q79 0 119 -36t40 -91q0 -45 -17 -78t-48.5 -55t-75 -32.5t-95.5 -10.5h-20.5 t-21.5 1q-3 -20 -3 -38q0 -28 14 -46.5t44 -18.5q23 0 48.5 12.5t44.5 37.5l86 -51q-33 -50 -82 -75.5t-110 -25.5z" />
<glyph unicode="f" horiz-adv-x="285" d="M109 405h-58l18 90h58l3.5 17.5t5.5 26.5t5 26.5t3 18.5q6 31 17.5 58t31 47t48.5 31.5t70 11.5q13 0 27 -1.5t28 -3.5l-18 -99q-10 2 -18 3.5t-17 1.5q-17 0 -28 -6t-18 -15t-10 -20t-5 -21l-16 -76h83l-18 -90h-82l-78 -402q-6 -30 -17.5 -57.5t-31 -47.5t-48 -32 t-68.5 -12q-27 0 -55 6l17 99q10 -2 17.5 -2.5t16.5 -0.5q17 0 28 5t17.5 12.5t10 17t5.5 18.5z" />
<glyph unicode="g" horiz-adv-x="449" d="M454 495q-23 -124 -46.5 -246.5t-47.5 -246.5q-8 -44 -21.5 -81t-37 -65t-59.5 -43.5t-89 -15.5q-57 0 -98.5 24t-58.5 65l83 60q12 -20 33.5 -33t41.5 -13q35 0 54 17.5t29 44.5q7 20 11 40t9 41h-3q-24 -26 -52 -36.5t-57 -10.5q-35 0 -57 11t-35.5 29.5t-18.5 43.5 t-5 54q2 70 23 156q8 29 16.5 57t19.5 51q26 54 65 78t87 24q26 0 53 -10.5t41 -36.5q1 1 2 1l9 41h109zM255 395q-16 0 -28 -5.5t-22 -13.5q-17 -14 -29 -46t-20 -74q-4 -22 -7 -42t-5 -39q-1 -14 0 -28t6.5 -24.5t16.5 -17t31 -6.5q29 0 50 23t30 53q11 32 18 66.5 t10 64.5q1 5 1.5 10.5t0.5 10.5q0 11 -2 23t-7.5 22t-16 16.5t-27.5 6.5z" />
<glyph unicode="h" horiz-adv-x="460" d="M259 -1q4 19 10 49.5t13 66t14 72t13 66t9.5 49t3.5 20.5q5 32 -6.5 52t-45.5 20q-33 0 -57 -22.5t-32 -59.5l-61 -313h-109l141 728h110l-55 -280l3 -1q25 26 56 40t60 14q65 0 93 -39.5t17 -107.5q0 -1 -4 -22t-10 -53.5t-13 -72t-14.5 -78t-14 -73t-10.5 -55.5h-111z " />
<glyph unicode="i" horiz-adv-x="220" d="M130 592l20 104h110l-20 -104h-110zM15 0l96 495h110l-96 -495h-110z" />
<glyph unicode="j" horiz-adv-x="230" d="M136 592l20 104h110l-20 -104h-110zM120 -54q-13 -66 -54 -105.5t-111 -39.5h-9h-14.5t-14.5 0.5t-9 0.5l20 101q2 0 11.5 -0.5t11.5 0.5q32 0 45.5 20.5t19.5 49.5l101 523h110z" />
<glyph unicode="k" horiz-adv-x="457" d="M291 0l-74 214q-18 -19 -35 -37.5t-35 -36.5l-27 -140h-109l142 726h108q-20 -105 -40.5 -209t-41.5 -209q2 0 2.5 -0.5t1.5 -0.5q25 26 48.5 52t47.5 52l80 83h134l-191 -197l112 -297h-123z" />
<glyph unicode="l" horiz-adv-x="241" d="M264 726q-29 -145 -57 -288t-56 -288q-2 -10 -2 -15q0 -17 12.5 -26.5t41.5 -11.5l-19 -99h-17q-65 0 -99 21t-34 70q0 14 3 31q4 27 13.5 78.5t22 115t25.5 131t25 126t20 100.5t11 55h110z" />
<glyph unicode="m" horiz-adv-x="714" d="M573 500q33 0 55 -9.5t35.5 -26t19 -38t5.5 -45.5q0 -28 -6 -56l-64 -325h-109l63 321q1 5 1.5 9.5t0.5 9.5q0 18 -11 33t-35 15q-39 0 -64 -24.5t-33 -61.5l-59 -302h-110q22 108 36.5 183.5t26.5 137.5q1 5 1.5 10.5t0.5 10.5q0 20 -10.5 34.5t-37.5 14.5 q-37 0 -62.5 -23t-33.5 -69l-58 -299h-108l96 494h109q-3 -11 -5 -23t-5 -24h4q23 23 53.5 37.5t59.5 14.5q45 0 70 -17t37 -47h1q30 29 64 47t72 18z" />
<glyph unicode="n" horiz-adv-x="459" d="M215 495l-9 -48h3q24 26 55 39.5t60 13.5q66 0 94.5 -39.5t17.5 -104.5q0 -2 -4 -23t-10 -53.5t-13.5 -72l-15 -79t-14.5 -74t-11 -55.5h-110q4 19 10 49.5t13 66t14 72t12.5 66t9 49t3.5 20.5q5 32 -6 52.5t-48 20.5q-33 0 -56 -23.5t-31 -59.5l-60 -313h-109l97 496 h108z" />
<glyph unicode="o" horiz-adv-x="444" d="M267 500q42 0 72.5 -13t50 -34.5t28.5 -50.5t9 -61q0 -30 -4.5 -64t-11.5 -63q-11 -51 -27.5 -91.5t-42 -69t-62 -44t-87.5 -15.5q-47 0 -77.5 13.5t-48 36.5t-24.5 53t-7 63q0 26 4.5 60.5t11.5 66.5q22 100 72.5 156.5t143.5 56.5zM258 401q-35 0 -58 -28t-40 -91 q-6 -24 -10.5 -54.5t-6.5 -53.5q0 -15 1 -29t7 -25t18 -18t34 -7q31 0 51 20.5t28 43.5q7 18 13.5 41t11 46.5t7 45t2.5 36.5q0 32 -14 52.5t-44 20.5z" />
<glyph unicode="p" horiz-adv-x="450" d="M-30 -197q32 174 66 346t67 346h109q-2 -11 -4 -20.5t-4 -20.5q1 0 1 -0.5t1 -0.5q23 23 49.5 35t58.5 12q33 0 55.5 -10.5t36 -29.5t19.5 -45.5t6 -57.5q0 -15 -1 -32t-3.5 -35t-5 -35t-5.5 -31q-9 -45 -23 -86.5t-36.5 -73t-56.5 -50.5t-83 -19q-25 0 -50.5 11 t-40.5 33h-3l-45 -236h-108zM262 395q-23 0 -43.5 -15.5t-34.5 -53.5q-11 -29 -17.5 -62t-10.5 -64q-3 -20 -3 -37q0 -26 12.5 -45t40.5 -19q39 0 64 37q12 19 21 49t15 62q4 20 6.5 39t3.5 34q0 14 -1.5 27.5t-7 24t-16.5 17t-29 6.5z" />
<glyph unicode="q" horiz-adv-x="451" d="M213 -197l48 239h-3q-23 -24 -50.5 -35.5t-56.5 -11.5q-35 0 -58 11.5t-36.5 31.5t-18.5 46.5t-5 55.5q2 33 7.5 75t16.5 87q11 43 26.5 79.5t37.5 63t52 41t71 14.5q28 0 54.5 -11.5t39.5 -36.5q1 0 2 1l9 41h109l-133 -691h-112zM260 395q-36 0 -55 -24 q-16 -19 -26.5 -49t-20.5 -78q-9 -48 -9 -84q0 -25 10.5 -43.5t43.5 -18.5q37 0 61 42q12 20 21 46.5t14.5 53.5t8.5 52t3 42q0 10 -2 21t-8 20t-16 14.5t-25 5.5z" />
<glyph unicode="r" horiz-adv-x="335" d="M294 391q-43 0 -71.5 -26t-38.5 -76l-58 -290h-110l96 496h110l-12 -62h2q25 36 57 52t69 16q32 0 49 -13l-40 -110q-13 8 -27 10.5t-26 2.5z" />
<glyph unicode="s" horiz-adv-x="419" d="M94 150q14 -29 36.5 -43.5t57.5 -14.5q15 0 29 4t25.5 12t18.5 20t7 27q0 12 -6.5 20.5t-17.5 14t-26 9.5t-31 9q-24 7 -46.5 16t-39.5 23t-27 34.5t-10 49.5q0 40 15.5 72t41 53.5t59.5 33t71 11.5q61 0 102 -26t58 -71q-4 -2 -16.5 -9.5t-26 -16t-26 -16.5t-16.5 -10 q-10 27 -32 38.5t-49 11.5q-35 0 -53.5 -18t-18.5 -39q0 -10 8 -17.5t20 -13.5t27 -10t29 -8q24 -6 46.5 -15t39.5 -23.5t27.5 -35.5t10.5 -51q0 -41 -14.5 -74t-41 -55.5t-63.5 -34.5t-82 -12q-69 1 -113.5 29t-61.5 79z" />
<glyph unicode="t" horiz-adv-x="277" d="M230 494h67l-18 -87h-67l-50 -264q-4 -19 4 -31.5t36 -12.5h21l-19 -99q-12 -1 -23.5 -1h-23.5q-36 0 -59 10.5t-35 27.5t-15 39.5t2 46.5l55 284h-52l17 87h52q7 33 13.5 65.5t12.5 65.5h107z" />
<glyph unicode="u" horiz-adv-x="461" d="M216 496q-4 -19 -10 -49.5t-13 -66.5l-14 -72t-12.5 -66t-9 -49.5t-3.5 -20.5q-6 -33 6 -53t48 -20q32 0 55.5 23.5t30.5 60.5l61 313h109l-96 -496h-110l11 49h-3q-24 -27 -55.5 -40.5t-60.5 -13.5q-66 0 -94.5 39.5t-17.5 103.5q0 2 4 23t10 53.5t14 72.5t15.5 79.5 t14 73.5t10.5 56h110z" />
<glyph unicode="v" horiz-adv-x="417" d="M449 494q-26 -71 -52.5 -135t-56 -124t-62.5 -118t-72 -117h-110q-14 125 -27.5 247t-27.5 247h115q5 -75 11 -148t6 -154v-24.5t-1 -26.5h4q48 80 84 166.5t69 186.5h120z" />
<glyph unicode="w" horiz-adv-x="655" d="M331 320q-18 -52 -34.5 -97t-36.5 -87q-16 -34 -32.5 -67.5t-36.5 -68.5h-110l-37 494h116q1 -55 3 -110t2 -111q0 -33 0.5 -60.5t-2.5 -64.5h4q40 78 75 166.5t64 179.5h112l7 -198q1 -19 1 -35t-0.5 -32.5t-1 -34.5t-1.5 -39h5q39 77 71.5 158.5t64.5 180.5h120 q-24 -72 -49.5 -135.5t-54 -123t-61 -117t-69.5 -118.5h-108q-2 67 -4.5 131t-2.5 139v24.5t1 25.5h-5z" />
<glyph unicode="x" horiz-adv-x="424" d="M256 0l-48 163h-1q-11 -15 -26 -36.5t-30.5 -45t-31 -45t-25.5 -36.5h-129l197 253q-10 22 -22.5 54.5t-25 66.5t-25 66t-22.5 55h124l45 -156h1l103 156h130q-48 -61 -95.5 -121.5t-95.5 -121.5q10 -23 23.5 -56.5t27 -69.5t27 -69.5t23.5 -56.5h-124z" />
<glyph unicode="y" horiz-adv-x="402" d="M175 118q20 37 39.5 82.5t37.5 94.5t35 100t32 99h116q-31 -86 -62.5 -166t-63.5 -152t-64.5 -134t-64.5 -110q-46 -69 -105.5 -105t-127.5 -33l-2 95q24 3 45 9.5t40.5 19.5t36.5 33.5t33 51.5q-2 21 -6.5 60t-10 87t-11.5 100.5t-12 100t-10.5 85.5t-7.5 58h115 q2 -26 4.5 -59.5t5 -64.5t4 -55t1.5 -31q2 -35 3.5 -77t-3.5 -89h3z" />
<glyph unicode="z" horiz-adv-x="388" d="M-15 0l18 96l258 302h-186l18 97h315l-17 -92l-258 -301h199l-20 -102h-327z" />
<glyph unicode="{" horiz-adv-x="264" d="M134 301q10 -5 19.5 -14.5t16.5 -24.5t9 -36t-3 -47l-26 -138q-6 -29 0.5 -47.5t28.5 -18.5h28l-14 -75h-55q-50 0 -76 32t-15 92l26 135q9 49 -2 77t-46 30l14 73q37 4 59 33t31 75l27 137q10 51 42 81.5t87 30.5h62l-15 -76h-28q-24 0 -36.5 -19.5t-17.5 -44.5 l-25 -128q-11 -53 -39 -82.5t-51 -40.5z" />
<glyph unicode="|" horiz-adv-x="233" d="M71 -178v904h91v-904h-91z" />
<glyph unicode="}" horiz-adv-x="264" d="M168 299q-10 4 -19.5 14t-16.5 25t-9 36t3 48l26 130q6 31 0 49.5t-32 18.5h-26l14 75h60q51 0 74.5 -30.5t12.5 -88.5l-26 -135q-9 -48 1.5 -77t45.5 -32l-14 -72q-36 -3 -58 -31.5t-31 -76.5l-28 -140q-10 -51 -41.5 -81.5t-88.5 -30.5h-59l15 76h27q24 0 36.5 19.5 t18.5 49.5l24 127q11 52 38 82t52 40z" />
<glyph unicode="~" horiz-adv-x="465" d="M457 307q-31 -54 -65 -77.5t-74 -23.5q-21 0 -40.5 8.5t-38 18t-36.5 18t-36 8.5q-21 0 -39 -11t-45 -39q-14 11 -26.5 21t-26.5 20q32 52 68.5 76t78.5 24q22 0 41.5 -8.5t37 -18.5t33.5 -18.5t33 -8.5q20 0 38.5 11.5t41.5 39.5z" />
<glyph unicode="&#xa1;" horiz-adv-x="260" d="M119 307h91l-90 -508h-110zM256 495l-22 -112h-112l22 112h112z" />
<glyph unicode="&#xa2;" horiz-adv-x="465" d="M164 -2q-36 5 -59.5 20.5t-37.5 38t-19.5 50t-5.5 56.5q0 20 2.5 45.5t7 52t11.5 51.5t15 45q25 59 69 98.5t114 44.5l18 91h38l-18 -91q51 -5 85 -33t42 -77l-96 -46q-5 26 -18.5 39t-31.5 15l-58 -298q22 3 39.5 16t31.5 33l85 -47q-28 -48 -72.5 -77t-104.5 -30 l-19 -102h-38zM152 175q0 -28 7 -46.5t25 -25.5l56 290q-34 -14 -51.5 -52t-26.5 -86q-4 -22 -7 -42t-3 -38z" />
<glyph unicode="&#xa3;" horiz-adv-x="465" d="M318 701q83 0 126.5 -42t50.5 -112l-105 -32q-3 16 -8.5 30.5t-14.5 25.5t-22.5 17.5t-32.5 6.5q-21 0 -36.5 -9t-25.5 -23t-14.5 -33t-4.5 -38q0 -29 5.5 -60.5t5.5 -64.5h122l-18 -84h-117q-13 -57 -32 -100.5t-48 -82.5h249q-5 -26 -9.5 -50.5t-9.5 -49.5h-384 q4 22 7.5 44t8.5 44q39 44 65.5 89.5t39.5 105.5h-70q5 21 9 42l8 42h62q-2 32 -7 63.5t-5 60.5q0 43 13.5 81t40 66.5t64.5 45.5t87 17z" />
<glyph unicode="&#xa4;" horiz-adv-x="530" d="M160 167l-14.5 -14.5l-17.5 -17.5l-17.5 -17.5t-13.5 -14.5q-4 4 -13.5 14t-20 20t-19 18t-9.5 10l64 63q-29 46 -29 98q0 50 29 99l-64 63l63 63l63 -64q24 14 48.5 22t50.5 8q52 0 99 -29l63 64l62 -63l-13 -13l-18.5 -18.5t-18.5 -18t-13 -12.5q29 -49 29 -99 t-29 -100l63 -61l-63 -64l-62 64q-47 -30 -100 -30q-26 0 -51 8t-48 22zM259 433q-22 0 -41 -8t-33.5 -22.5t-22.5 -33.5t-8 -41t8 -41t22 -33.5t33 -23t41 -8.5q24 0 43.5 9.5t34 24.5t22 34t7.5 38q0 22 -8.5 41.5t-22.5 33.5t-33.5 22t-41.5 8z" />
<glyph unicode="&#xa5;" horiz-adv-x="465" d="M339 353h96l-12 -63h-122l-8 -23l-8 -37h126l-12 -64h-125l-33 -166h-108q8 42 16 83t16 83h-123l13 64h122l7 37l1 23h-118l12 63h93l-74 343h113q8 -44 14.5 -86.5t13.5 -86.5l18 -132h4q10 22 24 49t33 63t44.5 83t60.5 110h124z" />
<glyph unicode="&#xa6;" horiz-adv-x="233" d="M71 302v419h91v-419h-91zM162 238v-419h-91v419h91z" />
<glyph unicode="&#xa7;" horiz-adv-x="456" d="M318 701q51 0 92.5 -15t74.5 -48l-61 -73q-29 27 -56 36t-53 9q-39 0 -61 -21t-22 -47q0 -18 16 -32t39.5 -27.5t51 -28t51 -33.5t39.5 -43.5t16 -58.5q0 -45 -23.5 -79t-57.5 -55q11 -17 18 -36.5t7 -41.5q0 -41 -15.5 -74.5t-43 -57.5t-65.5 -37t-83 -13 q-25 0 -50.5 5.5t-49.5 15.5t-44 23.5t-33 30.5l66 70q26 -29 56 -41.5t59 -12.5q43 0 69 20t26 55q0 13 -8.5 25t-22.5 23.5t-32 22t-37 21.5q-26 14 -46.5 27.5t-34.5 29t-22 34t-8 41.5q0 44 22.5 79t64.5 55q-15 18 -23 38t-8 46q0 39 15 70t41 52.5t61 33.5t75 12z M219 397q-20 -8 -33.5 -25t-13.5 -35q0 -17 13 -30.5t33 -25t42.5 -21.5t42.5 -20q17 8 28 25.5t11 36.5q0 16 -8 27t-24 21t-38.5 21t-52.5 26z" />
<glyph unicode="&#xa8;" horiz-adv-x="424" d="M321 575l21 108h105l-20 -108h-106zM141 575l21 108h105l-20 -108h-106z" />
<glyph unicode="&#xa9;" horiz-adv-x="758" d="M378 -10q-75 0 -136 26.5t-104 73t-66 111t-23 140.5t23.5 141t66 112t103.5 74t136 27q74 0 134.5 -26.5t103 -74t66 -112.5t23.5 -141q0 -75 -23.5 -139.5t-66 -111.5t-103 -73.5t-134.5 -26.5zM378 627q-59 0 -106.5 -22t-80.5 -61t-50.5 -91t-17.5 -112 q0 -59 18 -111t51.5 -90.5t80.5 -60.5t105 -22t105 22t80 60.5t51 90.5t18 111q0 61 -18 113t-51 90.5t-80 60.5t-105 22zM379 551q54 0 90.5 -29.5t44.5 -77.5l-72 -23q-5 26 -21 42t-42 16q-17 0 -29 -6.5t-19.5 -17t-11 -23.5t-3.5 -27v-142q0 -28 14.5 -50.5t48.5 -22.5 q53 0 62 58l73 -22q-10 -52 -45.5 -80.5t-89.5 -28.5q-36 0 -62.5 11.5t-43 31.5t-24.5 46.5t-8 55.5v141q0 31 9 58t26 47t43 31.5t60 11.5z" />
<glyph unicode="&#xaa;" horiz-adv-x="314" d="M360 607q-16 -82 -31.5 -164t-32.5 -164h-83q1 6 2 12.5t3 12.5q-1 0 -1 1q-14 -15 -31.5 -22.5t-36.5 -7.5q-44 0 -64.5 27t-20.5 69q0 20 2.5 42t7.5 44q7 33 17 60.5t25.5 48t38 32t53.5 11.5q17 0 34 -6.5t29 -20.5l5 25h84zM183 350q19 0 30 11.5t17 27.5 q8 21 13.5 48t7.5 48q1 5 1 15q-2 14 -9 24t-24 10q-27 0 -42 -26q-5 -7 -10 -23q-9 -23 -13.5 -50.5t-4.5 -41.5q0 -18 7 -30.5t27 -12.5z" />
<glyph unicode="&#xab;" horiz-adv-x="506" d="M327 37l-85 197l159 196h110l-163 -197l83 -196h-104zM136 37l-86 197l159 196h107l-160 -197l83 -196h-103z" />
<glyph unicode="&#xac;" horiz-adv-x="465" d="M420 79h-93l34 173h-334l18 88h426z" />
<glyph unicode="&#xad;" horiz-adv-x="388" d="M52 222l19 99h296l-19 -99h-296z" />
<glyph unicode="&#xae;" horiz-adv-x="514" d="M258 265q-47 0 -85.5 16.5t-65.5 45.5t-41.5 69.5t-14.5 87.5t15 87.5t42 70t65 46t85 16.5q46 0 84 -16.5t65 -46t42 -70t15 -87.5t-15 -87.5t-42 -69.5t-65 -45.5t-84 -16.5zM258 660q-37 0 -66 -13.5t-49.5 -37t-31.5 -55.5t-11 -69q0 -38 11.5 -69.5t32 -55 t49.5 -36.5t65 -13q37 0 65.5 13.5t48.5 37t30.5 55t10.5 68.5t-11 69t-31 55.5t-48.5 37t-64.5 13.5zM297 356q-10 26 -20 51t-21 51h-26v-102h-49v257h86q35 0 55.5 -19.5t20.5 -57.5q0 -23 -9.5 -41t-29.5 -29q4 -11 10.5 -25.5t13 -30t13 -30t11.5 -24.5h-55zM295 536 q0 32 -31 32h-34v-66h32q15 0 24 8.5t9 25.5z" />
<glyph unicode="&#xaf;" horiz-adv-x="439" d="M161 583l18 93h273l-19 -93h-272z" />
<glyph unicode="&#xb0;" horiz-adv-x="363" d="M315 571q0 -27 -10.5 -50.5t-28.5 -41.5t-42 -28t-51 -10t-51.5 10t-42.5 28t-28.5 41.5t-10.5 50.5t10.5 50.5t28.5 41.5t42.5 28t51.5 10q28 0 52 -10t42 -28t28 -41.5t10 -50.5zM245 571q0 26 -18 43.5t-44 17.5t-44 -17.5t-18 -43.5t18 -44t44 -18t44 18t18 44z" />
<glyph unicode="&#xb1;" horiz-adv-x="465" d="M294 288l-32 -163h-89l31 163h-168l18 87h167l33 166h89l-32 -166h167l-17 -87h-167zM-21 0l17 86h427l-17 -86h-427z" />
<glyph unicode="&#xb2;" horiz-adv-x="290" d="M88 671q17 58 55.5 89.5t90.5 31.5t81 -24.5t27 -72.5q0 -27 -13 -52t-36 -50l-136 -146h135l-15 -76h-243l13 67l183 195q12 13 19 27t7 27q1 12 -7 21t-26 9q-17 0 -31 -14t-22 -44z" />
<glyph unicode="&#xb3;" horiz-adv-x="291" d="M321 697q0 -14 -3 -29.5t-10.5 -31t-20 -29t-31.5 -22.5q20 -9 26 -25.5t6 -33.5q0 -27 -7 -55.5t-24 -51.5t-45 -38t-70 -15q-21 0 -40.5 5.5t-34.5 17t-24 29.5t-9 42v13l79 11v-10q0 -17 10.5 -24.5t25.5 -7.5q18 0 29 7t17 17.5t8 23t2 23.5q0 17 -10 28.5t-32 11.5 h-29q4 15 7.5 31.5t5.5 33.5h30q30 0 44.5 20t14.5 46q0 11 -6.5 21.5t-24.5 10.5q-15 0 -30 -11t-22 -37l-77 12q14 57 52 83.5t86 26.5q54 0 80.5 -26.5t26.5 -66.5z" />
<glyph unicode="&#xb4;" horiz-adv-x="438" d="M242 571l117 184l92 -37l-151 -175z" />
<glyph unicode="&#xb6;" horiz-adv-x="497" d="M190 316h-19q-28 1 -48 12.5t-33 29.5t-19.5 42t-6.5 51q0 40 13.5 84.5t40.5 81.5t67 61t94 24h268l-17 -85h-44l-135 -692h-85q33 174 67 346t67 346h-64q-34 -174 -67.5 -346t-66.5 -346h-88z" />
<glyph unicode="&#xb7;" horiz-adv-x="240" d="M67 208l24 130h123l-24 -130h-123z" />
<glyph unicode="&#xb8;" horiz-adv-x="439" d="M217 36q-3 -5 -8 -16t-11 -23t-11 -22.5t-8 -15.5q45 -5 60.5 -27t15.5 -48q0 -16 -6.5 -33t-21 -30.5t-36.5 -22.5t-53 -9q-15 0 -43.5 3.5t-52.5 17.5q5 8 14 25.5t13 25.5q20 -10 37 -13t30 -3q19 0 32.5 9.5t13.5 26.5q0 13 -9.5 21t-26.5 8q-7 0 -11 -1l-25 19 l54 109z" />
<glyph unicode="&#xb9;" horiz-adv-x="243" d="M87 371l64 327q-2 -2 -12.5 -8t-22.5 -13.5t-22.5 -14t-12.5 -7.5l17 86l79 47h75l-81 -417h-84z" />
<glyph unicode="&#xba;" horiz-adv-x="307" d="M219 610q57 0 87.5 -29t30.5 -73q0 -22 -2.5 -45t-7.5 -43q-14 -67 -47.5 -106t-103.5 -39q-32 0 -53.5 8.5t-35.5 23t-20 32.5t-6 38q0 17 2 32l4 30q7 40 18 73t34 60q36 38 100 38zM214 538q-20 0 -34 -16q-8 -11 -13.5 -25t-10.5 -29q-5 -17 -8.5 -37.5t-3.5 -34.5 q0 -47 37 -47q19 0 30.5 13.5t17.5 28.5q4 8 7.5 17.5t5.5 19.5q5 17 7.5 35t2.5 32q0 18 -8 30.5t-30 12.5z" />
<glyph unicode="&#xbb;" horiz-adv-x="506" d="M11 37l164 198l-84 196h103l86 -197l-160 -197h-109zM203 37l164 198l-84 196h103l86 -197l-160 -197h-109z" />
<glyph unicode="&#xbc;" horiz-adv-x="710" d="M169 -17h-80l511 730h81zM613 58l-12 -59h-78l12 59h-163l13 65l180 293h84l-175 -285h75q0 3 3 17.5t6.5 31t6.5 30.5t4 17h76l-18 -96h32l-14 -73h-32zM163 279l64 327q-2 -2 -12.5 -8t-22.5 -13.5t-22.5 -14t-12.5 -7.5l17 86l79 47h75l-81 -417h-84z" />
<glyph unicode="&#xbd;" horiz-adv-x="710" d="M441 299q17 58 55.5 89.5t90.5 31.5t81 -24.5t27 -72.5q0 -27 -13 -52t-36 -50l-136 -146h135l-15 -76h-243l13 67l183 195q12 13 19 27t7 27q1 12 -7 21t-26 9q-17 0 -31 -14t-22 -44zM154 -17h-80l511 730h81zM152 279l64 327q-2 -2 -12.5 -8t-22.5 -13.5t-22.5 -14 t-12.5 -7.5l17 86l79 47h75l-81 -417h-84z" />
<glyph unicode="&#xbe;" horiz-adv-x="710" d="M363 607q0 -14 -3 -29.5t-10.5 -31t-20 -29t-31.5 -22.5q20 -9 26 -25.5t6 -33.5q0 -27 -7 -55.5t-24 -51.5t-45 -38t-70 -15q-21 0 -40.5 5.5t-34.5 17t-24 29.5t-9 42v13l79 11v-10q0 -17 10.5 -24.5t25.5 -7.5q18 0 29 7t17 17.5t8 23t2 23.5q0 17 -10 28.5t-32 11.5 h-29q4 15 7.5 31.5t5.5 33.5h30q30 0 44.5 20t14.5 46q0 11 -6.5 21.5t-24.5 10.5q-15 0 -30 -11t-22 -37l-77 12q14 57 52 83.5t86 26.5q54 0 80.5 -26.5t26.5 -66.5zM181 -17h-80l511 730h81zM612 58l-12 -59h-78l12 59h-163l13 65l180 293h84l-175 -285h75q0 3 3 17.5 t6.5 31t6.5 30.5t4 17h76l-18 -96h32l-14 -73h-32z" />
<glyph unicode="&#xbf;" horiz-adv-x="440" d="M193 -205q-76 0 -123.5 41t-47.5 111q0 31 6.5 55.5t17.5 44.5t25 37.5t29 34.5q19 22 36.5 40t31.5 35t24 33.5t14 36.5l10 45h110l-10 -50q-7 -38 -23 -68t-35.5 -55t-40 -46t-37 -41t-27.5 -40t-11 -42q0 -28 17.5 -46.5t49.5 -18.5q35 0 61 24t32 72q28 -5 55 -8.5 t54 -7.5q-18 -99 -73.5 -143t-144.5 -44zM362 495q-5 -28 -10.5 -55.5t-11.5 -55.5h-110q6 28 11.5 55.5t10.5 55.5h110z" />
<glyph unicode="&#xc0;" horiz-adv-x="520" d="M355 0l-8 150h-192l-69 -150h-121l335 696h109l64 -696h-118zM334 391l-6 149h-4l-61 -147l-63 -141h141zM338 726l-186 100l64 76l161 -125z" />
<glyph unicode="&#xc1;" horiz-adv-x="520" d="M355 0l-8 150h-192l-69 -150h-121l335 696h109l64 -696h-118zM334 391l-6 149h-4l-61 -147l-63 -141h141zM324 776l181 126l61 -75l-205 -102z" />
<glyph unicode="&#xc2;" horiz-adv-x="520" d="M355 0l-8 150h-192l-69 -150h-121l335 696h109l64 -696h-118zM334 391l-6 149h-4l-61 -147l-63 -141h141zM369 811l-152 -82l-35 43l166 129h70l111 -127l-47 -44z" />
<glyph unicode="&#xc3;" horiz-adv-x="520" d="M355 0l-8 150h-192l-69 -150h-121l335 696h109l64 -696h-118zM307 863q17 0 33 -6.5t31 -14t29 -14t26 -6.5q14 0 28.5 8.5t35.5 32.5l53 -33q-27 -53 -57.5 -72.5t-61.5 -19.5q-18 0 -34 6t-31 13.5t-29 14t-27 6.5q-14 0 -28.5 -9.5t-36.5 -32.5l-53 36q29 49 59.5 70 t62.5 21zM334 391l-6 149h-4l-61 -147l-63 -141h141z" />
<glyph unicode="&#xc4;" horiz-adv-x="520" d="M355 0l-8 150h-192l-69 -150h-121l335 696h109l64 -696h-118zM334 391l-6 149h-4l-61 -147l-63 -141h141zM401 742l21 108h106l-20 -108h-107zM220 742l20 108h108l-21 -108h-107z" />
<glyph unicode="&#xc5;" horiz-adv-x="520" d="M355 0l-8 150h-192l-69 -150h-121l335 696h109l64 -696h-118zM334 391l-6 149h-4l-61 -147l-63 -141h141zM368 762q20 0 35.5 14.5t15.5 36.5q0 14 -10 24t-26 10q-20 0 -36 -15.5t-16 -35.5q0 -15 10.5 -24.5t26.5 -9.5zM360 703q-39 0 -64.5 24t-25.5 59q0 24 9 46 t25 38.5t38 26.5t49 10q38 0 64 -24t26 -60q0 -25 -9 -47t-25.5 -38t-38.5 -25.5t-48 -9.5z" />
<glyph unicode="&#xc6;" horiz-adv-x="829" d="M857 696l-15 -106h-272l-27 -186h235l-15 -104h-234q-2 -15 -6 -41.5t-8 -55t-7.5 -55t-5.5 -40.5h273l-14 -108h-389l24 171h-193l-105 -171h-120q18 29 51.5 84t74 122.5t85 141.5t85 141.5t74 122.5t51.5 84h458zM452 589l-187 -315h145l45 314z" />
<glyph unicode="&#xc7;" horiz-adv-x="492" d="M336 701q89 0 137 -46.5t53 -118.5q-28 -8 -55.5 -16t-55.5 -16q-2 37 -23 63t-61 26q-32 0 -53 -12.5t-34.5 -33t-21.5 -46t-14 -51.5q-12 -52 -21 -105t-20 -106q-3 -17 -5 -32t-2 -31q0 -32 16 -53.5t63 -21.5q40 0 70 23.5t44 67.5q27 -8 54.5 -16.5t54.5 -17.5 q-24 -71 -78.5 -116.5t-141.5 -47.5l-17 -35q45 -5 60.5 -27t15.5 -48q0 -16 -6.5 -33t-21 -30.5t-36.5 -22.5t-53 -9q-15 0 -43.5 3.5t-52.5 17.5q5 8 14 25.5t13 25.5q20 -10 37 -13t30 -3q19 0 32.5 9.5t13.5 26.5q0 13 -9.5 21t-26.5 8q-7 0 -11 -1l-25 19l34 69 q-77 11 -110.5 58.5t-33.5 113.5q0 16 2 33.5t5 36.5q2 12 4 23.5t4 22.5q8 38 16 78t15 78q10 49 26 96t43.5 83.5t70 58.5t104.5 22z" />
<glyph unicode="&#xc8;" horiz-adv-x="467" d="M22 0l135 696h383l-21 -106h-269l-37 -186h232l-20 -104h-232l-37 -194h269l-20 -106h-383zM377 726l-186 100l64 76l161 -125z" />
<glyph unicode="&#xc9;" horiz-adv-x="467" d="M22 0l135 696h383l-21 -106h-269l-37 -186h232l-20 -104h-232l-37 -194h269l-20 -106h-383zM286 776l181 126l61 -75l-205 -102z" />
<glyph unicode="&#xca;" horiz-adv-x="467" d="M22 0l135 696h383l-21 -106h-269l-37 -186h232l-20 -104h-232l-37 -194h269l-20 -106h-383zM366 811l-152 -82l-35 43l166 129h70l111 -127l-47 -44z" />
<glyph unicode="&#xcb;" horiz-adv-x="467" d="M22 0l135 696h383l-21 -106h-269l-37 -186h232l-20 -104h-232l-37 -194h269l-20 -106h-383zM390 742l21 108h106l-20 -108h-107zM209 742l20 108h108l-21 -108h-107z" />
<glyph unicode="&#xcc;" horiz-adv-x="240" d="M22 0l136 696h113l-135 -696h-114zM230 726l-186 100l64 76l161 -125z" />
<glyph unicode="&#xcd;" horiz-adv-x="240" d="M22 0l136 696h113l-135 -696h-114zM182 776l181 126l61 -75l-205 -102z" />
<glyph unicode="&#xce;" horiz-adv-x="240" d="M22 0l136 696h113l-135 -696h-114zM240 811l-152 -82l-35 43l166 129h70l111 -127l-47 -44z" />
<glyph unicode="&#xcf;" horiz-adv-x="240" d="M22 0l136 696h113l-135 -696h-114zM263 747l21 108h106l-20 -108h-107zM82 747l20 108h108l-21 -108h-107z" />
<glyph unicode="&#xd0;" horiz-adv-x="534" d="M35 391h63l59 305h203q80 0 128 -39t48 -120q0 -33 -5.5 -78t-14.5 -96q-15 -85 -30 -149.5t-34 -98.5t-42.5 -56t-51 -35t-58 -18.5t-63.5 -5.5h-215l60 311h-62zM375 233q8 40 15.5 79t15.5 79q2 14 5.5 29t5.5 29q2 16 4 29.5t2 23.5q0 40 -19 64t-73 24h-81l-39 -199 h63l-16 -80h-63l-40 -206h82q34 0 58 9t40 25.5t25 40t15 53.5z" />
<glyph unicode="&#xd1;" horiz-adv-x="572" d="M371 0q-20 59 -39.5 117t-39.5 117l-69 220h-3l-87 -454h-113l136 696h103l116 -364q9 -27 17 -52.5t13 -45.5h4l87 462h112l-135 -696h-102zM339 860q17 0 33 -6.5t31 -14t29 -14t26 -6.5q14 0 28.5 8.5t35.5 32.5l53 -33q-27 -53 -57.5 -72.5t-61.5 -19.5q-18 0 -34 6 t-31 13.5t-29 14t-27 6.5q-14 0 -28.5 -9.5t-36.5 -32.5l-53 36q29 49 59.5 70t62.5 21z" />
<glyph unicode="&#xd2;" horiz-adv-x="516" d="M473 211q-20 -103 -74.5 -160t-152.5 -57q-63 0 -105 19.5t-65.5 52.5t-29.5 76t3 90l50 254q7 37 23 75t43.5 69t69 51t100.5 20q55 0 94.5 -19.5t62.5 -51.5t30.5 -72.5t-0.5 -82.5zM410 484q3 13 1 31.5t-11.5 35.5t-28.5 28.5t-50 11.5q-28 0 -47 -10.5t-31.5 -26 t-19.5 -33.5t-10 -34l-50 -263q-5 -26 -3 -48t12 -38.5t29 -25.5t48 -9q42 0 70 26.5t37 72.5zM400 726l-186 100l64 76l161 -125z" />
<glyph unicode="&#xd3;" horiz-adv-x="516" d="M473 211q-20 -103 -74.5 -160t-152.5 -57q-63 0 -105 19.5t-65.5 52.5t-29.5 76t3 90l50 254q7 37 23 75t43.5 69t69 51t100.5 20q55 0 94.5 -19.5t62.5 -51.5t30.5 -72.5t-0.5 -82.5zM410 484q3 13 1 31.5t-11.5 35.5t-28.5 28.5t-50 11.5q-28 0 -47 -10.5t-31.5 -26 t-19.5 -33.5t-10 -34l-50 -263q-5 -26 -3 -48t12 -38.5t29 -25.5t48 -9q42 0 70 26.5t37 72.5zM312 776l181 126l61 -75l-205 -102z" />
<glyph unicode="&#xd4;" horiz-adv-x="516" d="M473 211q-20 -103 -74.5 -160t-152.5 -57q-63 0 -105 19.5t-65.5 52.5t-29.5 76t3 90l50 254q7 37 23 75t43.5 69t69 51t100.5 20q55 0 94.5 -19.5t62.5 -51.5t30.5 -72.5t-0.5 -82.5zM410 484q3 13 1 31.5t-11.5 35.5t-28.5 28.5t-50 11.5q-28 0 -47 -10.5t-31.5 -26 t-19.5 -33.5t-10 -34l-50 -263q-5 -26 -3 -48t12 -38.5t29 -25.5t48 -9q42 0 70 26.5t37 72.5zM375 811l-152 -82l-35 43l166 129h70l111 -127l-47 -44z" />
<glyph unicode="&#xd5;" horiz-adv-x="516" d="M473 211q-20 -103 -74.5 -160t-152.5 -57q-63 0 -105 19.5t-65.5 52.5t-29.5 76t3 90l50 254q7 37 23 75t43.5 69t69 51t100.5 20q55 0 94.5 -19.5t62.5 -51.5t30.5 -72.5t-0.5 -82.5zM410 484q3 13 1 31.5t-11.5 35.5t-28.5 28.5t-50 11.5q-28 0 -47 -10.5t-31.5 -26 t-19.5 -33.5t-10 -34l-50 -263q-5 -26 -3 -48t12 -38.5t29 -25.5t48 -9q42 0 70 26.5t37 72.5zM314 863q17 0 33 -6.5t31 -14t29 -14t26 -6.5q14 0 28.5 8.5t35.5 32.5l53 -33q-27 -53 -57.5 -72.5t-61.5 -19.5q-18 0 -34 6t-31 13.5t-29 14t-27 6.5q-14 0 -28.5 -9.5 t-36.5 -32.5l-53 36q29 49 59.5 70t62.5 21z" />
<glyph unicode="&#xd6;" horiz-adv-x="516" d="M473 211q-20 -103 -74.5 -160t-152.5 -57q-63 0 -105 19.5t-65.5 52.5t-29.5 76t3 90l50 254q7 37 23 75t43.5 69t69 51t100.5 20q55 0 94.5 -19.5t62.5 -51.5t30.5 -72.5t-0.5 -82.5zM410 484q3 13 1 31.5t-11.5 35.5t-28.5 28.5t-50 11.5q-28 0 -47 -10.5t-31.5 -26 t-19.5 -33.5t-10 -34l-50 -263q-5 -26 -3 -48t12 -38.5t29 -25.5t48 -9q42 0 70 26.5t37 72.5zM400 742l21 108h106l-20 -108h-107zM219 742l20 108h108l-21 -108h-107z" />
<glyph unicode="&#xd7;" horiz-adv-x="487" d="M251 217l-175 -143l-53 67l176 144l-116 147l71 58l116 -147l174 144l52 -68l-173 -143l116 -150l-70 -58z" />
<glyph unicode="&#xd8;" horiz-adv-x="516" d="M473 211q-20 -103 -74.5 -160t-152.5 -57q-51 0 -88.5 13.5t-62.5 36.5l-35 -49q-8 5 -16 11.5t-16 13.5l20 28t21 28q-20 32 -24 72t4 84l50 254q7 37 23 75t43.5 69t69 51t100.5 20q48 0 83.5 -14.5t58.5 -39.5q10 14 20 27.5t20 27.5l36 -27l-48 -67q31 -60 17 -133z M403 543q-9 20 -28 34t-54 14q-28 0 -47 -10.5t-31.5 -26t-19.5 -33.5t-10 -34l-50 -263q-3 -11 -3 -21zM408 474l-240 -330q20 -41 81 -41q42 0 70 26.5t37 72.5z" />
<glyph unicode="&#xd9;" horiz-adv-x="529" d="M479 222q-10 -51 -29 -93t-49 -72t-71 -46t-93 -16q-53 0 -91 17t-61 46.5t-30.5 69.5t1.5 87q3 18 10.5 56.5t16.5 86.5t19.5 101t19.5 100.5t16 84t10 52.5h113q-3 -15 -10 -51.5t-16.5 -84.5t-20 -101.5t-19.5 -101.5t-16.5 -86t-10.5 -54q-4 -23 -2.5 -43t10.5 -35 t25 -24t41 -9q56 0 84.5 34t39.5 88q1 7 8 42.5t16.5 85.5t20.5 106.5t21 106.5t16.5 85t8.5 42h114q-4 -19 -11 -56.5t-16 -84t-19 -97t-19 -97t-16.5 -83.5t-10.5 -56zM397 726l-186 100l64 76l161 -125z" />
<glyph unicode="&#xda;" horiz-adv-x="529" d="M479 222q-10 -51 -29 -93t-49 -72t-71 -46t-93 -16q-53 0 -91 17t-61 46.5t-30.5 69.5t1.5 87q3 18 10.5 56.5t16.5 86.5t19.5 101t19.5 100.5t16 84t10 52.5h113q-3 -15 -10 -51.5t-16.5 -84.5t-20 -101.5t-19.5 -101.5t-16.5 -86t-10.5 -54q-4 -23 -2.5 -43t10.5 -35 t25 -24t41 -9q56 0 84.5 34t39.5 88q1 7 8 42.5t16.5 85.5t20.5 106.5t21 106.5t16.5 85t8.5 42h114q-4 -19 -11 -56.5t-16 -84t-19 -97t-19 -97t-16.5 -83.5t-10.5 -56zM312 776l181 126l61 -75l-205 -102z" />
<glyph unicode="&#xdb;" horiz-adv-x="529" d="M479 222q-10 -51 -29 -93t-49 -72t-71 -46t-93 -16q-53 0 -91 17t-61 46.5t-30.5 69.5t1.5 87q3 18 10.5 56.5t16.5 86.5t19.5 101t19.5 100.5t16 84t10 52.5h113q-3 -15 -10 -51.5t-16.5 -84.5t-20 -101.5t-19.5 -101.5t-16.5 -86t-10.5 -54q-4 -23 -2.5 -43t10.5 -35 t25 -24t41 -9q56 0 84.5 34t39.5 88q1 7 8 42.5t16.5 85.5t20.5 106.5t21 106.5t16.5 85t8.5 42h114q-4 -19 -11 -56.5t-16 -84t-19 -97t-19 -97t-16.5 -83.5t-10.5 -56zM388 811l-152 -82l-35 43l166 129h70l111 -127l-47 -44z" />
<glyph unicode="&#xdc;" horiz-adv-x="529" d="M479 222q-10 -51 -29 -93t-49 -72t-71 -46t-93 -16q-53 0 -91 17t-61 46.5t-30.5 69.5t1.5 87q3 18 10.5 56.5t16.5 86.5t19.5 101t19.5 100.5t16 84t10 52.5h113q-3 -15 -10 -51.5t-16.5 -84.5t-20 -101.5t-19.5 -101.5t-16.5 -86t-10.5 -54q-4 -23 -2.5 -43t10.5 -35 t25 -24t41 -9q56 0 84.5 34t39.5 88q1 7 8 42.5t16.5 85.5t20.5 106.5t21 106.5t16.5 85t8.5 42h114q-4 -19 -11 -56.5t-16 -84t-19 -97t-19 -97t-16.5 -83.5t-10.5 -56zM405 742l21 108h106l-20 -108h-107zM224 742l20 108h108l-21 -108h-107z" />
<glyph unicode="&#xdd;" horiz-adv-x="471" d="M276 401q17 32 34.5 65.5t35.5 65.5q7 12 19.5 34.5t26.5 47.5t26.5 47.5t19.5 34.5h122q-11 -18 -31 -50t-44.5 -72t-51.5 -83.5t-51.5 -83.5t-44.5 -72.5t-31 -49.5l-56 -285h-110q2 12 6.5 34.5l10 50t11.5 58t11.5 58t9.5 50t7 34.5q-23 103 -47.5 205.5t-47.5 205.5 h116q2 -9 7.5 -36t11.5 -58t11 -57.5t7 -35.5q5 -24 9 -54.5t7 -53.5h6zM270 776l181 126l61 -75l-205 -102z" />
<glyph unicode="&#xde;" horiz-adv-x="502" d="M23 0l133 695h115l-24 -125h88q84 0 131.5 -40.5t47.5 -122.5q0 -60 -17 -109.5t-48.5 -84t-77.5 -53.5t-103 -19h-105l-27 -141h-113zM226 464l-42 -216h94q54 0 88.5 35.5t34.5 100.5q0 80 -88 80h-87z" />
<glyph unicode="&#xdf;" horiz-adv-x="467" d="M385 419q32 -14 43 -42.5t11 -62.5q0 -24 -2.5 -48.5t-6.5 -49.5q-7 -44 -20 -84t-38 -70.5t-63.5 -48.5t-96.5 -18h-15.5t-15.5 1l18 93q35 -2 56.5 12.5t34.5 41t20 61t13 73.5q2 14 1.5 30.5t-6.5 30.5t-18.5 23.5t-34.5 9.5l18 87q24 1 39.5 14t24.5 29.5t13 33 t4 25.5q0 25 -13 43.5t-44 18.5q-39 0 -56.5 -27.5t-25.5 -68.5l-103 -526h-110q26 131 51 261.5t50 261.5q9 46 24 83t38.5 63t57 40.5t79.5 14.5q42 0 72 -11t50 -30.5t29.5 -47t9.5 -59.5q0 -54 -23 -95t-65 -60v-2v0z" />
<glyph unicode="&#xe0;" horiz-adv-x="455" d="M251 0l9 42q-1 0 -2 0.5t-2 0.5q-43 -49 -104 -49q-34 0 -56.5 11t-36.5 30.5t-20 45.5t-6 57q0 32 4.5 67.5t11.5 64.5q11 49 26.5 91.5t39 73t55 48t75.5 17.5q28 0 52 -11t39 -36q1 0 1.5 0.5t1.5 0.5l9 40h108l-96 -494h-109zM202 98q26 0 44.5 18t27.5 42 q7 18 14 42.5t11.5 48.5t7.5 45t3 34q0 27 -12 46t-41 19q-21 0 -38 -10.5t-30 -33.5q-9 -17 -17 -43.5t-14 -56.5q-5 -23 -8.5 -44.5t-3.5 -39.5q0 -14 2.5 -26t8.5 -21t17 -14.5t28 -5.5zM294 543l-124 182l89 38l91 -190z" />
<glyph unicode="&#xe1;" horiz-adv-x="455" d="M251 0l9 42q-1 0 -2 0.5t-2 0.5q-43 -49 -104 -49q-34 0 -56.5 11t-36.5 30.5t-20 45.5t-6 57q0 32 4.5 67.5t11.5 64.5q11 49 26.5 91.5t39 73t55 48t75.5 17.5q28 0 52 -11t39 -36q1 0 1.5 0.5t1.5 0.5l9 40h108l-96 -494h-109zM202 98q26 0 44.5 18t27.5 42 q7 18 14 42.5t11.5 48.5t7.5 45t3 34q0 27 -12 46t-41 19q-21 0 -38 -10.5t-30 -33.5q-9 -17 -17 -43.5t-14 -56.5q-5 -23 -8.5 -44.5t-3.5 -39.5q0 -14 2.5 -26t8.5 -21t17 -14.5t28 -5.5zM255 571l117 184l92 -37l-151 -175z" />
<glyph unicode="&#xe2;" horiz-adv-x="455" d="M251 0l9 42q-1 0 -2 0.5t-2 0.5q-43 -49 -104 -49q-34 0 -56.5 11t-36.5 30.5t-20 45.5t-6 57q0 32 4.5 67.5t11.5 64.5q11 49 26.5 91.5t39 73t55 48t75.5 17.5q28 0 52 -11t39 -36q1 0 1.5 0.5t1.5 0.5l9 40h108l-96 -494h-109zM202 98q26 0 44.5 18t27.5 42 q7 18 14 42.5t11.5 48.5t7.5 45t3 34q0 27 -12 46t-41 19q-21 0 -38 -10.5t-30 -33.5q-9 -17 -17 -43.5t-14 -56.5q-5 -23 -8.5 -44.5t-3.5 -39.5q0 -14 2.5 -26t8.5 -21t17 -14.5t28 -5.5zM317 640l-153 -104l-38 40l169 152h71l108 -153l-52 -38z" />
<glyph unicode="&#xe3;" horiz-adv-x="455" d="M251 0l9 42q-1 0 -2 0.5t-2 0.5q-43 -49 -104 -49q-34 0 -56.5 11t-36.5 30.5t-20 45.5t-6 57q0 32 4.5 67.5t11.5 64.5q11 49 26.5 91.5t39 73t55 48t75.5 17.5q28 0 52 -11t39 -36q1 0 1.5 0.5t1.5 0.5l9 40h108l-96 -494h-109zM202 98q26 0 44.5 18t27.5 42 q7 18 14 42.5t11.5 48.5t7.5 45t3 34q0 27 -12 46t-41 19q-21 0 -38 -10.5t-30 -33.5q-9 -17 -17 -43.5t-14 -56.5q-5 -23 -8.5 -44.5t-3.5 -39.5q0 -14 2.5 -26t8.5 -21t17 -14.5t28 -5.5zM258 693q17 0 33 -6.5t31 -14t29 -14t26 -6.5q14 0 28.5 8.5t35.5 32.5l53 -33 q-27 -53 -57.5 -72.5t-61.5 -19.5q-18 0 -34 6t-31 13.5t-29 14t-27 6.5q-14 0 -28.5 -9.5t-36.5 -32.5l-53 36q29 49 59.5 70t62.5 21z" />
<glyph unicode="&#xe4;" horiz-adv-x="455" d="M251 0l9 42q-1 0 -2 0.5t-2 0.5q-43 -49 -104 -49q-34 0 -56.5 11t-36.5 30.5t-20 45.5t-6 57q0 32 4.5 67.5t11.5 64.5q11 49 26.5 91.5t39 73t55 48t75.5 17.5q28 0 52 -11t39 -36q1 0 1.5 0.5t1.5 0.5l9 40h108l-96 -494h-109zM202 98q26 0 44.5 18t27.5 42 q7 18 14 42.5t11.5 48.5t7.5 45t3 34q0 27 -12 46t-41 19q-21 0 -38 -10.5t-30 -33.5q-9 -17 -17 -43.5t-14 -56.5q-5 -23 -8.5 -44.5t-3.5 -39.5q0 -14 2.5 -26t8.5 -21t17 -14.5t28 -5.5zM336 575l21 108h105l-20 -108h-106zM156 575l21 108h105l-20 -108h-106z" />
<glyph unicode="&#xe5;" horiz-adv-x="455" d="M251 0l9 42q-1 0 -2 0.5t-2 0.5q-43 -49 -104 -49q-34 0 -56.5 11t-36.5 30.5t-20 45.5t-6 57q0 32 4.5 67.5t11.5 64.5q11 49 26.5 91.5t39 73t55 48t75.5 17.5q28 0 52 -11t39 -36q1 0 1.5 0.5t1.5 0.5l9 40h108l-96 -494h-109zM202 98q26 0 44.5 18t27.5 42 q7 18 14 42.5t11.5 48.5t7.5 45t3 34q0 27 -12 46t-41 19q-21 0 -38 -10.5t-30 -33.5q-9 -17 -17 -43.5t-14 -56.5q-5 -23 -8.5 -44.5t-3.5 -39.5q0 -14 2.5 -26t8.5 -21t17 -14.5t28 -5.5zM294 533q-39 0 -64.5 24t-25.5 59q0 24 9 46t25 38.5t38 26.5t49 10q38 0 64 -24 t26 -60q0 -25 -9 -47t-25.5 -38t-38.5 -25.5t-48 -9.5zM302 592q20 0 35.5 14.5t15.5 36.5q0 14 -10 24t-26 10q-20 0 -36 -15.5t-16 -35.5q0 -15 10.5 -24.5t26.5 -9.5z" />
<glyph unicode="&#xe6;" horiz-adv-x="699" d="M531 501q80 0 119.5 -35.5t39.5 -91.5q0 -44 -17 -76.5t-47 -54.5t-71.5 -32.5t-90.5 -11.5h-24t-25 1q-5 -25 -5 -43q0 -27 14.5 -44.5t44.5 -17.5q26 0 50 13.5t41 38.5l83 -52q-31 -50 -79.5 -75t-108.5 -25q-105 0 -138 73q-33 -40 -81 -56.5t-93 -16.5q-63 0 -94 30 t-31 84q0 38 12 72t38 60t67 41.5t100 15.5q3 0 13 -0.5t21 -1t21.5 -1.5t14.5 -1q4 20 8 39.5t0 34.5t-17.5 24t-43.5 9q-26 0 -47.5 -9t-40.5 -35l-78 50q31 50 79.5 71.5t107.5 21.5q35 0 73 -11t58 -34q24 20 56 33t71 13zM290 213q-17 2 -36 2h-33q-42 -2 -67.5 -20 t-25.5 -56q0 -20 14 -33t46 -13t58.5 20t36.5 66zM524 399q-40 0 -61 -29.5t-32 -81.5q10 -1 20 -1h19q58 1 83.5 20t25.5 50q0 19 -14.5 30.5t-40.5 11.5z" />
<glyph unicode="&#xe7;" horiz-adv-x="396" d="M365 102q-26 -46 -67 -74t-96 -32q-5 -12 -10.5 -22t-7.5 -15q45 -5 60.5 -27t15.5 -48q0 -16 -6.5 -33t-21 -30.5t-36.5 -22.5t-53 -9q-15 0 -43.5 3.5t-52.5 17.5q5 8 14 25.5t13 25.5q20 -10 37 -13t30 -3q19 0 32.5 9.5t13.5 26.5q0 13 -9.5 21t-26.5 8q-7 0 -11 -1 l-25 19l34 70q-35 5 -58.5 20.5t-37 38t-19 50t-5.5 56.5q0 20 2.5 45.5t7 52t11.5 51.5t15 45q13 31 31.5 57.5t43.5 45.5t56.5 30t70.5 11q57 0 97.5 -28.5t48.5 -82.5l-96 -46q-5 29 -21 42t-37 13q-26 0 -44 -12t-31 -31.5t-21 -46t-14 -54.5q-4 -22 -7 -42t-3 -38 q0 -36 12.5 -56t45.5 -20q26 0 47 13.5t36 36.5l85 -47v0z" />
<glyph unicode="&#xe8;" horiz-adv-x="436" d="M256 401q-38 0 -61.5 -30.5t-34.5 -81.5q8 -2 18.5 -1.5t18.5 0.5q63 1 88 21t25 49q0 19 -14 31t-40 12zM185 -5q-81 0 -117.5 45t-36.5 120q0 54 11 114.5t37.5 111t71 83.5t111.5 33q79 0 119 -36t40 -91q0 -45 -17 -78t-48.5 -55t-75 -32.5t-95.5 -10.5h-20.5 t-21.5 1q-3 -20 -3 -38q0 -28 14 -46.5t44 -18.5q23 0 48.5 12.5t44.5 37.5l86 -51q-33 -50 -82 -75.5t-110 -25.5zM282 543l-124 182l89 38l91 -190z" />
<glyph unicode="&#xe9;" horiz-adv-x="436" d="M256 401q-38 0 -61.5 -30.5t-34.5 -81.5q8 -2 18.5 -1.5t18.5 0.5q63 1 88 21t25 49q0 19 -14 31t-40 12zM185 -5q-81 0 -117.5 45t-36.5 120q0 54 11 114.5t37.5 111t71 83.5t111.5 33q79 0 119 -36t40 -91q0 -45 -17 -78t-48.5 -55t-75 -32.5t-95.5 -10.5h-20.5 t-21.5 1q-3 -20 -3 -38q0 -28 14 -46.5t44 -18.5q23 0 48.5 12.5t44.5 37.5l86 -51q-33 -50 -82 -75.5t-110 -25.5zM228 571l117 184l92 -37l-151 -175z" />
<glyph unicode="&#xea;" horiz-adv-x="436" d="M256 401q-38 0 -61.5 -30.5t-34.5 -81.5q8 -2 18.5 -1.5t18.5 0.5q63 1 88 21t25 49q0 19 -14 31t-40 12zM185 -5q-81 0 -117.5 45t-36.5 120q0 54 11 114.5t37.5 111t71 83.5t111.5 33q79 0 119 -36t40 -91q0 -45 -17 -78t-48.5 -55t-75 -32.5t-95.5 -10.5h-20.5 t-21.5 1q-3 -20 -3 -38q0 -28 14 -46.5t44 -18.5q23 0 48.5 12.5t44.5 37.5l86 -51q-33 -50 -82 -75.5t-110 -25.5zM302 640l-153 -104l-38 40l169 152h71l108 -153l-52 -38z" />
<glyph unicode="&#xeb;" horiz-adv-x="436" d="M256 401q-38 0 -61.5 -30.5t-34.5 -81.5q8 -2 18.5 -1.5t18.5 0.5q63 1 88 21t25 49q0 19 -14 31t-40 12zM185 -5q-81 0 -117.5 45t-36.5 120q0 54 11 114.5t37.5 111t71 83.5t111.5 33q79 0 119 -36t40 -91q0 -45 -17 -78t-48.5 -55t-75 -32.5t-95.5 -10.5h-20.5 t-21.5 1q-3 -20 -3 -38q0 -28 14 -46.5t44 -18.5q23 0 48.5 12.5t44.5 37.5l86 -51q-33 -50 -82 -75.5t-110 -25.5zM327 575l21 108h105l-20 -108h-106zM147 575l21 108h105l-20 -108h-106z" />
<glyph unicode="&#xec;" horiz-adv-x="268" d="M73 0l96 495h110l-96 -495h-110zM216 543l-124 182l89 38l91 -190z" />
<glyph unicode="&#xed;" horiz-adv-x="248" d="M15 0l96 495h110l-96 -495h-110zM140 571l117 184l92 -37l-151 -175z" />
<glyph unicode="&#xee;" horiz-adv-x="280" d="M43 0l96 495h110l-96 -495h-110zM229 640l-153 -104l-38 40l169 152h71l108 -153l-52 -38z" />
<glyph unicode="&#xef;" horiz-adv-x="276" d="M45 0l96 495h110l-96 -495h-110zM249 575l21 108h105l-20 -108h-106zM69 575l21 108h105l-20 -108h-106z" />
<glyph unicode="&#xf0;" horiz-adv-x="455" d="M248 476q13 0 28.5 -2.5t30.5 -9.5t28.5 -18t21.5 -29q6 34 4.5 71.5t-12.5 66.5l-65 -45l-25 41l66 45q-15 24 -43.5 36.5t-62.5 15.5l24 82q62 -6 100 -28.5t61 -51.5q19 14 38 26t38 26l27 -40q-20 -13 -39.5 -26.5t-39.5 -26.5q14 -31 20 -67.5t6 -78.5 q0 -27 -3.5 -65.5t-9.5 -74.5q-10 -66 -28 -125.5t-47.5 -104.5t-72 -71.5t-101.5 -26.5q-43 0 -73 12.5t-49 34t-27.5 50t-8.5 61.5q0 67 14.5 125.5t42 102.5t67 69.5t90.5 25.5zM254 376q-31 0 -52.5 -20.5t-35 -51t-19.5 -67.5t-6 -70t17 -52.5t50 -19.5q39 0 62 35 q7 10 15 28t15.5 41.5t13.5 50.5t8 54q2 35 -17 53.5t-51 18.5z" />
<glyph unicode="&#xf1;" horiz-adv-x="459" d="M205 495l-9 -48h3q24 26 55 39.5t60 13.5q66 0 94.5 -39.5t17.5 -104.5q0 -2 -4 -23t-10 -53.5t-13.5 -72l-15 -79t-14.5 -74t-11 -55.5h-110q4 19 10 49.5t13 66t14 72t12.5 66t9 49t3.5 20.5q5 32 -6 52.5t-48 20.5q-33 0 -56 -23.5t-31 -59.5l-60 -313h-109l97 496 h108zM242 693q17 0 33 -6.5t31 -14t29 -14t26 -6.5q14 0 28.5 8.5t35.5 32.5l53 -33q-27 -53 -57.5 -72.5t-61.5 -19.5q-18 0 -34 6t-31 13.5t-29 14t-27 6.5q-14 0 -28.5 -9.5t-36.5 -32.5l-53 36q29 49 59.5 70t62.5 21z" />
<glyph unicode="&#xf2;" horiz-adv-x="444" d="M267 500q42 0 72.5 -13t50 -34.5t28.5 -50.5t9 -61q0 -30 -4.5 -64t-11.5 -63q-11 -51 -27.5 -91.5t-42 -69t-62 -44t-87.5 -15.5q-47 0 -77.5 13.5t-48 36.5t-24.5 53t-7 63q0 26 4.5 60.5t11.5 66.5q22 100 72.5 156.5t143.5 56.5zM258 401q-35 0 -58 -28t-40 -91 q-6 -24 -10.5 -54.5t-6.5 -53.5q0 -15 1 -29t7 -25t18 -18t34 -7q31 0 51 20.5t28 43.5q7 18 13.5 41t11 46.5t7 45t2.5 36.5q0 32 -14 52.5t-44 20.5zM285 543l-124 182l89 38l91 -190z" />
<glyph unicode="&#xf3;" horiz-adv-x="444" d="M267 500q42 0 72.5 -13t50 -34.5t28.5 -50.5t9 -61q0 -30 -4.5 -64t-11.5 -63q-11 -51 -27.5 -91.5t-42 -69t-62 -44t-87.5 -15.5q-47 0 -77.5 13.5t-48 36.5t-24.5 53t-7 63q0 26 4.5 60.5t11.5 66.5q22 100 72.5 156.5t143.5 56.5zM258 401q-35 0 -58 -28t-40 -91 q-6 -24 -10.5 -54.5t-6.5 -53.5q0 -15 1 -29t7 -25t18 -18t34 -7q31 0 51 20.5t28 43.5q7 18 13.5 41t11 46.5t7 45t2.5 36.5q0 32 -14 52.5t-44 20.5zM245 571l117 184l92 -37l-151 -175z" />
<glyph unicode="&#xf4;" horiz-adv-x="444" d="M267 500q42 0 72.5 -13t50 -34.5t28.5 -50.5t9 -61q0 -30 -4.5 -64t-11.5 -63q-11 -51 -27.5 -91.5t-42 -69t-62 -44t-87.5 -15.5q-47 0 -77.5 13.5t-48 36.5t-24.5 53t-7 63q0 26 4.5 60.5t11.5 66.5q22 100 72.5 156.5t143.5 56.5zM258 401q-35 0 -58 -28t-40 -91 q-6 -24 -10.5 -54.5t-6.5 -53.5q0 -15 1 -29t7 -25t18 -18t34 -7q31 0 51 20.5t28 43.5q7 18 13.5 41t11 46.5t7 45t2.5 36.5q0 32 -14 52.5t-44 20.5zM308 640l-153 -104l-38 40l169 152h71l108 -153l-52 -38z" />
<glyph unicode="&#xf5;" horiz-adv-x="444" d="M267 500q42 0 72.5 -13t50 -34.5t28.5 -50.5t9 -61q0 -30 -4.5 -64t-11.5 -63q-11 -51 -27.5 -91.5t-42 -69t-62 -44t-87.5 -15.5q-47 0 -77.5 13.5t-48 36.5t-24.5 53t-7 63q0 26 4.5 60.5t11.5 66.5q22 100 72.5 156.5t143.5 56.5zM258 401q-35 0 -58 -28t-40 -91 q-6 -24 -10.5 -54.5t-6.5 -53.5q0 -15 1 -29t7 -25t18 -18t34 -7q31 0 51 20.5t28 43.5q7 18 13.5 41t11 46.5t7 45t2.5 36.5q0 32 -14 52.5t-44 20.5zM238 694q17 0 33 -6.5t31 -14t29 -14t26 -6.5q14 0 28.5 8.5t35.5 32.5l53 -33q-27 -53 -57.5 -72.5t-61.5 -19.5 q-18 0 -34 6t-31 13.5t-29 14t-27 6.5q-14 0 -28.5 -9.5t-36.5 -32.5l-53 36q29 49 59.5 70t62.5 21z" />
<glyph unicode="&#xf6;" horiz-adv-x="444" d="M267 500q42 0 72.5 -13t50 -34.5t28.5 -50.5t9 -61q0 -30 -4.5 -64t-11.5 -63q-11 -51 -27.5 -91.5t-42 -69t-62 -44t-87.5 -15.5q-47 0 -77.5 13.5t-48 36.5t-24.5 53t-7 63q0 26 4.5 60.5t11.5 66.5q22 100 72.5 156.5t143.5 56.5zM258 401q-35 0 -58 -28t-40 -91 q-6 -24 -10.5 -54.5t-6.5 -53.5q0 -15 1 -29t7 -25t18 -18t34 -7q31 0 51 20.5t28 43.5q7 18 13.5 41t11 46.5t7 45t2.5 36.5q0 32 -14 52.5t-44 20.5zM325 575l21 108h105l-20 -108h-106zM145 575l21 108h105l-20 -108h-106z" />
<glyph unicode="&#xf7;" horiz-adv-x="465" d="M273 407q-25 0 -40.5 16t-15.5 39q0 16 7 30t18.5 25t26.5 17.5t30 6.5q25 0 41 -15.5t16 -39.5q0 -15 -7 -29.5t-19 -25.5t-27 -17.5t-30 -6.5zM26 251l18 87h429l-17 -87h-430zM203 45q-25 0 -41 16t-16 39q0 16 7 30.5t18.5 25.5t26.5 17.5t31 6.5q25 0 40.5 -16 t15.5 -39q0 -16 -7 -30.5t-18.5 -25.5t-26.5 -17.5t-30 -6.5z" />
<glyph unicode="&#xf8;" horiz-adv-x="444" d="M267 500q35 0 61 -8.5t46 -24.5q9 13 18.5 25t19.5 25q8 -5 15 -10.5t15 -11.5l-42 -56q14 -20 20.5 -45.5t6.5 -52.5q0 -30 -4.5 -64t-11.5 -63q-11 -51 -27.5 -91.5t-42 -69t-62 -44t-87.5 -15.5q-36 0 -62 8t-44 22l-33 -43l-29 22l37 49q-15 22 -20.5 50t-5.5 58 q0 26 4.5 60.5t11.5 66.5q22 100 72.5 156.5t143.5 56.5zM258 401q-35 0 -58 -28t-40 -91q-6 -24 -10.5 -54.5t-6.5 -53.5v-13l162 215q-8 11 -19 18t-28 7zM154 114q7 -9 18 -14t31 -5q31 0 51 20.5t28 43.5q7 18 13.5 41t11 46.5t7 45t2.5 36.5z" />
<glyph unicode="&#xf9;" horiz-adv-x="461" d="M216 496q-4 -19 -10 -49.5t-13 -66.5l-14 -72t-12.5 -66t-9 -49.5t-3.5 -20.5q-6 -33 6 -53t48 -20q32 0 55.5 23.5t30.5 60.5l61 313h109l-96 -496h-110l11 49h-3q-24 -27 -55.5 -40.5t-60.5 -13.5q-66 0 -94.5 39.5t-17.5 103.5q0 2 4 23t10 53.5t14 72.5t15.5 79.5 t14 73.5t10.5 56h110zM282 543l-124 182l89 38l91 -190z" />
<glyph unicode="&#xfa;" horiz-adv-x="461" d="M216 496q-4 -19 -10 -49.5t-13 -66.5l-14 -72t-12.5 -66t-9 -49.5t-3.5 -20.5q-6 -33 6 -53t48 -20q32 0 55.5 23.5t30.5 60.5l61 313h109l-96 -496h-110l11 49h-3q-24 -27 -55.5 -40.5t-60.5 -13.5q-66 0 -94.5 39.5t-17.5 103.5q0 2 4 23t10 53.5t14 72.5t15.5 79.5 t14 73.5t10.5 56h110zM244 571l117 184l92 -37l-151 -175z" />
<glyph unicode="&#xfb;" horiz-adv-x="461" d="M216 496q-4 -19 -10 -49.5t-13 -66.5l-14 -72t-12.5 -66t-9 -49.5t-3.5 -20.5q-6 -33 6 -53t48 -20q32 0 55.5 23.5t30.5 60.5l61 313h109l-96 -496h-110l11 49h-3q-24 -27 -55.5 -40.5t-60.5 -13.5q-66 0 -94.5 39.5t-17.5 103.5q0 2 4 23t10 53.5t14 72.5t15.5 79.5 t14 73.5t10.5 56h110zM312 640l-153 -104l-38 40l169 152h71l108 -153l-52 -38z" />
<glyph unicode="&#xfc;" horiz-adv-x="461" d="M216 496q-4 -19 -10 -49.5t-13 -66.5l-14 -72t-12.5 -66t-9 -49.5t-3.5 -20.5q-6 -33 6 -53t48 -20q32 0 55.5 23.5t30.5 60.5l61 313h109l-96 -496h-110l11 49h-3q-24 -27 -55.5 -40.5t-60.5 -13.5q-66 0 -94.5 39.5t-17.5 103.5q0 2 4 23t10 53.5t14 72.5t15.5 79.5 t14 73.5t10.5 56h110zM333 575l21 108h105l-20 -108h-106zM153 575l21 108h105l-20 -108h-106z" />
<glyph unicode="&#xfd;" horiz-adv-x="402" d="M175 118q20 37 39.5 82.5t37.5 94.5t35 100t32 99h116q-31 -86 -62.5 -166t-63.5 -152t-64.5 -134t-64.5 -110q-46 -69 -105.5 -105t-127.5 -33l-2 95q24 3 45 9.5t40.5 19.5t36.5 33.5t33 51.5q-2 21 -6.5 60t-10 87t-11.5 100.5t-12 100t-10.5 85.5t-7.5 58h115 q2 -26 4.5 -59.5t5 -64.5t4 -55t1.5 -31q2 -35 3.5 -77t-3.5 -89h3zM205 571l117 184l92 -37l-151 -175z" />
<glyph unicode="&#xfe;" horiz-adv-x="450" d="M-30 -197q11 57 24.5 129.5t29 152.5t31.5 164t31.5 164t29.5 152.5t25 130.5h109q-1 -4 -4.5 -22t-8.5 -44t-10.5 -55t-10.5 -55t-8.5 -44.5t-3.5 -21.5q1 0 1 -0.5t1 -0.5q23 23 49.5 35t58.5 12q33 0 55.5 -10.5t36 -29.5t19.5 -45.5t6 -57.5q0 -15 -1 -32t-3.5 -35 t-5 -35t-5.5 -31q-9 -45 -23 -86.5t-36.5 -73t-56.5 -50.5t-83 -19q-25 0 -50.5 11t-40.5 33h-3l-45 -236h-108zM262 395q-23 0 -43.5 -15.5t-34.5 -53.5q-11 -29 -17.5 -62t-10.5 -64q-3 -20 -3 -37q0 -26 12.5 -45t40.5 -19q39 0 64 37q12 19 21 49t15 62q4 20 6.5 39 t3.5 34q0 14 -1.5 27.5t-7 24t-16.5 17t-29 6.5z" />
<glyph unicode="&#xff;" horiz-adv-x="402" d="M175 118q20 37 39.5 82.5t37.5 94.5t35 100t32 99h116q-31 -86 -62.5 -166t-63.5 -152t-64.5 -134t-64.5 -110q-46 -69 -105.5 -105t-127.5 -33l-2 95q24 3 45 9.5t40.5 19.5t36.5 33.5t33 51.5q-2 21 -6.5 60t-10 87t-11.5 100.5t-12 100t-10.5 85.5t-7.5 58h115 q2 -26 4.5 -59.5t5 -64.5t4 -55t1.5 -31q2 -35 3.5 -77t-3.5 -89h3zM283 575l21 108h105l-20 -108h-106zM103 575l21 108h105l-20 -108h-106z" />
<glyph unicode="&#x100;" horiz-adv-x="520" d="M355 0l-8 150h-192l-69 -150h-121l335 696h109l64 -696h-118zM334 391l-6 149h-4l-61 -147l-63 -141h141zM228 756l19 93h273l-18 -93h-274z" />
<glyph unicode="&#x101;" horiz-adv-x="455" d="M251 0l9 42q-1 0 -2 0.5t-2 0.5q-43 -49 -104 -49q-34 0 -56.5 11t-36.5 30.5t-20 45.5t-6 57q0 32 4.5 67.5t11.5 64.5q11 49 26.5 91.5t39 73t55 48t75.5 17.5q28 0 52 -11t39 -36q1 0 1.5 0.5t1.5 0.5l9 40h108l-96 -494h-109zM202 98q26 0 44.5 18t27.5 42 q7 18 14 42.5t11.5 48.5t7.5 45t3 34q0 27 -12 46t-41 19q-21 0 -38 -10.5t-30 -33.5q-9 -17 -17 -43.5t-14 -56.5q-5 -23 -8.5 -44.5t-3.5 -39.5q0 -14 2.5 -26t8.5 -21t17 -14.5t28 -5.5zM163 583l18 93h273l-19 -93h-272z" />
<glyph unicode="&#x102;" horiz-adv-x="520" d="M355 0l-8 150h-192l-69 -150h-121l335 696h109l64 -696h-118zM334 391l-6 149h-4l-61 -147l-63 -141h141zM360 734q-41 0 -67 15t-40 37t-17.5 48t0.5 48h85q-2 -11 0 -23t8 -22t16.5 -16.5t25.5 -6.5q17 0 30.5 6.5t23.5 17t16 22t8 22.5h86q-6 -26 -18.5 -52 t-33.5 -47.5t-51 -35t-72 -13.5z" />
<glyph unicode="&#x103;" horiz-adv-x="455" d="M251 0l9 42q-1 0 -2 0.5t-2 0.5q-43 -49 -104 -49q-34 0 -56.5 11t-36.5 30.5t-20 45.5t-6 57q0 32 4.5 67.5t11.5 64.5q11 49 26.5 91.5t39 73t55 48t75.5 17.5q28 0 52 -11t39 -36q1 0 1.5 0.5t1.5 0.5l9 40h108l-96 -494h-109zM202 98q26 0 44.5 18t27.5 42 q7 18 14 42.5t11.5 48.5t7.5 45t3 34q0 27 -12 46t-41 19q-21 0 -38 -10.5t-30 -33.5q-9 -17 -17 -43.5t-14 -56.5q-5 -23 -8.5 -44.5t-3.5 -39.5q0 -14 2.5 -26t8.5 -21t17 -14.5t28 -5.5zM302 556q-40 0 -66 14t-41 35.5t-19 48t-1 51.5h85q-2 -11 0.5 -23t8.5 -22t17 -17 t26 -7q16 0 29 6.5t23 17t16.5 22.5t8.5 23h89q-6 -26 -19 -52t-34.5 -48t-52 -35.5t-70.5 -13.5z" />
<glyph unicode="&#x104;" horiz-adv-x="520" d="M297 -115q1 23 14 51t45 64h-1l-8 150h-192l-69 -150h-121l335 696h109l64 -696h-48q-29 -33 -39.5 -57.5t-11.5 -38.5q-1 -15 8 -23t26 -8q23 0 58 17l12 -58q-24 -14 -50.5 -20t-49.5 -6q-39 0 -61 22t-20 57zM334 391l-6 149h-4l-61 -147l-63 -141h141z" />
<glyph unicode="&#x105;" horiz-adv-x="455" d="M191 -115q1 24 14.5 52t45.5 64l9 41q-1 0 -2 0.5t-2 0.5q-43 -49 -104 -49q-34 0 -56.5 11t-36.5 30.5t-20 45.5t-6 57q0 32 4.5 67.5t11.5 64.5q11 49 26.5 91.5t39 73t55 48t75.5 17.5q28 0 52 -11t39 -36q1 0 1.5 0.5t1.5 0.5l9 40h108l-96 -494h-41 q-29 -33 -39.5 -57.5t-11.5 -38.5q-1 -15 8 -23t26 -8q23 0 58 17l12 -58q-24 -14 -50.5 -20t-49.5 -6q-39 0 -61 22t-20 57zM202 98q26 0 44.5 18t27.5 42q7 18 14 42.5t11.5 48.5t7.5 45t3 34q0 27 -12 46t-41 19q-21 0 -38 -10.5t-30 -33.5q-9 -17 -17 -43.5t-14 -56.5 q-5 -23 -8.5 -44.5t-3.5 -39.5q0 -14 2.5 -26t8.5 -21t17 -14.5t28 -5.5z" />
<glyph unicode="&#x106;" horiz-adv-x="492" d="M336 701q89 0 137 -46.5t53 -118.5q-28 -8 -55.5 -16t-55.5 -16q-2 37 -23 63t-61 26q-32 0 -53 -12.5t-34.5 -33t-21.5 -46t-14 -51.5q-12 -52 -21 -105t-20 -106q-3 -17 -5 -32t-2 -31q0 -32 16 -53.5t63 -21.5q40 0 70 23.5t44 67.5q27 -8 54.5 -16.5t54.5 -17.5 q-24 -73 -80.5 -118.5t-146.5 -45.5q-51 0 -87 13.5t-58.5 36.5t-33 55t-10.5 70q0 16 2 33.5t5 36.5q2 12 4 23.5t4 22.5q8 38 16 78t15 78q10 49 26 96t43.5 83.5t70 58.5t104.5 22zM312 776l181 126l61 -75l-205 -102z" />
<glyph unicode="&#x107;" horiz-adv-x="396" d="M185 -5q-46 0 -76 14t-48 37.5t-25 54t-7 62.5q0 20 2.5 45.5t7 52t11.5 51.5t15 45q13 31 31.5 57.5t43.5 45.5t56.5 30t70.5 11q57 0 97.5 -28.5t48.5 -82.5l-96 -46q-5 29 -21 42t-37 13q-26 0 -44 -12t-31 -31.5t-21 -46t-14 -54.5q-4 -22 -7 -42t-3 -38 q0 -36 12.5 -56t45.5 -20q26 0 47 13.5t36 36.5l85 -47q-28 -49 -73 -78t-107 -29zM226 571l117 184l92 -37l-151 -175z" />
<glyph unicode="&#x108;" horiz-adv-x="492" d="M336 701q89 0 137 -46.5t53 -118.5q-28 -8 -55.5 -16t-55.5 -16q-2 37 -23 63t-61 26q-32 0 -53 -12.5t-34.5 -33t-21.5 -46t-14 -51.5q-12 -52 -21 -105t-20 -106q-3 -17 -5 -32t-2 -31q0 -32 16 -53.5t63 -21.5q40 0 70 23.5t44 67.5q27 -8 54.5 -16.5t54.5 -17.5 q-24 -73 -80.5 -118.5t-146.5 -45.5q-51 0 -87 13.5t-58.5 36.5t-33 55t-10.5 70q0 16 2 33.5t5 36.5q2 12 4 23.5t4 22.5q8 38 16 78t15 78q10 49 26 96t43.5 83.5t70 58.5t104.5 22zM374 811l-152 -82l-35 43l166 129h70l111 -127l-47 -44z" />
<glyph unicode="&#x109;" horiz-adv-x="396" d="M185 -5q-46 0 -76 14t-48 37.5t-25 54t-7 62.5q0 20 2.5 45.5t7 52t11.5 51.5t15 45q13 31 31.5 57.5t43.5 45.5t56.5 30t70.5 11q57 0 97.5 -28.5t48.5 -82.5l-96 -46q-5 29 -21 42t-37 13q-26 0 -44 -12t-31 -31.5t-21 -46t-14 -54.5q-4 -22 -7 -42t-3 -38 q0 -36 12.5 -56t45.5 -20q26 0 47 13.5t36 36.5l85 -47q-28 -49 -73 -78t-107 -29zM301 640l-153 -104l-38 40l169 152h71l108 -153l-52 -38z" />
<glyph unicode="&#x10a;" horiz-adv-x="492" d="M336 701q89 0 137 -46.5t53 -118.5q-28 -8 -55.5 -16t-55.5 -16q-2 37 -23 63t-61 26q-32 0 -53 -12.5t-34.5 -33t-21.5 -46t-14 -51.5q-12 -52 -21 -105t-20 -106q-3 -17 -5 -32t-2 -31q0 -32 16 -53.5t63 -21.5q40 0 70 23.5t44 67.5q27 -8 54.5 -16.5t54.5 -17.5 q-24 -73 -80.5 -118.5t-146.5 -45.5q-51 0 -87 13.5t-58.5 36.5t-33 55t-10.5 70q0 16 2 33.5t5 36.5q2 12 4 23.5t4 22.5q8 38 16 78t15 78q10 49 26 96t43.5 83.5t70 58.5t104.5 22zM308 744l21 107h105l-20 -107h-106z" />
<glyph unicode="&#x10b;" horiz-adv-x="396" d="M185 -5q-46 0 -76 14t-48 37.5t-25 54t-7 62.5q0 20 2.5 45.5t7 52t11.5 51.5t15 45q13 31 31.5 57.5t43.5 45.5t56.5 30t70.5 11q57 0 97.5 -28.5t48.5 -82.5l-96 -46q-5 29 -21 42t-37 13q-26 0 -44 -12t-31 -31.5t-21 -46t-14 -54.5q-4 -22 -7 -42t-3 -38 q0 -36 12.5 -56t45.5 -20q26 0 47 13.5t36 36.5l85 -47q-28 -49 -73 -78t-107 -29zM222 572l21 107h105l-20 -107h-106z" />
<glyph unicode="&#x10c;" horiz-adv-x="492" d="M336 701q89 0 137 -46.5t53 -118.5q-28 -8 -55.5 -16t-55.5 -16q-2 37 -23 63t-61 26q-32 0 -53 -12.5t-34.5 -33t-21.5 -46t-14 -51.5q-12 -52 -21 -105t-20 -106q-3 -17 -5 -32t-2 -31q0 -32 16 -53.5t63 -21.5q40 0 70 23.5t44 67.5q27 -8 54.5 -16.5t54.5 -17.5 q-24 -73 -80.5 -118.5t-146.5 -45.5q-51 0 -87 13.5t-58.5 36.5t-33 55t-10.5 70q0 16 2 33.5t5 36.5q2 12 4 23.5t4 22.5q8 38 16 78t15 78q10 49 26 96t43.5 83.5t70 58.5t104.5 22zM520 902l34 -43l-165 -129h-69l-113 128l48 43l113 -81z" />
<glyph unicode="&#x10d;" horiz-adv-x="396" d="M185 -5q-46 0 -76 14t-48 37.5t-25 54t-7 62.5q0 20 2.5 45.5t7 52t11.5 51.5t15 45q13 31 31.5 57.5t43.5 45.5t56.5 30t70.5 11q57 0 97.5 -28.5t48.5 -82.5l-96 -46q-5 29 -21 42t-37 13q-26 0 -44 -12t-31 -31.5t-21 -46t-14 -54.5q-4 -22 -7 -42t-3 -38 q0 -36 12.5 -56t45.5 -20q26 0 47 13.5t36 36.5l85 -47q-28 -49 -73 -78t-107 -29zM442 732l37 -42l-165 -150h-71l-110 151l52 41q4 -3 20 -18t34 -32.5t33.5 -32t19.5 -17.5z" />
<glyph unicode="&#x10e;" horiz-adv-x="534" d="M360 696q80 0 128 -39t48 -120q0 -33 -5.5 -78t-14.5 -96q-15 -85 -30 -149.5t-34 -98.5t-42.5 -56t-51 -35t-58 -18.5t-63.5 -5.5h-215l135 696h203zM375 233q8 40 15.5 79t15.5 79q2 14 5.5 29t5.5 29q2 16 4 29.5t2 23.5q0 40 -19 64t-73 24h-81l-95 -485h82 q34 0 58 9t40 25.5t25 40t15 53.5zM502 902l34 -43l-165 -129h-69l-113 128l48 43l113 -81z" />
<glyph unicode="&#x10f;" horiz-adv-x="556" d="M243 501q26 0 52 -12t40 -33h3q14 68 27 135t26 135h109l-141 -726h-109l8 40l-3 2q-23 -24 -49 -35.5t-58 -11.5q-36 0 -59 11.5t-35.5 31.5t-17.5 47t-5 58q0 15 1.5 32.5t4 35t5 33.5t5.5 28q9 45 23.5 86.5t37.5 73t56 50.5t79 19zM256 395q-25 0 -41.5 -13 t-28 -33.5t-18 -46t-11.5 -50.5q-11 -52 -11 -91q0 -26 11.5 -43.5t43.5 -17.5q26 0 45 17.5t28 40.5q8 20 13.5 42t10.5 45q5 24 8 45.5t3 39.5q0 26 -12 45.5t-41 19.5zM506 509l51 98h-29l23 119h116l-23 -115l-81 -102h-57z" />
<glyph unicode="&#x110;" horiz-adv-x="534" d="M35 391h63l59 305h203q80 0 128 -39t48 -120q0 -33 -5.5 -78t-14.5 -96q-15 -85 -30 -149.5t-34 -98.5t-42.5 -56t-51 -35t-58 -18.5t-63.5 -5.5h-215l60 311h-62zM375 233q8 40 15.5 79t15.5 79q2 14 5.5 29t5.5 29q2 16 4 29.5t2 23.5q0 40 -19 64t-73 24h-81l-39 -199 h63l-16 -80h-63l-40 -206h82q34 0 58 9t40 25.5t25 40t15 53.5z" />
<glyph unicode="&#x111;" horiz-adv-x="445" d="M243 501q26 0 52 -12t40 -33h3l21 107h-129l15 73h129l17 90h109l-18 -90h52l-14 -73h-52l-109 -563h-109l8 40l-3 2q-23 -24 -49 -35.5t-58 -11.5q-36 0 -59 11.5t-35.5 31.5t-17.5 47t-5 58q0 15 1.5 32.5t4 35t5 33.5t5.5 28q9 45 23.5 86.5t37.5 73t56 50.5t79 19z M256 395q-25 0 -41.5 -13t-28 -33.5t-18 -46t-11.5 -50.5q-11 -52 -11 -91q0 -26 11.5 -43.5t43.5 -17.5q26 0 45 17.5t28 40.5q8 20 13.5 42t10.5 45q5 24 8 45.5t3 39.5q0 26 -12 45.5t-41 19.5z" />
<glyph unicode="&#x112;" horiz-adv-x="467" d="M22 0l135 696h383l-21 -106h-269l-37 -186h232l-20 -104h-232l-37 -194h269l-20 -106h-383zM217 756l19 93h273l-18 -93h-274z" />
<glyph unicode="&#x113;" horiz-adv-x="436" d="M256 401q-38 0 -61.5 -30.5t-34.5 -81.5q8 -2 18.5 -1.5t18.5 0.5q63 1 88 21t25 49q0 19 -14 31t-40 12zM185 -5q-81 0 -117.5 45t-36.5 120q0 54 11 114.5t37.5 111t71 83.5t111.5 33q79 0 119 -36t40 -91q0 -45 -17 -78t-48.5 -55t-75 -32.5t-95.5 -10.5h-20.5 t-21.5 1q-3 -20 -3 -38q0 -28 14 -46.5t44 -18.5q23 0 48.5 12.5t44.5 37.5l86 -51q-33 -50 -82 -75.5t-110 -25.5zM154 583l18 93h273l-19 -93h-272z" />
<glyph unicode="&#x114;" horiz-adv-x="467" d="M22 0l135 696h383l-21 -106h-269l-37 -186h232l-20 -104h-232l-37 -194h269l-20 -106h-383zM350 733q-41 0 -67 15t-40 37t-17.5 48t0.5 48h85q-2 -11 0 -23t8 -22t16.5 -16.5t25.5 -6.5q17 0 30.5 6.5t23.5 17t16 22t8 22.5h86q-6 -26 -18.5 -52t-33.5 -47.5t-51 -35 t-72 -13.5z" />
<glyph unicode="&#x115;" horiz-adv-x="436" d="M256 401q-38 0 -61.5 -30.5t-34.5 -81.5q8 -2 18.5 -1.5t18.5 0.5q63 1 88 21t25 49q0 19 -14 31t-40 12zM185 -5q-81 0 -117.5 45t-36.5 120q0 54 11 114.5t37.5 111t71 83.5t111.5 33q79 0 119 -36t40 -91q0 -45 -17 -78t-48.5 -55t-75 -32.5t-95.5 -10.5h-20.5 t-21.5 1q-3 -20 -3 -38q0 -28 14 -46.5t44 -18.5q23 0 48.5 12.5t44.5 37.5l86 -51q-33 -50 -82 -75.5t-110 -25.5zM282 556q-40 0 -66 14t-41 35.5t-19 48t-1 51.5h85q-2 -11 0.5 -23t8.5 -22t17 -17t26 -7q16 0 29 6.5t23 17t16.5 22.5t8.5 23h89q-6 -26 -19 -52 t-34.5 -48t-52 -35.5t-70.5 -13.5z" />
<glyph unicode="&#x116;" horiz-adv-x="467" d="M22 0l135 696h383l-21 -106h-269l-37 -186h232l-20 -104h-232l-37 -194h269l-20 -106h-383zM299 745l21 107h105l-20 -107h-106z" />
<glyph unicode="&#x117;" horiz-adv-x="436" d="M256 401q-38 0 -61.5 -30.5t-34.5 -81.5q8 -2 18.5 -1.5t18.5 0.5q63 1 88 21t25 49q0 19 -14 31t-40 12zM185 -5q-81 0 -117.5 45t-36.5 120q0 54 11 114.5t37.5 111t71 83.5t111.5 33q79 0 119 -36t40 -91q0 -45 -17 -78t-48.5 -55t-75 -32.5t-95.5 -10.5h-20.5 t-21.5 1q-3 -20 -3 -38q0 -28 14 -46.5t44 -18.5q23 0 48.5 12.5t44.5 37.5l86 -51q-33 -50 -82 -75.5t-110 -25.5zM220 573l21 107h105l-20 -107h-106z" />
<glyph unicode="&#x118;" horiz-adv-x="467" d="M275 -115q1 23 14 51t45 64h-312l135 696h383l-21 -106h-269l-37 -186h232l-20 -104h-232l-37 -194h269l-20 -106h-2q-29 -33 -39.5 -57.5t-11.5 -38.5q-1 -15 8 -23t26 -8q23 0 58 17l12 -58q-24 -14 -50.5 -20t-49.5 -6q-39 0 -61 22t-20 57z" />
<glyph unicode="&#x119;" horiz-adv-x="436" d="M184 -84q0 34 32 81q-8 -1 -15.5 -1.5t-15.5 -0.5q-81 0 -117.5 45t-36.5 120q0 54 11 114.5t37.5 111t71 83.5t111.5 33q79 0 119 -36t40 -91q0 -45 -17 -78t-48.5 -55t-75 -32.5t-95.5 -10.5h-20.5t-21.5 1q-3 -20 -3 -38q0 -28 14 -46.5t44 -18.5q23 0 48.5 12.5 t44.5 37.5l86 -51q-27 -41 -65 -65q-29 -33 -39.5 -57.5t-11.5 -38.5q-1 -15 8 -23t26 -8q23 0 58 17l12 -58q-24 -14 -50.5 -20t-49.5 -6q-39 0 -61 22t-20 57zM256 401q-38 0 -61.5 -30.5t-34.5 -81.5q8 -2 18.5 -1.5t18.5 0.5q63 1 88 21t25 49q0 19 -14 31t-40 12z" />
<glyph unicode="&#x11a;" horiz-adv-x="467" d="M22 0l135 696h383l-21 -106h-269l-37 -186h232l-20 -104h-232l-37 -194h269l-20 -106h-383zM504 902l34 -43l-165 -129h-69l-113 128l48 43l113 -81z" />
<glyph unicode="&#x11b;" horiz-adv-x="436" d="M256 401q-38 0 -61.5 -30.5t-34.5 -81.5q8 -2 18.5 -1.5t18.5 0.5q63 1 88 21t25 49q0 19 -14 31t-40 12zM185 -5q-81 0 -117.5 45t-36.5 120q0 54 11 114.5t37.5 111t71 83.5t111.5 33q79 0 119 -36t40 -91q0 -45 -17 -78t-48.5 -55t-75 -32.5t-95.5 -10.5h-20.5 t-21.5 1q-3 -20 -3 -38q0 -28 14 -46.5t44 -18.5q23 0 48.5 12.5t44.5 37.5l86 -51q-33 -50 -82 -75.5t-110 -25.5zM439 732l37 -42l-165 -150h-71l-110 151l52 41q4 -3 20 -18t34 -32.5t33.5 -32t19.5 -17.5z" />
<glyph unicode="&#x11c;" horiz-adv-x="517" d="M333 701q89 0 137 -46.5t53 -118.5q-28 -8 -55.5 -16t-55.5 -16q-2 37 -23 63t-61 26q-32 0 -53 -13t-34.5 -33.5t-21.5 -46t-14 -50.5q-9 -47 -18 -93.5t-19 -94.5q-4 -22 -7.5 -43.5t-3.5 -42.5q0 -32 16.5 -53.5t64.5 -21.5q31 0 52.5 12.5t36.5 32.5t24.5 45t14.5 51 l8 40h-103q5 25 9.5 49t9.5 49h216q-7 -37 -13 -73.5t-14 -73.5q-11 -52 -30 -96t-49 -75.5t-72.5 -49.5t-100.5 -18q-45 0 -78.5 11.5t-56 31.5t-34.5 48t-14 61q-1 11 -0.5 27.5t3 35t5.5 38t6 35.5l31 159q10 49 26 96t43.5 83.5t70 58.5t104.5 22zM366 811l-152 -82 l-35 43l166 129h70l111 -127l-47 -44z" />
<glyph unicode="&#x11d;" horiz-adv-x="449" d="M454 495q-23 -124 -46.5 -246.5t-47.5 -246.5q-8 -44 -21.5 -81t-37 -65t-59.5 -43.5t-89 -15.5q-57 0 -98.5 24t-58.5 65l83 60q12 -20 33.5 -33t41.5 -13q35 0 54 17.5t29 44.5q7 20 11 40t9 41h-3q-24 -26 -52 -36.5t-57 -10.5q-35 0 -57 11t-35.5 29.5t-18.5 43.5 t-5 54q2 70 23 156q8 29 16.5 57t19.5 51q26 54 65 78t87 24q26 0 53 -10.5t41 -36.5q1 1 2 1l9 41h109zM255 395q-16 0 -28 -5.5t-22 -13.5q-17 -14 -29 -46t-20 -74q-4 -22 -7 -42t-5 -39q-1 -14 0 -28t6.5 -24.5t16.5 -17t31 -6.5q29 0 50 23t30 53q11 32 18 66.5 t10 64.5q1 5 1.5 10.5t0.5 10.5q0 11 -2 23t-7.5 22t-16 16.5t-27.5 6.5zM307 640l-153 -104l-38 40l169 152h71l108 -153l-52 -38z" />
<glyph unicode="&#x11e;" horiz-adv-x="517" d="M333 701q89 0 137 -46.5t53 -118.5q-28 -8 -55.5 -16t-55.5 -16q-2 37 -23 63t-61 26q-32 0 -53 -13t-34.5 -33.5t-21.5 -46t-14 -50.5q-9 -47 -18 -93.5t-19 -94.5q-4 -22 -7.5 -43.5t-3.5 -42.5q0 -32 16.5 -53.5t64.5 -21.5q31 0 52.5 12.5t36.5 32.5t24.5 45t14.5 51 l8 40h-103q5 25 9.5 49t9.5 49h216q-7 -37 -13 -73.5t-14 -73.5q-11 -52 -30 -96t-49 -75.5t-72.5 -49.5t-100.5 -18q-45 0 -78.5 11.5t-56 31.5t-34.5 48t-14 61q-1 11 -0.5 27.5t3 35t5.5 38t6 35.5l31 159q10 49 26 96t43.5 83.5t70 58.5t104.5 22zM358 734q-41 0 -67 15 t-40 37t-17.5 48t0.5 48h85q-2 -11 0 -23t8 -22t16.5 -16.5t25.5 -6.5q17 0 30.5 6.5t23.5 17t16 22t8 22.5h86q-6 -26 -18.5 -52t-33.5 -47.5t-51 -35t-72 -13.5z" />
<glyph unicode="&#x11f;" horiz-adv-x="449" d="M454 495q-23 -124 -46.5 -246.5t-47.5 -246.5q-8 -44 -21.5 -81t-37 -65t-59.5 -43.5t-89 -15.5q-57 0 -98.5 24t-58.5 65l83 60q12 -20 33.5 -33t41.5 -13q35 0 54 17.5t29 44.5q7 20 11 40t9 41h-3q-24 -26 -52 -36.5t-57 -10.5q-35 0 -57 11t-35.5 29.5t-18.5 43.5 t-5 54q2 70 23 156q8 29 16.5 57t19.5 51q26 54 65 78t87 24q26 0 53 -10.5t41 -36.5q1 1 2 1l9 41h109zM255 395q-16 0 -28 -5.5t-22 -13.5q-17 -14 -29 -46t-20 -74q-4 -22 -7 -42t-5 -39q-1 -14 0 -28t6.5 -24.5t16.5 -17t31 -6.5q29 0 50 23t30 53q11 32 18 66.5 t10 64.5q1 5 1.5 10.5t0.5 10.5q0 11 -2 23t-7.5 22t-16 16.5t-27.5 6.5zM290 556q-40 0 -66 14t-41 35.5t-19 48t-1 51.5h85q-2 -11 0.5 -23t8.5 -22t17 -17t26 -7q16 0 29 6.5t23 17t16.5 22.5t8.5 23h89q-6 -26 -19 -52t-34.5 -48t-52 -35.5t-70.5 -13.5z" />
<glyph unicode="&#x120;" horiz-adv-x="517" d="M333 701q89 0 137 -46.5t53 -118.5q-28 -8 -55.5 -16t-55.5 -16q-2 37 -23 63t-61 26q-32 0 -53 -13t-34.5 -33.5t-21.5 -46t-14 -50.5q-9 -47 -18 -93.5t-19 -94.5q-4 -22 -7.5 -43.5t-3.5 -42.5q0 -32 16.5 -53.5t64.5 -21.5q31 0 52.5 12.5t36.5 32.5t24.5 45t14.5 51 l8 40h-103q5 25 9.5 49t9.5 49h216q-7 -37 -13 -73.5t-14 -73.5q-11 -52 -30 -96t-49 -75.5t-72.5 -49.5t-100.5 -18q-45 0 -78.5 11.5t-56 31.5t-34.5 48t-14 61q-1 11 -0.5 27.5t3 35t5.5 38t6 35.5l31 159q10 49 26 96t43.5 83.5t70 58.5t104.5 22zM301 742l21 107h105 l-20 -107h-106z" />
<glyph unicode="&#x121;" horiz-adv-x="449" d="M454 495q-23 -124 -46.5 -246.5t-47.5 -246.5q-8 -44 -21.5 -81t-37 -65t-59.5 -43.5t-89 -15.5q-57 0 -98.5 24t-58.5 65l83 60q12 -20 33.5 -33t41.5 -13q35 0 54 17.5t29 44.5q7 20 11 40t9 41h-3q-24 -26 -52 -36.5t-57 -10.5q-35 0 -57 11t-35.5 29.5t-18.5 43.5 t-5 54q2 70 23 156q8 29 16.5 57t19.5 51q26 54 65 78t87 24q26 0 53 -10.5t41 -36.5q1 1 2 1l9 41h109zM255 395q-16 0 -28 -5.5t-22 -13.5q-17 -14 -29 -46t-20 -74q-4 -22 -7 -42t-5 -39q-1 -14 0 -28t6.5 -24.5t16.5 -17t31 -6.5q29 0 50 23t30 53q11 32 18 66.5 t10 64.5q1 5 1.5 10.5t0.5 10.5q0 11 -2 23t-7.5 22t-16 16.5t-27.5 6.5zM239 572l21 107h105l-20 -107h-106z" />
<glyph unicode="&#x122;" horiz-adv-x="517" d="M333 701q89 0 137 -46.5t53 -118.5q-28 -8 -55.5 -16t-55.5 -16q-2 37 -23 63t-61 26q-32 0 -53 -13t-34.5 -33.5t-21.5 -46t-14 -50.5q-9 -47 -18 -93.5t-19 -94.5q-4 -22 -7.5 -43.5t-3.5 -42.5q0 -32 16.5 -53.5t64.5 -21.5q31 0 52.5 12.5t36.5 32.5t24.5 45t14.5 51 l8 40h-103q5 25 9.5 49t9.5 49h216q-7 -37 -13 -73.5t-14 -73.5q-11 -52 -30 -96t-49 -75.5t-72.5 -49.5t-100.5 -18q-45 0 -78.5 11.5t-56 31.5t-34.5 48t-14 61q-1 11 -0.5 27.5t3 35t5.5 38t6 35.5l31 159q10 49 26 96t43.5 83.5t70 58.5t104.5 22zM111 -275l51 98h-29 l23 119h116l-23 -115l-81 -102h-57z" />
<glyph unicode="&#x123;" horiz-adv-x="449" d="M454 495q-23 -124 -46.5 -246.5t-47.5 -246.5q-8 -44 -21.5 -81t-37 -65t-59.5 -43.5t-89 -15.5q-57 0 -98.5 24t-58.5 65l83 60q12 -20 33.5 -33t41.5 -13q35 0 54 17.5t29 44.5q7 20 11 40t9 41h-3q-24 -26 -52 -36.5t-57 -10.5q-35 0 -57 11t-35.5 29.5t-18.5 43.5 t-5 54q2 70 23 156q8 29 16.5 57t19.5 51q26 54 65 78t87 24q26 0 53 -10.5t41 -36.5q1 1 2 1l9 41h109zM255 395q-16 0 -28 -5.5t-22 -13.5q-17 -14 -29 -46t-20 -74q-4 -22 -7 -42t-5 -39q-1 -14 0 -28t6.5 -24.5t16.5 -17t31 -6.5q29 0 50 23t30 53q11 32 18 66.5 t10 64.5q1 5 1.5 10.5t0.5 10.5q0 11 -2 23t-7.5 22t-16 16.5t-27.5 6.5zM336 784h56q-12 -25 -24.5 -49t-25.5 -49h28q-5 -29 -11 -58.5t-12 -58.5h-115l22 114z" />
<glyph unicode="&#x124;" horiz-adv-x="543" d="M328 0l59 301h-194l-58 -301h-113l135 696h113l-57 -292h194l57 292h112l-135 -696h-113zM395 811l-152 -82l-35 43l166 129h70l111 -127l-47 -44z" />
<glyph unicode="&#x125;" horiz-adv-x="460" d="M259 -1q4 19 10 49.5t13 66t14 72t13 66t9.5 49t3.5 20.5q5 32 -6.5 52t-45.5 20q-33 0 -57 -22.5t-32 -59.5l-61 -313h-109l141 728h110l-55 -280l3 -1q25 26 56 40t60 14q65 0 93 -39.5t17 -107.5q0 -1 -4 -22t-10 -53.5t-13 -72t-14.5 -78t-14 -73t-10.5 -55.5h-111z M226 811l-152 -82l-35 43l166 129h70l111 -127l-47 -44z" />
<glyph unicode="&#x126;" horiz-adv-x="543" d="M328 0l59 301h-194l-58 -301h-113l101 522h-52l14 73h52l20 101h113l-20 -101h194l20 101h112l-20 -101h48l-14 -73h-48l-101 -522h-113zM407 404l23 118h-194l-23 -118h194z" />
<glyph unicode="&#x127;" horiz-adv-x="461" d="M259 -1q4 19 10 49.5t13 66t14 72t13 66t9.5 49t3.5 20.5q5 32 -6.5 52t-45.5 20q-33 0 -57 -22.5t-32 -59.5l-61 -313h-109l110 571h-55l14 72h55l17 85h110l-17 -85h155l-14 -72h-155l-24 -123l3 -1q25 26 56 40t60 14q65 0 93 -39.5t17 -107.5q0 -1 -4 -22t-10 -53.5 t-13 -72t-14.5 -78t-14 -73t-10.5 -55.5h-111z" />
<glyph unicode="&#x128;" horiz-adv-x="240" d="M22 0l136 696h113l-135 -696h-114zM175 863q17 0 33 -6.5t31 -14t29 -14t26 -6.5q14 0 28.5 8.5t35.5 32.5l53 -33q-27 -53 -57.5 -72.5t-61.5 -19.5q-18 0 -34 6t-31 13.5t-29 14t-27 6.5q-14 0 -28.5 -9.5t-36.5 -32.5l-53 36q29 49 59.5 70t62.5 21z" />
<glyph unicode="&#x129;" horiz-adv-x="314" d="M70 0l96 495h110l-96 -495h-110zM181 693q17 0 33 -6.5t31 -14t29 -14t26 -6.5q14 0 28.5 8.5t35.5 32.5l53 -33q-27 -53 -57.5 -72.5t-61.5 -19.5q-18 0 -34 6t-31 13.5t-29 14t-27 6.5q-14 0 -28.5 -9.5t-36.5 -32.5l-53 36q29 49 59.5 70t62.5 21z" />
<glyph unicode="&#x12a;" horiz-adv-x="262" d="M32 0l136 696h113l-135 -696h-114zM96 756l19 93h273l-18 -93h-274z" />
<glyph unicode="&#x12b;" horiz-adv-x="264" d="M35 0l96 495h110l-96 -495h-110zM66 583l18 93h273l-19 -93h-272z" />
<glyph unicode="&#x12c;" horiz-adv-x="240" d="M22 0l136 696h113l-135 -696h-114zM226 734q-41 0 -67 15t-40 37t-17.5 48t0.5 48h85q-2 -11 0 -23t8 -22t16.5 -16.5t25.5 -6.5q17 0 30.5 6.5t23.5 17t16 22t8 22.5h86q-6 -26 -18.5 -52t-33.5 -47.5t-51 -35t-72 -13.5z" />
<glyph unicode="&#x12d;" horiz-adv-x="264" d="M38 0l96 495h110l-96 -495h-110zM204 561q-40 0 -66 14t-41 35.5t-19 48t-1 51.5h85q-2 -11 0.5 -23t8.5 -22t17 -17t26 -7q16 0 29 6.5t23 17t16.5 22.5t8.5 23h89q-6 -26 -19 -52t-34.5 -48t-52 -35.5t-70.5 -13.5z" />
<glyph unicode="&#x12e;" horiz-adv-x="240" d="M-12 -114q1 23 14 51t44 63h-24l136 696h113l-135 -696h-21q-29 -33 -39 -57t-11 -38q-1 -15 8 -23t26 -8q23 0 58 17l12 -58q-24 -14 -50.5 -20t-49.5 -6q-39 0 -61 22t-20 57z" />
<glyph unicode="&#x12f;" horiz-adv-x="220" d="M-22 -114q1 23 14.5 51t43.5 63h-21l96 495h110l-96 -495h-20q-29 -33 -39 -57t-11 -38q-1 -15 8 -23t26 -8q23 0 58 17l12 -58q-24 -14 -50.5 -20t-49.5 -6q-39 0 -61 22t-20 57zM130 592l20 104h110l-20 -104h-110z" />
<glyph unicode="&#x130;" horiz-adv-x="240" d="M22 0l136 696h113l-135 -696h-114zM169 742l21 107h105l-20 -107h-106z" />
<glyph unicode="&#x131;" horiz-adv-x="220" d="M15 0l96 495h110l-96 -495h-110z" />
<glyph unicode="&#x132;" horiz-adv-x="663" d="M22 0l136 696h113l-135 -696h-114zM598 190q-20 -102 -72 -148.5t-143 -46.5q-51 0 -92.5 20.5t-66.5 62.5l87 66q12 -20 31.5 -32.5t42.5 -12.5q82 0 101 95l98 502h113z" />
<glyph unicode="&#x133;" horiz-adv-x="466" d="M130 592l20 104h110l-20 -104h-110zM15 0l96 495h110l-96 -495h-110zM372 592l20 104h110l-20 -104h-110zM356 -54q-13 -66 -54 -105.5t-111 -39.5h-9h-14.5t-14.5 0.5t-9 0.5l20 101q2 0 11.5 -0.5t11.5 0.5q32 0 45.5 20.5t19.5 49.5l101 523h110z" />
<glyph unicode="&#x134;" horiz-adv-x="416" d="M351 191q-20 -102 -72 -148.5t-143 -46.5q-51 0 -92.5 20.5t-66.5 62.5l87 66q12 -20 31.5 -32.5t42.5 -12.5q82 0 101 95l98 502h113zM414 813l-152 -82l-35 43l166 129h70l111 -127l-47 -44z" />
<glyph unicode="&#x135;" horiz-adv-x="302" d="M161 -57q-13 -66 -54 -105.5t-111 -39.5h-9h-14.5t-14.5 0.5t-9 0.5l19 101q3 0 12.5 -0.5t11.5 0.5q32 0 45.5 20.5t18.5 49.5l102 526h110zM242 640l-153 -104l-38 40l170 152h71l107 -153l-51 -38z" />
<glyph unicode="&#x136;" horiz-adv-x="528" d="M369 0l-92 314l-105 -117l-38 -197h-113l136 696h112l-57 -299q2 0 4 -1q31 37 60 72.5t61 70.5q12 13 32.5 37t41.5 49t38.5 45t23.5 26h130l-239 -283l124 -413h-119zM146 -257l51 98h-29l23 119h116l-23 -115l-81 -102h-57z" />
<glyph unicode="&#x137;" horiz-adv-x="457" d="M291 0l-74 214q-18 -19 -35 -37.5t-35 -36.5l-27 -140h-109l142 726h108q-20 -105 -40.5 -209t-41.5 -209q2 0 2.5 -0.5t1.5 -0.5q25 26 48.5 52t47.5 52l80 83h134l-191 -197l112 -297h-123zM95 -275l51 98h-29l23 119h116l-23 -115l-81 -102h-57z" />
<glyph unicode="&#x138;" horiz-adv-x="455" d="M292 0q-19 54 -37 106.5t-36 106.5l-71 -73q-6 -35 -13 -70l-14 -70h-108l96 494h108l-36 -184h3l96 102l80 82h135l-191 -196q27 -75 54.5 -149t55.5 -149h-122z" />
<glyph unicode="&#x139;" horiz-adv-x="456" d="M22 0l135 696h113l-114 -589h265l-20 -107h-379zM183 776l181 126l61 -75l-205 -102z" />
<glyph unicode="&#x13a;" horiz-adv-x="241" d="M264 726q-29 -145 -57 -288t-56 -288q-2 -10 -2 -15q0 -17 12.5 -26.5t41.5 -11.5l-19 -99h-17q-65 0 -99 21t-34 70q0 14 3 31q4 27 13.5 78.5t22 115t25.5 131t25 126t20 100.5t11 55h110zM172 793l181 126l61 -75l-205 -102z" />
<glyph unicode="&#x13b;" horiz-adv-x="456" d="M22 0l135 696h113l-114 -589h265l-20 -107h-379zM106 -275l51 98h-29l23 119h116l-23 -115l-81 -102h-57z" />
<glyph unicode="&#x13c;" horiz-adv-x="241" d="M264 726q-29 -145 -57 -288t-56 -288q-2 -10 -2 -15q0 -17 12.5 -26.5t41.5 -11.5l-19 -99h-17q-65 0 -99 21t-34 70q0 14 3 31q4 27 13.5 78.5t22 115t25.5 131t25 126t20 100.5t11 55h110zM-9 -274l51 98h-29l23 119h116l-23 -115l-81 -102h-57z" />
<glyph unicode="&#x13d;" horiz-adv-x="456" d="M22 0l135 696h113l-114 -589h265l-20 -107h-379zM302 479l51 98h-29l23 119h116l-23 -115l-81 -102h-57z" />
<glyph unicode="&#x13e;" horiz-adv-x="338" d="M264 726q-29 -145 -57 -288t-56 -288q-2 -10 -2 -15q0 -17 12.5 -26.5t41.5 -11.5l-19 -99h-17q-65 0 -99 21t-34 70q0 14 3 31q4 27 13.5 78.5t22 115t25.5 131t25 126t20 100.5t11 55h110zM283 510l51 98h-29l23 119h116l-23 -115l-81 -102h-57z" />
<glyph unicode="&#x13f;" horiz-adv-x="456" d="M22 0l135 696h113l-114 -589h265l-20 -107h-379zM310 303l21 107h105l-20 -107h-106z" />
<glyph unicode="&#x140;" horiz-adv-x="310" d="M264 726q-29 -145 -57 -288t-56 -288q-2 -10 -2 -15q0 -17 12.5 -26.5t41.5 -11.5l-19 -99h-17q-65 0 -99 21t-34 70q0 14 3 31q4 27 13.5 78.5t22 115t25.5 131t25 126t20 100.5t11 55h110zM241 326q5 26 10 53l10 54h106l-21 -107h-105z" />
<glyph unicode="&#x141;" horiz-adv-x="474" d="M40 0l45 235l-69 -39l-26 62l112 64l73 374h113l-58 -302l102 59l28 -62l-147 -84l-39 -200h265l-20 -107h-379z" />
<glyph unicode="&#x142;" horiz-adv-x="276" d="M282 726l-59 -295l69 40l27 -62l-113 -65l-37 -194q-2 -10 -2 -15q0 -17 12.5 -26.5t41.5 -11.5l-19 -99h-17q-65 0 -99 21t-34 70q0 14 3 31q3 22 10.5 62t17.5 91l-58 -33q-7 16 -13 31.5t-12 31.5l99 57l24 120t22 111t17.5 87t9.5 48h110z" />
<glyph unicode="&#x143;" horiz-adv-x="572" d="M371 0q-20 59 -39.5 117t-39.5 117l-69 220h-3l-87 -454h-113l136 696h103l116 -364q9 -27 17 -52.5t13 -45.5h4l87 462h112l-135 -696h-102zM337 776l181 126l61 -75l-205 -102z" />
<glyph unicode="&#x144;" horiz-adv-x="459" d="M205 495l-9 -48h3q24 26 55 39.5t60 13.5q66 0 94.5 -39.5t17.5 -104.5q0 -2 -4 -23t-10 -53.5t-13.5 -72l-15 -79t-14.5 -74t-11 -55.5h-110q4 19 10 49.5t13 66t14 72t12.5 66t9 49t3.5 20.5q5 32 -6 52.5t-48 20.5q-33 0 -56 -23.5t-31 -59.5l-60 -313h-109l97 496 h108zM225 571l117 184l92 -37l-151 -175z" />
<glyph unicode="&#x145;" horiz-adv-x="572" d="M371 0q-20 59 -39.5 117t-39.5 117l-69 220h-3l-87 -454h-113l136 696h103l116 -364q9 -27 17 -52.5t13 -45.5h4l87 462h112l-135 -696h-102zM154 -255l51 98h-29l23 119h116l-23 -115l-81 -102h-57z" />
<glyph unicode="&#x146;" horiz-adv-x="459" d="M205 495l-9 -48h3q24 26 55 39.5t60 13.5q66 0 94.5 -39.5t17.5 -104.5q0 -2 -4 -23t-10 -53.5t-13.5 -72l-15 -79t-14.5 -74t-11 -55.5h-110q4 19 10 49.5t13 66t14 72t12.5 66t9 49t3.5 20.5q5 32 -6 52.5t-48 20.5q-33 0 -56 -23.5t-31 -59.5l-60 -313h-109l97 496 h108zM80 -275l51 98h-29l23 119h116l-23 -115l-81 -102h-57z" />
<glyph unicode="&#x147;" horiz-adv-x="572" d="M371 0q-20 59 -39.5 117t-39.5 117l-69 220h-3l-87 -454h-113l136 696h103l116 -364q9 -27 17 -52.5t13 -45.5h4l87 462h112l-135 -696h-102zM550 902l34 -43l-165 -129h-69l-113 128l48 43l113 -81z" />
<glyph unicode="&#x148;" horiz-adv-x="459" d="M205 495l-9 -48h3q24 26 55 39.5t60 13.5q66 0 94.5 -39.5t17.5 -104.5q0 -2 -4 -23t-10 -53.5t-13.5 -72l-15 -79t-14.5 -74t-11 -55.5h-110q4 19 10 49.5t13 66t14 72t12.5 66t9 49t3.5 20.5q5 32 -6 52.5t-48 20.5q-33 0 -56 -23.5t-31 -59.5l-60 -313h-109l97 496 h108zM444 732l37 -42l-165 -150h-71l-110 151l52 41q4 -3 20 -18t34 -32.5t33.5 -32t19.5 -17.5z" />
<glyph unicode="&#x149;" horiz-adv-x="546" d="M292 495l-9 -48h3q24 26 55 39.5t60 13.5q66 0 94.5 -39.5t17.5 -104.5q0 -2 -4 -23t-10 -53.5t-13.5 -72l-15 -79t-14.5 -74t-11 -55.5h-110q4 19 10 49.5t13 66t14 72t12.5 66t9 49t3.5 20.5q5 32 -6 52.5t-48 20.5q-33 0 -56 -23.5t-31 -59.5l-60 -313h-109l97 496 h108zM49 452l51 98h-29l23 119h116l-23 -115l-81 -102h-57z" />
<glyph unicode="&#x14a;" horiz-adv-x="572" d="M608 696q-38 -192 -74.5 -381.5t-74.5 -380.5q-11 -58 -44 -83.5t-81 -25.5q-20 0 -41.5 4.5t-41.5 12.5l27 77q23 -5 34 -5q35 0 42 38l13 67q-6 17 -17.5 52.5t-26.5 80t-31 93.5t-30 91.5t-25 74.5t-14 43q-1 0 -1.5 -0.5t-1.5 -0.5l-87 -453h-113l135 696h104 q15 -44 35 -108.5t41 -131t39.5 -126.5t30.5 -96h4l87 462h112v0z" />
<glyph unicode="&#x14b;" horiz-adv-x="456" d="M215 495l-9 -48h3q24 26 55 39.5t60 13.5q66 0 94.5 -39.5t17.5 -104.5q-2 -14 -7.5 -45t-13.5 -71t-17 -85.5t-17 -88t-15.5 -77.5t-11.5 -55q-11 -57 -44 -83.5t-80 -26.5q-43 0 -84 19q7 19 13 38t13 39q11 -2 19 -4t15 -2q35 0 42 39q1 7 5.5 27t10 48t12 60.5 t12.5 65.5q6 31 11.5 61t10 53t7.5 38t3 16q5 32 -6 52.5t-48 20.5q-33 0 -56 -23.5t-31 -59.5l-60 -313h-109l97 496h108z" />
<glyph unicode="&#x14c;" horiz-adv-x="516" d="M473 211q-20 -103 -74.5 -160t-152.5 -57q-63 0 -105 19.5t-65.5 52.5t-29.5 76t3 90l50 254q7 37 23 75t43.5 69t69 51t100.5 20q55 0 94.5 -19.5t62.5 -51.5t30.5 -72.5t-0.5 -82.5zM410 484q3 13 1 31.5t-11.5 35.5t-28.5 28.5t-50 11.5q-28 0 -47 -10.5t-31.5 -26 t-19.5 -33.5t-10 -34l-50 -263q-5 -26 -3 -48t12 -38.5t29 -25.5t48 -9q42 0 70 26.5t37 72.5zM226 756l19 93h273l-18 -93h-274z" />
<glyph unicode="&#x14d;" horiz-adv-x="444" d="M267 500q42 0 72.5 -13t50 -34.5t28.5 -50.5t9 -61q0 -30 -4.5 -64t-11.5 -63q-11 -51 -27.5 -91.5t-42 -69t-62 -44t-87.5 -15.5q-47 0 -77.5 13.5t-48 36.5t-24.5 53t-7 63q0 26 4.5 60.5t11.5 66.5q22 100 72.5 156.5t143.5 56.5zM258 401q-35 0 -58 -28t-40 -91 q-6 -24 -10.5 -54.5t-6.5 -53.5q0 -15 1 -29t7 -25t18 -18t34 -7q31 0 51 20.5t28 43.5q7 18 13.5 41t11 46.5t7 45t2.5 36.5q0 32 -14 52.5t-44 20.5zM156 583l18 93h273l-19 -93h-272z" />
<glyph unicode="&#x14e;" horiz-adv-x="516" d="M473 211q-20 -103 -74.5 -160t-152.5 -57q-63 0 -105 19.5t-65.5 52.5t-29.5 76t3 90l50 254q7 37 23 75t43.5 69t69 51t100.5 20q55 0 94.5 -19.5t62.5 -51.5t30.5 -72.5t-0.5 -82.5zM410 484q3 13 1 31.5t-11.5 35.5t-28.5 28.5t-50 11.5q-28 0 -47 -10.5t-31.5 -26 t-19.5 -33.5t-10 -34l-50 -263q-5 -26 -3 -48t12 -38.5t29 -25.5t48 -9q42 0 70 26.5t37 72.5zM360 734q-41 0 -67 15t-40 37t-17.5 48t0.5 48h85q-2 -11 0 -23t8 -22t16.5 -16.5t25.5 -6.5q17 0 30.5 6.5t23.5 17t16 22t8 22.5h86q-6 -26 -18.5 -52t-33.5 -47.5t-51 -35 t-72 -13.5z" />
<glyph unicode="&#x14f;" horiz-adv-x="444" d="M267 500q42 0 72.5 -13t50 -34.5t28.5 -50.5t9 -61q0 -30 -4.5 -64t-11.5 -63q-11 -51 -27.5 -91.5t-42 -69t-62 -44t-87.5 -15.5q-47 0 -77.5 13.5t-48 36.5t-24.5 53t-7 63q0 26 4.5 60.5t11.5 66.5q22 100 72.5 156.5t143.5 56.5zM258 401q-35 0 -58 -28t-40 -91 q-6 -24 -10.5 -54.5t-6.5 -53.5q0 -15 1 -29t7 -25t18 -18t34 -7q31 0 51 20.5t28 43.5q7 18 13.5 41t11 46.5t7 45t2.5 36.5q0 32 -14 52.5t-44 20.5zM292 556q-40 0 -66 14t-41 35.5t-19 48t-1 51.5h85q-2 -11 0.5 -23t8.5 -22t17 -17t26 -7q16 0 29 6.5t23 17t16.5 22.5 t8.5 23h89q-6 -26 -19 -52t-34.5 -48t-52 -35.5t-70.5 -13.5z" />
<glyph unicode="&#x150;" horiz-adv-x="516" d="M473 211q-20 -103 -74.5 -160t-152.5 -57q-63 0 -105 19.5t-65.5 52.5t-29.5 76t3 90l50 254q7 37 23 75t43.5 69t69 51t100.5 20q55 0 94.5 -19.5t62.5 -51.5t30.5 -72.5t-0.5 -82.5zM410 484q3 13 1 31.5t-11.5 35.5t-28.5 28.5t-50 11.5q-28 0 -47 -10.5t-31.5 -26 t-19.5 -33.5t-10 -34l-50 -263q-5 -26 -3 -48t12 -38.5t29 -25.5t48 -9q42 0 70 26.5t37 72.5zM207 776l171 129l61 -76l-195 -105zM391 776l177 129l58 -76l-200 -105z" />
<glyph unicode="&#x151;" horiz-adv-x="444" d="M267 500q42 0 72.5 -13t50 -34.5t28.5 -50.5t9 -61q0 -30 -4.5 -64t-11.5 -63q-11 -51 -27.5 -91.5t-42 -69t-62 -44t-87.5 -15.5q-47 0 -77.5 13.5t-48 36.5t-24.5 53t-7 63q0 26 4.5 60.5t11.5 66.5q22 100 72.5 156.5t143.5 56.5zM258 401q-35 0 -58 -28t-40 -91 q-6 -24 -10.5 -54.5t-6.5 -53.5q0 -15 1 -29t7 -25t18 -18t34 -7q31 0 51 20.5t28 43.5q7 18 13.5 41t11 46.5t7 45t2.5 36.5q0 32 -14 52.5t-44 20.5zM306 571l117 184l92 -37l-151 -175zM158 571l117 184l92 -37l-151 -175z" />
<glyph unicode="&#x152;" horiz-adv-x="717" d="M311 0q-29 -6 -62 -6q-59 0 -99 18.5t-63.5 49.5t-30 72t2.5 86l48 264q8 41 25.5 80.5t46 70t69.5 49t96 18.5q16 0 32 -2t30 -4h379l-21 -106h-263q-3 -14 -8 -39.5t-10.5 -53.5t-10.5 -53.5t-8 -39.5h232l-20 -104h-232l-38 -195h270l-20 -105h-345zM257 102 q22 0 37 7q4 22 11 59.5t16 82.5t18.5 94t18.5 94t16 82.5t11 59.5q-20 13 -48 13q-29 0 -49.5 -10t-34 -27t-22 -39t-12.5 -46l-45 -239q-5 -29 -5 -53t9 -41t28 -27t51 -10z" />
<glyph unicode="&#x153;" horiz-adv-x="703" d="M531 501q79 0 119 -35.5t40 -90.5q0 -45 -17 -78t-48 -55t-74.5 -32.5t-96.5 -10.5h-20.5t-21.5 1q-1 -8 -2 -17t-1 -18q0 -30 13 -49.5t45 -19.5q23 0 48.5 13t44.5 38l86 -52q-33 -49 -82 -74.5t-110 -25.5q-45 0 -74.5 14t-46.5 39q-25 -26 -59.5 -40t-82.5 -14 q-47 0 -77.5 14t-48 36.5t-24.5 52t-7 61.5q1 26 4.5 61t11.5 68q23 102 74.5 157.5t141.5 55.5q46 0 77 -15t49 -40q26 26 60 41t79 15zM257 401q-35 0 -58 -28t-40 -91q-3 -14 -6.5 -30.5t-6 -33.5t-4 -32t-1.5 -25q0 -26 12 -46t49 -20q31 0 49 16.5t30 45.5q8 18 14 40 t10.5 45t7 45.5t2.5 40.5q0 32 -14 52.5t-44 20.5zM525 401q-38 0 -61.5 -30.5t-34.5 -82.5q8 -1 18.5 -1h18.5q63 1 88.5 21.5t25.5 49.5q0 19 -14.5 31t-40.5 12z" />
<glyph unicode="&#x154;" horiz-adv-x="522" d="M339 0l-60 290h-88l-56 -290h-113l135 696h212q84 0 129 -44t41 -131q-3 -85 -42.5 -137t-105.5 -75l71 -309h-123zM428 510q3 43 -20 62.5t-65 19.5h-93l-39 -199h99q48 0 82 29.5t36 87.5zM282 776l181 126l61 -75l-205 -102z" />
<glyph unicode="&#x155;" horiz-adv-x="335" d="M294 391q-43 0 -71.5 -26t-38.5 -76l-58 -290h-110l96 496h110l-12 -62h2q25 36 57 52t69 16q32 0 49 -13l-40 -110q-13 8 -27 10.5t-26 2.5zM184 571l117 184l92 -37l-151 -175z" />
<glyph unicode="&#x156;" horiz-adv-x="522" d="M339 0l-60 290h-88l-56 -290h-113l135 696h212q84 0 129 -44t41 -131q-3 -85 -42.5 -137t-105.5 -75l71 -309h-123zM428 510q3 43 -20 62.5t-65 19.5h-93l-39 -199h99q48 0 82 29.5t36 87.5zM134 -255l51 98h-29l23 119h116l-23 -115l-81 -102h-57z" />
<glyph unicode="&#x157;" horiz-adv-x="335" d="M294 391q-43 0 -71.5 -26t-38.5 -76l-58 -290h-110l96 496h110l-12 -62h2q25 36 57 52t69 16q32 0 49 -13l-40 -110q-13 8 -27 10.5t-26 2.5zM-37 -275l51 98h-29l23 119h116l-23 -115l-81 -102h-57z" />
<glyph unicode="&#x158;" horiz-adv-x="522" d="M339 0l-60 290h-88l-56 -290h-113l135 696h212q84 0 129 -44t41 -131q-3 -85 -42.5 -137t-105.5 -75l71 -309h-123zM428 510q3 43 -20 62.5t-65 19.5h-93l-39 -199h99q48 0 82 29.5t36 87.5zM491 902l34 -43l-165 -129h-69l-113 128l48 43l113 -81z" />
<glyph unicode="&#x159;" horiz-adv-x="335" d="M294 391q-43 0 -71.5 -26t-38.5 -76l-58 -290h-110l96 496h110l-12 -62h2q25 36 57 52t69 16q32 0 49 -13l-40 -110q-13 8 -27 10.5t-26 2.5zM397 732l37 -42l-165 -150h-71l-110 151l52 41q4 -3 20 -18t34 -32.5t33.5 -32t19.5 -17.5z" />
<glyph unicode="&#x15a;" horiz-adv-x="498" d="M116 181q17 -35 45.5 -56t73.5 -21q29 0 50.5 9t35.5 24t21 34.5t7 39.5q0 38 -25 57t-71 33q-80 26 -117 64.5t-37 101.5q0 53 16.5 96t47 74t73.5 47.5t96 16.5q76 0 123 -31.5t67 -79.5l-97 -67q-38 66 -108 66q-44 0 -70 -29t-26 -68q0 -21 8.5 -34.5t24.5 -23.5 t38 -18t48 -17q75 -26 105 -66t30 -100q0 -54 -17 -98t-49.5 -75.5t-78.5 -48.5t-103 -17q-86 0 -137 35t-74 89zM279 776l181 126l61 -75l-205 -102z" />
<glyph unicode="&#x15b;" horiz-adv-x="419" d="M94 150q14 -29 36.5 -43.5t57.5 -14.5q15 0 29 4t25.5 12t18.5 20t7 27q0 12 -6.5 20.5t-17.5 14t-26 9.5t-31 9q-24 7 -46.5 16t-39.5 23t-27 34.5t-10 49.5q0 40 15.5 72t41 53.5t59.5 33t71 11.5q61 0 102 -26t58 -71q-4 -2 -16.5 -9.5t-26 -16t-26 -16.5t-16.5 -10 q-10 27 -32 38.5t-49 11.5q-35 0 -53.5 -18t-18.5 -39q0 -10 8 -17.5t20 -13.5t27 -10t29 -8q24 -6 46.5 -15t39.5 -23.5t27.5 -35.5t10.5 -51q0 -41 -14.5 -74t-41 -55.5t-63.5 -34.5t-82 -12q-69 1 -113.5 29t-61.5 79zM211 571l117 184l92 -37l-151 -175z" />
<glyph unicode="&#x15c;" horiz-adv-x="498" d="M116 181q17 -35 45.5 -56t73.5 -21q29 0 50.5 9t35.5 24t21 34.5t7 39.5q0 38 -25 57t-71 33q-80 26 -117 64.5t-37 101.5q0 53 16.5 96t47 74t73.5 47.5t96 16.5q76 0 123 -31.5t67 -79.5l-97 -67q-38 66 -108 66q-44 0 -70 -29t-26 -68q0 -21 8.5 -34.5t24.5 -23.5 t38 -18t48 -17q75 -26 105 -66t30 -100q0 -54 -17 -98t-49.5 -75.5t-78.5 -48.5t-103 -17q-86 0 -137 35t-74 89zM359 811l-152 -82l-35 43l166 129h70l111 -127l-47 -44z" />
<glyph unicode="&#x15d;" horiz-adv-x="419" d="M94 150q14 -29 36.5 -43.5t57.5 -14.5q15 0 29 4t25.5 12t18.5 20t7 27q0 12 -6.5 20.5t-17.5 14t-26 9.5t-31 9q-24 7 -46.5 16t-39.5 23t-27 34.5t-10 49.5q0 40 15.5 72t41 53.5t59.5 33t71 11.5q61 0 102 -26t58 -71q-4 -2 -16.5 -9.5t-26 -16t-26 -16.5t-16.5 -10 q-10 27 -32 38.5t-49 11.5q-35 0 -53.5 -18t-18.5 -39q0 -10 8 -17.5t20 -13.5t27 -10t29 -8q24 -6 46.5 -15t39.5 -23.5t27.5 -35.5t10.5 -51q0 -41 -14.5 -74t-41 -55.5t-63.5 -34.5t-82 -12q-69 1 -113.5 29t-61.5 79zM289 640l-153 -104l-38 40l169 152h71l108 -153 l-52 -38z" />
<glyph unicode="&#x15e;" horiz-adv-x="498" d="M116 181q17 -35 45.5 -56t73.5 -21q29 0 50.5 9t35.5 24t21 34.5t7 39.5q0 38 -25 57t-71 33q-80 26 -117 64.5t-37 101.5q0 53 16.5 96t47 74t73.5 47.5t96 16.5q76 0 123 -31.5t67 -79.5l-97 -67q-38 66 -108 66q-44 0 -70 -29t-26 -68q0 -21 8.5 -34.5t24.5 -23.5 t38 -18t48 -17q75 -26 105 -66t30 -100q0 -52 -16 -95t-46 -74.5t-73 -49.5t-97 -20l-18 -35q45 -5 60.5 -27t15.5 -48q0 -16 -6.5 -33t-21 -30.5t-36.5 -22.5t-53 -9q-15 0 -43.5 3.5t-52.5 17.5q5 8 14 25.5t13 25.5q20 -10 37 -13t30 -3q19 0 32.5 9.5t13.5 26.5 q0 13 -9.5 21t-26.5 8q-7 0 -11 -1l-25 19l33 68q-69 8 -111 41t-62 81z" />
<glyph unicode="&#x15f;" horiz-adv-x="419" d="M94 150q14 -29 36.5 -43.5t57.5 -14.5q15 0 29 4t25.5 12t18.5 20t7 27q0 12 -6.5 20.5t-17.5 14t-26 9.5t-31 9q-24 7 -46.5 16t-39.5 23t-27 34.5t-10 49.5q0 40 15.5 72t41 53.5t59.5 33t71 11.5q61 0 102 -26t58 -71q-4 -2 -16.5 -9.5t-26 -16t-26 -16.5t-16.5 -10 q-10 27 -32 38.5t-49 11.5q-35 0 -53.5 -18t-18.5 -39q0 -10 8 -17.5t20 -13.5t27 -10t29 -8q24 -6 46.5 -15t39.5 -23.5t27.5 -35.5t10.5 -51q0 -79 -50.5 -125t-133.5 -50q-5 -12 -10.5 -22t-7.5 -15q45 -5 60.5 -27t15.5 -48q0 -16 -6.5 -33t-21 -30.5t-36.5 -22.5 t-53 -9q-15 0 -43.5 3.5t-52.5 17.5q5 8 14 25.5t13 25.5q20 -10 37 -13t30 -3q19 0 32.5 9.5t13.5 26.5q0 13 -9.5 21t-26.5 8q-7 0 -11 -1l-25 19l34 70q-54 7 -89 33.5t-50 71.5z" />
<glyph unicode="&#x160;" horiz-adv-x="498" d="M116 181q17 -35 45.5 -56t73.5 -21q29 0 50.5 9t35.5 24t21 34.5t7 39.5q0 38 -25 57t-71 33q-80 26 -117 64.5t-37 101.5q0 53 16.5 96t47 74t73.5 47.5t96 16.5q76 0 123 -31.5t67 -79.5l-97 -67q-38 66 -108 66q-44 0 -70 -29t-26 -68q0 -21 8.5 -34.5t24.5 -23.5 t38 -18t48 -17q75 -26 105 -66t30 -100q0 -54 -17 -98t-49.5 -75.5t-78.5 -48.5t-103 -17q-86 0 -137 35t-74 89zM518 902l34 -43l-165 -129h-69l-113 128l48 43l113 -81z" />
<glyph unicode="&#x161;" horiz-adv-x="419" d="M94 150q14 -29 36.5 -43.5t57.5 -14.5q15 0 29 4t25.5 12t18.5 20t7 27q0 12 -6.5 20.5t-17.5 14t-26 9.5t-31 9q-24 7 -46.5 16t-39.5 23t-27 34.5t-10 49.5q0 40 15.5 72t41 53.5t59.5 33t71 11.5q61 0 102 -26t58 -71q-4 -2 -16.5 -9.5t-26 -16t-26 -16.5t-16.5 -10 q-10 27 -32 38.5t-49 11.5q-35 0 -53.5 -18t-18.5 -39q0 -10 8 -17.5t20 -13.5t27 -10t29 -8q24 -6 46.5 -15t39.5 -23.5t27.5 -35.5t10.5 -51q0 -41 -14.5 -74t-41 -55.5t-63.5 -34.5t-82 -12q-69 1 -113.5 29t-61.5 79zM441 732l37 -42l-165 -150h-71l-110 151l52 41 q4 -3 20 -18t34 -32.5t33.5 -32t19.5 -17.5z" />
<glyph unicode="&#x162;" horiz-adv-x="426" d="M344 592l-116 -592h-113l115 592h-152l21 104h416l-20 -104h-151zM61 -275l51 98h-29l23 119h116l-23 -115l-81 -102h-57z" />
<glyph unicode="&#x163;" horiz-adv-x="277" d="M230 494h67l-18 -87h-67l-50 -264q-4 -19 4 -31.5t36 -12.5h21l-19 -99q-12 -1 -23.5 -1h-23.5q-36 0 -59 10.5t-35 27.5t-15 39.5t2 46.5l55 284h-52l17 87h52q7 33 13.5 65.5t12.5 65.5h107zM-8 -275l51 98h-29l23 119h116l-23 -115l-81 -102h-57z" />
<glyph unicode="&#x164;" horiz-adv-x="426" d="M344 592l-116 -592h-113l115 592h-152l21 104h416l-20 -104h-151zM482 902l34 -43l-165 -129h-69l-113 128l48 43l113 -81z" />
<glyph unicode="&#x165;" horiz-adv-x="347" d="M230 494h67l-18 -87h-67l-50 -264q-4 -19 4 -31.5t36 -12.5h21l-19 -99q-12 -1 -23.5 -1h-23.5q-36 0 -59 10.5t-35 27.5t-15 39.5t2 46.5l55 284h-52l17 87h52q7 33 13.5 65.5t12.5 65.5h107zM290 546l51 98h-29l23 119h116l-23 -115l-81 -102h-57z" />
<glyph unicode="&#x166;" horiz-adv-x="426" d="M344 592l-36 -184h124l-16 -79h-124l-64 -329h-113l64 329h-122l16 79h121l36 184h-152l21 104h416l-20 -104h-151z" />
<glyph unicode="&#x167;" horiz-adv-x="277" d="M230 494h67l-18 -87h-67l-18 -93h66l-15 -76h-65l-18 -95q-4 -19 4 -31.5t36 -12.5h21l-19 -99q-12 -1 -23.5 -1h-23.5q-36 0 -59 10.5t-35 27.5t-15 39.5t2 46.5l22 115h-55l15 76h55l18 93h-52l17 87h52q7 33 13.5 65.5t12.5 65.5h107z" />
<glyph unicode="&#x168;" horiz-adv-x="529" d="M479 222q-10 -51 -29 -93t-49 -72t-71 -46t-93 -16q-53 0 -91 17t-61 46.5t-30.5 69.5t1.5 87q3 18 10.5 56.5t16.5 86.5t19.5 101t19.5 100.5t16 84t10 52.5h113q-3 -15 -10 -51.5t-16.5 -84.5t-20 -101.5t-19.5 -101.5t-16.5 -86t-10.5 -54q-4 -23 -2.5 -43t10.5 -35 t25 -24t41 -9q56 0 84.5 34t39.5 88q1 7 8 42.5t16.5 85.5t20.5 106.5t21 106.5t16.5 85t8.5 42h114q-4 -19 -11 -56.5t-16 -84t-19 -97t-19 -97t-16.5 -83.5t-10.5 -56zM312 863q17 0 33 -6.5t31 -14t29 -14t26 -6.5q14 0 28.5 8.5t35.5 32.5l53 -33q-27 -53 -57.5 -72.5 t-61.5 -19.5q-18 0 -34 6t-31 13.5t-29 14t-27 6.5q-14 0 -28.5 -9.5t-36.5 -32.5l-53 36q29 49 59.5 70t62.5 21z" />
<glyph unicode="&#x169;" horiz-adv-x="461" d="M216 496q-4 -19 -10 -49.5t-13 -66.5l-14 -72t-12.5 -66t-9 -49.5t-3.5 -20.5q-6 -33 6 -53t48 -20q32 0 55.5 23.5t30.5 60.5l61 313h109l-96 -496h-110l11 49h-3q-24 -27 -55.5 -40.5t-60.5 -13.5q-66 0 -94.5 39.5t-17.5 103.5q0 2 4 23t10 53.5t14 72.5t15.5 79.5 t14 73.5t10.5 56h110zM242 693q17 0 33 -6.5t31 -14t29 -14t26 -6.5q14 0 28.5 8.5t35.5 32.5l53 -33q-27 -53 -57.5 -72.5t-61.5 -19.5q-18 0 -34 6t-31 13.5t-29 14t-27 6.5q-14 0 -28.5 -9.5t-36.5 -32.5l-53 36q29 49 59.5 70t62.5 21z" />
<glyph unicode="&#x16a;" horiz-adv-x="529" d="M479 222q-10 -51 -29 -93t-49 -72t-71 -46t-93 -16q-53 0 -91 17t-61 46.5t-30.5 69.5t1.5 87q3 18 10.5 56.5t16.5 86.5t19.5 101t19.5 100.5t16 84t10 52.5h113q-3 -15 -10 -51.5t-16.5 -84.5t-20 -101.5t-19.5 -101.5t-16.5 -86t-10.5 -54q-4 -23 -2.5 -43t10.5 -35 t25 -24t41 -9q56 0 84.5 34t39.5 88q1 7 8 42.5t16.5 85.5t20.5 106.5t21 106.5t16.5 85t8.5 42h114q-4 -19 -11 -56.5t-16 -84t-19 -97t-19 -97t-16.5 -83.5t-10.5 -56zM226 756l19 93h273l-18 -93h-274z" />
<glyph unicode="&#x16b;" horiz-adv-x="461" d="M216 496q-4 -19 -10 -49.5t-13 -66.5l-14 -72t-12.5 -66t-9 -49.5t-3.5 -20.5q-6 -33 6 -53t48 -20q32 0 55.5 23.5t30.5 60.5l61 313h109l-96 -496h-110l11 49h-3q-24 -27 -55.5 -40.5t-60.5 -13.5q-66 0 -94.5 39.5t-17.5 103.5q0 2 4 23t10 53.5t14 72.5t15.5 79.5 t14 73.5t10.5 56h110zM161 583l18 93h273l-19 -93h-272z" />
<glyph unicode="&#x16c;" horiz-adv-x="529" d="M479 222q-10 -51 -29 -93t-49 -72t-71 -46t-93 -16q-53 0 -91 17t-61 46.5t-30.5 69.5t1.5 87q3 18 10.5 56.5t16.5 86.5t19.5 101t19.5 100.5t16 84t10 52.5h113q-3 -15 -10 -51.5t-16.5 -84.5t-20 -101.5t-19.5 -101.5t-16.5 -86t-10.5 -54q-4 -23 -2.5 -43t10.5 -35 t25 -24t41 -9q56 0 84.5 34t39.5 88q1 7 8 42.5t16.5 85.5t20.5 106.5t21 106.5t16.5 85t8.5 42h114q-4 -19 -11 -56.5t-16 -84t-19 -97t-19 -97t-16.5 -83.5t-10.5 -56zM365 727q-40 0 -66 14t-41 35.5t-19 48t-1 51.5h85q-2 -11 0.5 -23t8.5 -22t17 -17t26 -7q16 0 29 6.5 t23 17t16.5 22.5t8.5 23h89q-6 -26 -19 -52t-34.5 -48t-52 -35.5t-70.5 -13.5z" />
<glyph unicode="&#x16d;" horiz-adv-x="461" d="M216 496q-4 -19 -10 -49.5t-13 -66.5l-14 -72t-12.5 -66t-9 -49.5t-3.5 -20.5q-6 -33 6 -53t48 -20q32 0 55.5 23.5t30.5 60.5l61 313h109l-96 -496h-110l11 49h-3q-24 -27 -55.5 -40.5t-60.5 -13.5q-66 0 -94.5 39.5t-17.5 103.5q0 2 4 23t10 53.5t14 72.5t15.5 79.5 t14 73.5t10.5 56h110zM295 556q-40 0 -66 14t-41 35.5t-19 48t-1 51.5h85q-2 -11 0.5 -23t8.5 -22t17 -17t26 -7q16 0 29 6.5t23 17t16.5 22.5t8.5 23h89q-6 -26 -19 -52t-34.5 -48t-52 -35.5t-70.5 -13.5z" />
<glyph unicode="&#x16e;" horiz-adv-x="529" d="M479 222q-10 -51 -29 -93t-49 -72t-71 -46t-93 -16q-53 0 -91 17t-61 46.5t-30.5 69.5t1.5 87q3 18 10.5 56.5t16.5 86.5t19.5 101t19.5 100.5t16 84t10 52.5h113q-3 -15 -10 -51.5t-16.5 -84.5t-20 -101.5t-19.5 -101.5t-16.5 -86t-10.5 -54q-4 -23 -2.5 -43t10.5 -35 t25 -24t41 -9q56 0 84.5 34t39.5 88q1 7 8 42.5t16.5 85.5t20.5 106.5t21 106.5t16.5 85t8.5 42h114q-4 -19 -11 -56.5t-16 -84t-19 -97t-19 -97t-16.5 -83.5t-10.5 -56zM372 766q20 0 35.5 14.5t15.5 36.5q0 14 -10 24t-26 10q-20 0 -36 -15.5t-16 -35.5q0 -15 10.5 -24.5 t26.5 -9.5zM364 707q-39 0 -64.5 24t-25.5 59q0 24 9 46t25 38.5t38 26.5t49 10q38 0 64 -24t26 -60q0 -25 -9 -47t-25.5 -38t-38.5 -25.5t-48 -9.5z" />
<glyph unicode="&#x16f;" horiz-adv-x="461" d="M216 496q-4 -19 -10 -49.5t-13 -66.5l-14 -72t-12.5 -66t-9 -49.5t-3.5 -20.5q-6 -33 6 -53t48 -20q32 0 55.5 23.5t30.5 60.5l61 313h109l-96 -496h-110l11 49h-3q-24 -27 -55.5 -40.5t-60.5 -13.5q-66 0 -94.5 39.5t-17.5 103.5q0 2 4 23t10 53.5t14 72.5t15.5 79.5 t14 73.5t10.5 56h110zM303 592q20 0 35.5 14.5t15.5 36.5q0 14 -10 24t-26 10q-20 0 -36 -15.5t-16 -35.5q0 -15 10.5 -24.5t26.5 -9.5zM295 533q-39 0 -64.5 24t-25.5 59q0 24 9 46t25 38.5t38 26.5t49 10q38 0 64 -24t26 -60q0 -25 -9 -47t-25.5 -38t-38.5 -25.5t-48 -9.5 z" />
<glyph unicode="&#x170;" horiz-adv-x="529" d="M479 222q-10 -51 -29 -93t-49 -72t-71 -46t-93 -16q-53 0 -91 17t-61 46.5t-30.5 69.5t1.5 87q3 18 10.5 56.5t16.5 86.5t19.5 101t19.5 100.5t16 84t10 52.5h113q-3 -15 -10 -51.5t-16.5 -84.5t-20 -101.5t-19.5 -101.5t-16.5 -86t-10.5 -54q-4 -23 -2.5 -43t10.5 -35 t25 -24t41 -9q56 0 84.5 34t39.5 88q1 7 8 42.5t16.5 85.5t20.5 106.5t21 106.5t16.5 85t8.5 42h114q-4 -19 -11 -56.5t-16 -84t-19 -97t-19 -97t-16.5 -83.5t-10.5 -56zM218 776l171 129l61 -76l-195 -105zM402 776l177 129l58 -76l-200 -105z" />
<glyph unicode="&#x171;" horiz-adv-x="461" d="M216 496q-4 -19 -10 -49.5t-13 -66.5l-14 -72t-12.5 -66t-9 -49.5t-3.5 -20.5q-6 -33 6 -53t48 -20q32 0 55.5 23.5t30.5 60.5l61 313h109l-96 -496h-110l11 49h-3q-24 -27 -55.5 -40.5t-60.5 -13.5q-66 0 -94.5 39.5t-17.5 103.5q0 2 4 23t10 53.5t14 72.5t15.5 79.5 t14 73.5t10.5 56h110zM324 571l117 184l92 -37l-151 -175zM176 571l117 184l92 -37l-151 -175z" />
<glyph unicode="&#x172;" horiz-adv-x="529" d="M142 -114q1 23 14 50t42 62q-43 6 -73.5 25t-48.5 47.5t-23 65.5t3 79q3 18 10.5 56.5t16.5 86.5t19.5 101t19.5 100.5t16 84t10 52.5h113q-3 -15 -10 -51.5t-16.5 -84.5t-20 -101.5t-19.5 -101.5t-16.5 -86t-10.5 -54q-4 -23 -2.5 -43t10.5 -35t25 -24t41 -9 q56 0 84.5 34t39.5 88q1 7 8 42.5t16.5 85.5t20.5 106.5t21 106.5t16.5 85t8.5 42h114q-4 -19 -11 -56.5t-16 -84t-19 -97t-19 -97t-16.5 -83.5t-10.5 -56q-18 -95 -70 -156t-143 -69q-27 -32 -36.5 -55t-10.5 -37q-1 -15 8 -23t26 -8q23 0 58 17l12 -58q-24 -14 -50.5 -20 t-49.5 -6q-39 0 -61 22t-20 57z" />
<glyph unicode="&#x173;" horiz-adv-x="461" d="M200 -114q1 23 14 51t44 63l11 49h-3q-24 -27 -55.5 -40.5t-60.5 -13.5q-66 0 -94.5 39.5t-17.5 103.5q0 2 4 23t10 53.5t14 72.5t15.5 79.5t14 73.5t10.5 56h110q-4 -19 -10 -49.5t-13 -66.5l-14 -72t-12.5 -66t-9 -49.5t-3.5 -20.5q-6 -33 6 -53t48 -20q32 0 55.5 23.5 t30.5 60.5l61 313h109l-96 -496h-41q-29 -33 -39 -57t-11 -38q-1 -15 8 -23t26 -8q23 0 58 17l12 -58q-24 -14 -50.5 -20t-49.5 -6q-39 0 -61 22t-20 57z" />
<glyph unicode="&#x174;" horiz-adv-x="717" d="M523 0h-102q-4 72 -5 145t-5 145q-2 40 -3 79.5t-2 79.5h-4q-20 -46 -38.5 -91.5t-37.5 -91.5l-114 -266h-101q-2 174 -3 347.5t-2 348.5h120l-5 -234q-2 -54 -3 -108.5t-4 -108.5h4l70 169l117 282h94q2 -94 6 -185t4 -185q1 -22 1.5 -43.5t0.5 -43.5h5l50 147 q9 25 22 62t28 79t31 86t30 83h122zM475 811l-152 -82l-35 43l166 129h70l111 -127l-47 -44z" />
<glyph unicode="&#x175;" horiz-adv-x="655" d="M331 320q-18 -52 -34.5 -97t-36.5 -87q-16 -34 -32.5 -67.5t-36.5 -68.5h-110l-37 494h116q1 -55 3 -110t2 -111q0 -33 0.5 -60.5t-2.5 -64.5h4q40 78 75 166.5t64 179.5h112l7 -198q1 -19 1 -35t-0.5 -32.5t-1 -34.5t-1.5 -39h5q39 77 71.5 158.5t64.5 180.5h120 q-24 -72 -49.5 -135.5t-54 -123t-61 -117t-69.5 -118.5h-108q-2 67 -4.5 131t-2.5 139v24.5t1 25.5h-5zM395 640l-153 -104l-38 40l169 152h71l108 -153l-52 -38z" />
<glyph unicode="&#x176;" horiz-adv-x="471" d="M276 401q17 32 34.5 65.5t35.5 65.5q7 12 19.5 34.5t26.5 47.5t26.5 47.5t19.5 34.5h122q-11 -18 -31 -50t-44.5 -72t-51.5 -83.5t-51.5 -83.5t-44.5 -72.5t-31 -49.5l-56 -285h-110q2 12 6.5 34.5l10 50t11.5 58t11.5 58t9.5 50t7 34.5q-23 103 -47.5 205.5t-47.5 205.5 h116q2 -9 7.5 -36t11.5 -58t11 -57.5t7 -35.5q5 -24 9 -54.5t7 -53.5h6zM353 811l-152 -82l-35 43l166 129h70l111 -127l-47 -44z" />
<glyph unicode="&#x177;" horiz-adv-x="402" d="M175 118q20 37 39.5 82.5t37.5 94.5t35 100t32 99h116q-31 -86 -62.5 -166t-63.5 -152t-64.5 -134t-64.5 -110q-46 -69 -105.5 -105t-127.5 -33l-2 95q24 3 45 9.5t40.5 19.5t36.5 33.5t33 51.5q-2 21 -6.5 60t-10 87t-11.5 100.5t-12 100t-10.5 85.5t-7.5 58h115 q2 -26 4.5 -59.5t5 -64.5t4 -55t1.5 -31q2 -35 3.5 -77t-3.5 -89h3zM269 640l-153 -104l-38 40l169 152h71l108 -153l-52 -38z" />
<glyph unicode="&#x178;" horiz-adv-x="471" d="M276 401q17 32 34.5 65.5t35.5 65.5q7 12 19.5 34.5t26.5 47.5t26.5 47.5t19.5 34.5h122q-11 -18 -31 -50t-44.5 -72t-51.5 -83.5t-51.5 -83.5t-44.5 -72.5t-31 -49.5l-56 -285h-110q2 12 6.5 34.5l10 50t11.5 58t11.5 58t9.5 50t7 34.5q-23 103 -47.5 205.5t-47.5 205.5 h116q2 -9 7.5 -36t11.5 -58t11 -57.5t7 -35.5q5 -24 9 -54.5t7 -53.5h6zM375 742l21 108h106l-20 -108h-107zM194 742l20 108h108l-21 -108h-107z" />
<glyph unicode="&#x179;" horiz-adv-x="429" d="M-15 0l20 102l346 490h-240l20 104h368l-19 -97l-346 -493h250l-20 -106h-379zM262 776l181 126l61 -75l-205 -102z" />
<glyph unicode="&#x17a;" horiz-adv-x="388" d="M-15 0l18 96l258 302h-186l18 97h315l-17 -92l-258 -301h199l-20 -102h-327zM214 571l117 184l92 -37l-151 -175z" />
<glyph unicode="&#x17b;" horiz-adv-x="429" d="M-15 0l20 102l346 490h-240l20 104h368l-19 -97l-346 -493h250l-20 -106h-379zM269 742l21 107h105l-20 -107h-106z" />
<glyph unicode="&#x17c;" horiz-adv-x="388" d="M-15 0l18 96l258 302h-186l18 97h315l-17 -92l-258 -301h199l-20 -102h-327zM207 572l21 107h105l-20 -107h-106z" />
<glyph unicode="&#x17d;" horiz-adv-x="429" d="M-15 0l20 102l346 490h-240l20 104h368l-19 -97l-346 -493h250l-20 -106h-379zM496 902l34 -43l-165 -129h-69l-113 128l48 43l113 -81z" />
<glyph unicode="&#x17e;" horiz-adv-x="388" d="M-15 0l18 96l258 302h-186l18 97h315l-17 -92l-258 -301h199l-20 -102h-327zM417 732l37 -42l-165 -150h-71l-110 151l52 41q4 -3 20 -18t34 -32.5t33.5 -32t19.5 -17.5z" />
<glyph unicode="&#x192;" horiz-adv-x="465" d="M137 428h86l15 69q7 36 20.5 72t36 65t55 47t79.5 18q22 0 44.5 -4t39.5 -12l-30 -91q-18 8 -32.5 9t-28.5 1q-33 0 -50.5 -29.5t-26.5 -71.5l-16 -73h88l-7 -94h-101q-1 -4 -4.5 -20.5t-8 -39.5t-10 -48.5t-10.5 -48.5t-8.5 -39.5t-4.5 -20.5q-10 -47 -24 -85.5t-35 -66 t-49.5 -42.5t-67.5 -15q-20 0 -46.5 5.5t-48.5 16.5q1 3 6 15.5l11 27.5l11 27.5t6 15.5q36 -12 53 -12q31 0 48 28t28 85l47 217h-73z" />
<glyph unicode="&#x1a0;" horiz-adv-x="551" d="M473 211q-20 -103 -74.5 -160t-152.5 -57q-63 0 -105 19.5t-65.5 52.5t-29.5 76t3 90l50 254q7 37 23 75t43.5 69t69 51t100.5 20q48 0 83.5 -15t59.5 -40q32 1 48.5 21.5t27.5 73.5l9 48h86q-2 -19 -5.5 -38t-8.5 -38q-13 -59 -40 -95t-75 -48q11 -47 2 -95zM410 484 q3 13 1 31.5t-11.5 35.5t-28.5 28.5t-50 11.5q-28 0 -47 -10.5t-31.5 -26t-19.5 -33.5t-10 -34l-50 -263q-5 -26 -3 -48t12 -38.5t29 -25.5t48 -9q42 0 70 26.5t37 72.5z" />
<glyph unicode="&#x1a1;" horiz-adv-x="490" d="M267 500q43 0 73.5 -13t50.5 -36q28 3 42 23.5t23 69.5q2 11 4.5 23t4.5 23h86q-2 -19 -6 -37t-8 -37q-13 -58 -39 -94.5t-73 -48.5q1 -8 1.5 -16t0.5 -16q0 -30 -4.5 -64t-11.5 -63q-11 -51 -27.5 -91.5t-42 -69t-62 -44t-87.5 -15.5q-47 0 -77.5 13.5t-48 36.5 t-24.5 53t-7 63q0 26 4.5 60.5t11.5 66.5q22 100 72.5 156.5t143.5 56.5zM258 401q-35 0 -58 -28t-40 -91q-6 -24 -10.5 -54.5t-6.5 -53.5q0 -15 1 -29t7 -25t18 -18t34 -7q31 0 51 20.5t28 43.5q7 18 13.5 41t11 46.5t7 45t2.5 36.5q0 32 -14 52.5t-44 20.5z" />
<glyph unicode="&#x1af;" horiz-adv-x="599" d="M479 222q-10 -51 -29 -93t-49 -72t-71 -46t-93 -16q-53 0 -91 17t-61 46.5t-30.5 69.5t1.5 87q3 18 10.5 56.5t16.5 86.5t19.5 101t19.5 100.5t16 84t10 52.5h113q-3 -15 -10 -51.5t-16.5 -84.5t-20 -101.5t-19.5 -101.5t-16.5 -86t-10.5 -54q-4 -23 -2.5 -43t10.5 -35 t25 -24t41 -9q56 0 84.5 34t39.5 88q1 7 8 42.5t16.5 85.5t20.5 106.5t21 106.5t16.5 85t8.5 42h114q-2 -9 -4.5 -21.5t-5.5 -28.5q32 2 48.5 22.5t26.5 72.5l10 48h86l-10 -55q-7 -40 -18.5 -71.5t-30.5 -53.5t-48 -33.5t-71 -11.5h-9q-9 -47 -19.5 -99t-19.5 -99.5 t-16.5 -86t-10.5 -57.5z" />
<glyph unicode="&#x1b0;" horiz-adv-x="545" d="M216 496q-4 -19 -10 -49.5t-13 -66.5l-14 -72t-12.5 -66t-9 -49.5t-3.5 -20.5q-6 -33 6 -53t48 -20q32 0 55.5 23.5t30.5 60.5l61 313h109l-9 -46q4 0 6 1q29 4 43 24.5t23 68.5q2 12 4.5 23.5t4.5 22.5h87l-9 -45l-6 -28q-14 -66 -47 -104.5t-95 -43.5q-7 -1 -13.5 -1.5 t-13.5 -0.5l-71 -367h-110l11 49h-3q-24 -27 -55.5 -40.5t-60.5 -13.5q-66 0 -94.5 39.5t-17.5 103.5q0 2 4 23t10 53.5t14 72.5t15.5 79.5t14 73.5t10.5 56h110z" />
<glyph unicode="&#x1fc;" horiz-adv-x="829" d="M857 696l-15 -106h-272l-27 -186h235l-15 -104h-234q-2 -15 -6 -41.5t-8 -55t-7.5 -55t-5.5 -40.5h273l-14 -108h-389l24 171h-193l-105 -171h-120q18 29 51.5 84t74 122.5t85 141.5t85 141.5t74 122.5t51.5 84h458zM452 589l-187 -315h145l45 314zM551 776l181 126 l61 -75l-205 -102z" />
<glyph unicode="&#x1fd;" horiz-adv-x="699" d="M531 501q80 0 119.5 -35.5t39.5 -91.5q0 -44 -17 -76.5t-47 -54.5t-71.5 -32.5t-90.5 -11.5h-24t-25 1q-5 -25 -5 -43q0 -27 14.5 -44.5t44.5 -17.5q26 0 50 13.5t41 38.5l83 -52q-31 -50 -79.5 -75t-108.5 -25q-105 0 -138 73q-33 -40 -81 -56.5t-93 -16.5q-63 0 -94 30 t-31 84q0 38 12 72t38 60t67 41.5t100 15.5q3 0 13 -0.5t21 -1t21.5 -1.5t14.5 -1q4 20 8 39.5t0 34.5t-17.5 24t-43.5 9q-26 0 -47.5 -9t-40.5 -35l-78 50q31 50 79.5 71.5t107.5 21.5q35 0 73 -11t58 -34q24 20 56 33t71 13zM375 571l117 184l92 -37l-151 -175zM290 213 q-17 2 -36 2h-33q-42 -2 -67.5 -20t-25.5 -56q0 -20 14 -33t46 -13t58.5 20t36.5 66zM524 399q-40 0 -61 -29.5t-32 -81.5q10 -1 20 -1h19q58 1 83.5 20t25.5 50q0 19 -14.5 30.5t-40.5 11.5z" />
<glyph unicode="&#x1fe;" horiz-adv-x="516" d="M473 211q-20 -103 -74.5 -160t-152.5 -57q-52 0 -89.5 13.5t-62.5 37.5l-36 -50q-8 6 -16.5 12t-16.5 13l42 59q-18 32 -22 71t4 82l50 254q7 37 23 75t43.5 69t69 51t100.5 20q48 0 83 -14.5t58 -38.5l39 54l35 -27l-47 -64q17 -30 21.5 -65t-2.5 -71zM160 209 q61 85 121.5 168t120.5 168q-8 19 -27.5 32.5t-53.5 13.5q-28 0 -47 -10.5t-31.5 -26t-19.5 -33.5t-10 -34l-50 -263zM409 480l-242 -335q10 -20 30 -31t52 -11q42 0 70 26.5t37 72.5zM301 776l181 126l61 -75l-205 -102z" />
<glyph unicode="&#x1ff;" horiz-adv-x="444" d="M267 500q35 0 61 -8.5t45 -23.5l38 49q8 -5 15 -10.5t15 -11.5l-42 -55q28 -41 28 -99q0 -30 -4.5 -64t-11.5 -63q-11 -51 -27.5 -91.5t-42 -69t-62 -44t-87.5 -15.5q-37 0 -63 8.5t-44 22.5l-33 -44l-29 22l38 49q-15 23 -20.5 50.5t-5.5 57.5q0 26 4.5 60.5t11.5 66.5 q22 100 72.5 156.5t143.5 56.5zM242 571l117 184l92 -37l-151 -175zM258 401q-35 0 -58 -28t-40 -91q-6 -24 -10.5 -54.5t-6.5 -53.5v-12l161 215q-14 24 -46 24zM153 116q7 -10 18.5 -15.5t31.5 -5.5q31 0 51 20.5t28 43.5q7 18 13.5 41t11 46.5t7 45t2.5 36.5v2z" />
<glyph unicode="&#x218;" horiz-adv-x="498" d="M116 181q17 -35 45.5 -56t73.5 -21q29 0 50.5 9t35.5 24t21 34.5t7 39.5q0 38 -25 57t-71 33q-80 26 -117 64.5t-37 101.5q0 53 16.5 96t47 74t73.5 47.5t96 16.5q76 0 123 -31.5t67 -79.5l-97 -67q-38 66 -108 66q-44 0 -70 -29t-26 -68q0 -21 8.5 -34.5t24.5 -23.5 t38 -18t48 -17q75 -26 105 -66t30 -100q0 -54 -17 -98t-49.5 -75.5t-78.5 -48.5t-103 -17q-86 0 -137 35t-74 89zM101 -275l51 98h-29l23 119h116l-23 -115l-81 -102h-57z" />
<glyph unicode="&#x219;" horiz-adv-x="419" d="M94 150q14 -29 36.5 -43.5t57.5 -14.5q15 0 29 4t25.5 12t18.5 20t7 27q0 12 -6.5 20.5t-17.5 14t-26 9.5t-31 9q-24 7 -46.5 16t-39.5 23t-27 34.5t-10 49.5q0 40 15.5 72t41 53.5t59.5 33t71 11.5q61 0 102 -26t58 -71q-4 -2 -16.5 -9.5t-26 -16t-26 -16.5t-16.5 -10 q-10 27 -32 38.5t-49 11.5q-35 0 -53.5 -18t-18.5 -39q0 -10 8 -17.5t20 -13.5t27 -10t29 -8q24 -6 46.5 -15t39.5 -23.5t27.5 -35.5t10.5 -51q0 -41 -14.5 -74t-41 -55.5t-63.5 -34.5t-82 -12q-69 1 -113.5 29t-61.5 79zM58 -275l51 98h-29l23 119h116l-23 -115l-81 -102 h-57z" />
<glyph unicode="&#x259;" horiz-adv-x="436" d="M197 95q38 0 60 30.5t34 81.5q-10 2 -20 2h-19q-54 -1 -82 -21t-28 -50q0 -19 14.5 -31t40.5 -12zM267 502q80 0 117 -42.5t37 -119.5q0 -57 -11 -118t-38 -111.5t-71 -83t-110 -32.5q-79 0 -119.5 35.5t-40.5 91.5q0 45 18 78t49.5 54.5t73.5 32.5t90 11q11 0 22 -0.5 t23 -1.5q5 23 5 43q-1 26 -14.5 43t-42.5 17q-23 0 -48 -12t-45 -38q-4 2 -16 9.5t-26 16t-26 16t-16 9.5q31 51 80 76.5t109 25.5z" />
<glyph unicode="&#x2b9;" horiz-adv-x="258" d="M353 686l-194 -287l-75 25l157 299z" />
<glyph unicode="&#x2c6;" horiz-adv-x="441" d="M316 640l-153 -104l-38 40l169 152h71l108 -153l-52 -38z" />
<glyph unicode="&#x2c7;" horiz-adv-x="441" d="M461 732l37 -42l-165 -150h-71l-110 151l52 41q4 -3 20 -18t34 -32.5t33.5 -32t19.5 -17.5z" />
<glyph unicode="&#x2d8;" horiz-adv-x="475" d="M300 556q-40 0 -66 14t-41 35.5t-19 48t-1 51.5h85q-2 -11 0.5 -23t8.5 -22t17 -17t26 -7q16 0 29 6.5t23 17t16.5 22.5t8.5 23h89q-6 -26 -19 -52t-34.5 -48t-52 -35.5t-70.5 -13.5z" />
<glyph unicode="&#x2d9;" horiz-adv-x="440" d="M231 572l21 107h105l-20 -107h-106z" />
<glyph unicode="&#x2da;" horiz-adv-x="447" d="M302 592q20 0 35.5 14.5t15.5 36.5q0 14 -10 24t-26 10q-20 0 -36 -15.5t-16 -35.5q0 -15 10.5 -24.5t26.5 -9.5zM294 533q-39 0 -64.5 24t-25.5 59q0 24 9 46t25 38.5t38 26.5t49 10q38 0 64 -24t26 -60q0 -25 -9 -47t-25.5 -38t-38.5 -25.5t-48 -9.5z" />
<glyph unicode="&#x2db;" horiz-adv-x="399" d="M169 -115q1 24 15.5 52.5t47.5 66.5h65l1 -3q-29 -34 -40 -58.5t-12 -38.5q-1 -15 8 -23t26 -8q23 0 58 17l12 -58q-24 -14 -50.5 -20t-49.5 -6q-39 0 -61 22t-20 57z" />
<glyph unicode="&#x2dc;" horiz-adv-x="433" d="M247 693q17 0 33 -6.5t31 -14t29 -14t26 -6.5q14 0 28.5 8.5t35.5 32.5l53 -33q-27 -53 -57.5 -72.5t-61.5 -19.5q-18 0 -34 6t-31 13.5t-29 14t-27 6.5q-14 0 -28.5 -9.5t-36.5 -32.5l-53 36q29 49 59.5 70t62.5 21z" />
<glyph unicode="&#x2dd;" horiz-adv-x="459" d="M306 571l117 184l92 -37l-151 -175zM158 571l117 184l92 -37l-151 -175z" />
<glyph unicode="&#x384;" horiz-adv-x="442" d="M233 571l118 184l91 -37l-150 -175z" />
<glyph unicode="&#x385;" horiz-adv-x="458" d="M378 575l21 106h103l-21 -106h-103zM94 575l21 106h103l-20 -106h-104zM209 567l111 188l94 -33l-146 -179z" />
<glyph unicode="&#x386;" horiz-adv-x="520" d="M355 0l-8 150h-192l-69 -150h-121l335 696h109l64 -696h-118zM334 391l-6 149h-4l-61 -147l-63 -141h141zM-10 549l118 184l91 -37l-150 -175z" />
<glyph unicode="&#x387;" horiz-adv-x="240" d="M71 278l25 130h123l-25 -130h-123z" />
<glyph unicode="&#x388;" horiz-adv-x="467" d="M22 0l135 696h383l-21 -106h-269l-37 -186h232l-20 -104h-232l-37 -194h269l-20 -106h-383zM-85 554l118 184l91 -37l-150 -175z" />
<glyph unicode="&#x389;" horiz-adv-x="543" d="M328 0l59 301h-194l-58 -301h-113l135 696h113l-57 -292h194l57 292h112l-135 -696h-113zM-89 549l118 184l91 -37l-150 -175z" />
<glyph unicode="&#x38a;" horiz-adv-x="240" d="M22 0l136 696h113l-135 -696h-114zM-87 549l118 184l91 -37l-150 -175z" />
<glyph unicode="&#x38c;" horiz-adv-x="516" d="M473 211q-20 -103 -74.5 -160t-152.5 -57q-63 0 -105 19.5t-65.5 52.5t-29.5 76t3 90l50 254q7 37 23 75t43.5 69t69 51t100.5 20q55 0 94.5 -19.5t62.5 -51.5t30.5 -72.5t-0.5 -82.5zM410 484q3 13 1 31.5t-11.5 35.5t-28.5 28.5t-50 11.5q-28 0 -47 -10.5t-31.5 -26 t-19.5 -33.5t-10 -34l-50 -263q-5 -26 -3 -48t12 -38.5t29 -25.5t48 -9q42 0 70 26.5t37 72.5zM-74 549l118 184l91 -37l-150 -175z" />
<glyph unicode="&#x38e;" horiz-adv-x="471" d="M276 401q17 32 34.5 65.5t35.5 65.5q7 12 19.5 34.5t26.5 47.5t26.5 47.5t19.5 34.5h122q-11 -18 -31 -50t-44.5 -72t-51.5 -83.5t-51.5 -83.5t-44.5 -72.5t-31 -49.5l-56 -285h-110q2 12 6.5 34.5l10 50t11.5 58t11.5 58t9.5 50t7 34.5q-23 103 -47.5 205.5t-47.5 205.5 h116q2 -9 7.5 -36t11.5 -58t11 -57.5t7 -35.5q5 -24 9 -54.5t7 -53.5h6zM-125 549l118 184l91 -37l-150 -175z" />
<glyph unicode="&#x38f;" horiz-adv-x="514" d="M75 106q-18 16 -24 40t-6 48q1 18 3 39t7 44q8 34 15 71t15 79q6 33 14.5 65t20.5 64q26 66 78.5 106t139.5 40q47 0 81.5 -14.5t57.5 -39t34 -58t11 -72.5q0 -11 -1 -23.5t-3 -26.5q-7 -40 -15 -81.5t-16 -87.5q-4 -24 -10.5 -51.5t-16 -54t-24 -49t-33.5 -37.5v-2h59 q-5 -26 -10 -52.5t-10 -52.5h-192l23 113q23 6 38.5 21t25.5 35q12 30 19 57.5t14 61.5l33 173q3 14 4 24t1 22q0 35 -20 61t-66 26q-41 0 -66.5 -23.5t-37.5 -59.5q-5 -14 -10 -33.5t-10 -46.5q-3 -16 -8.5 -45t-11 -59t-10 -53.5t-5.5 -28.5q-4 -17 -6.5 -36t0 -37 t13.5 -32.5t34 -23.5l-23 -116h-190q5 26 9.5 52.5t9.5 52.5h64zM-77 549l118 184l91 -37l-150 -175z" />
<glyph unicode="&#x390;" horiz-adv-x="236" d="M162 -3q-8 -1 -17.5 -1h-15.5q-56 0 -76 21t-20 55q0 12 2 24.5t4 26.5l73 371h106l-67 -345q-3 -14 -3 -25q0 -13 6.5 -22.5t26.5 -13.5zM276 575l21 106h103l-21 -106h-103zM-8 575l21 106h103l-20 -106h-104zM107 567l111 188l94 -33l-146 -179z" />
<glyph unicode="&#x391;" horiz-adv-x="520" d="M355 0l-8 150h-192l-69 -150h-121l335 696h109l64 -696h-118zM334 391l-6 149h-4l-61 -147l-63 -141h141z" />
<glyph unicode="&#x392;" horiz-adv-x="518" d="M412 364q0 -1 -0.5 -1.5t-0.5 -2.5q39 -14 55.5 -48.5t16.5 -77.5q-2 -65 -24.5 -110t-59 -72.5t-83.5 -39.5t-98 -12h-197q6 29 16.5 84t24 122.5t28 141.5t27.5 141.5t23.5 122.5t16.5 84h197q84 0 129 -38t45 -114q0 -69 -28.5 -114.5t-87.5 -65.5zM195 311l-41 -206 h100q28 0 50 11.5t36.5 30t22 42.5t7.5 49q0 35 -20.5 54t-58.5 19h-96zM250 592l-36 -182h77q26 0 49 7.5t40 22t27 36t10 49.5q0 35 -22 51t-60 16h-85z" />
<glyph unicode="&#x393;" horiz-adv-x="456" d="M250 590q-1 -5 -6.5 -32t-13.5 -68t-17.5 -91.5t-20 -103t-20 -103.5t-17.5 -91.5t-13.5 -68l-6.5 -32.5h-113l135 696h379l-21 -106h-265z" />
<glyph unicode="&#x394;" horiz-adv-x="520" d="M-33 0q83 175 166 348t167 348h109l63 -696h-505zM323 532q-18 -39 -39 -88t-42 -96q-13 -29 -28.5 -64t-30.5 -69t-28.5 -64t-21.5 -48h216l-15 270q0 14 -1 35.5t-2 44.5t-2 44t-2 35h-4z" />
<glyph unicode="&#x395;" horiz-adv-x="467" d="M22 0l135 696h383l-21 -106h-269l-37 -186h232l-20 -104h-232l-37 -194h269l-20 -106h-383z" />
<glyph unicode="&#x396;" horiz-adv-x="429" d="M-15 0l20 102l346 490h-240l20 104h368l-19 -97l-346 -493h250l-20 -106h-379z" />
<glyph unicode="&#x397;" horiz-adv-x="543" d="M328 0l59 301h-194l-58 -301h-113l135 696h113l-57 -292h194l57 292h112l-135 -696h-113z" />
<glyph unicode="&#x398;" horiz-adv-x="516" d="M473 211q-20 -103 -74.5 -160t-152.5 -57q-63 0 -105 19.5t-65.5 52.5t-29.5 76t3 90l50 254q7 37 23 75t43.5 69t69 51t100.5 20q55 0 94.5 -19.5t62.5 -51.5t30.5 -72.5t-0.5 -82.5zM410 484q3 13 1 31.5t-11.5 35.5t-28.5 28.5t-50 11.5q-28 0 -47 -10.5t-31.5 -26 t-19.5 -33.5t-10 -34l-50 -263q-5 -26 -3 -48t12 -38.5t29 -25.5t48 -9q42 0 70 26.5t37 72.5zM219 401h149l-20 -101h-149z" />
<glyph unicode="&#x399;" horiz-adv-x="240" d="M22 0l136 696h113l-135 -696h-114z" />
<glyph unicode="&#x39a;" horiz-adv-x="528" d="M369 0l-92 314l-105 -117l-38 -197h-113l136 696h112l-57 -299q2 0 4 -1q31 37 60 72.5t61 70.5q12 13 32.5 37t41.5 49t38.5 45t23.5 26h130l-239 -283l124 -413h-119z" />
<glyph unicode="&#x39b;" horiz-adv-x="514" d="M354 0q-6 92 -10.5 183.5t-9.5 183.5l-9 173h-5q-14 -36 -30 -72.5t-32 -72.5q-41 -101 -85.5 -197.5t-89.5 -197.5h-119q84 175 166.5 348t167.5 348h108l64 -696h-116z" />
<glyph unicode="&#x39c;" horiz-adv-x="662" d="M453 0l79 406q-1 0 -2 0.5t-2 0.5q-13 -23 -25.5 -44.5t-26.5 -43.5q-29 -49 -58.5 -97.5t-60.5 -96.5h-80l-42 187l-19 95h-4l-79 -407h-113l135 696h107q13 -66 28 -131.5t28 -131.5l30 -138h4l98 168l141 233h110l-135 -696h-113z" />
<glyph unicode="&#x39d;" horiz-adv-x="572" d="M371 0q-20 59 -39.5 117t-39.5 117l-69 220h-3l-87 -454h-113l136 696h103l116 -364q9 -27 17 -52.5t13 -45.5h4l87 462h112l-135 -696h-102z" />
<glyph unicode="&#x39e;" horiz-adv-x="477" d="M118 590l21 106h390l-20 -106h-391zM102 300l20 104h310l-19 -104h-311zM3 0l21 108h392l-21 -108h-392z" />
<glyph unicode="&#x39f;" horiz-adv-x="516" d="M473 211q-20 -103 -74.5 -160t-152.5 -57q-63 0 -105 19.5t-65.5 52.5t-29.5 76t3 90l50 254q7 37 23 75t43.5 69t69 51t100.5 20q55 0 94.5 -19.5t62.5 -51.5t30.5 -72.5t-0.5 -82.5zM410 484q3 13 1 31.5t-11.5 35.5t-28.5 28.5t-50 11.5q-28 0 -47 -10.5t-31.5 -26 t-19.5 -33.5t-10 -34l-50 -263q-5 -26 -3 -48t12 -38.5t29 -25.5t48 -9q42 0 70 26.5t37 72.5z" />
<glyph unicode="&#x3a0;" horiz-adv-x="537" d="M322 0l114 591h-186l-115 -591h-113l135 696h412l-135 -696h-112z" />
<glyph unicode="&#x3a1;" horiz-adv-x="496" d="M359 696q84 0 131.5 -40.5t47.5 -122.5q0 -60 -17 -109.5t-48.5 -84t-77.5 -53.5t-103 -19h-105l-52 -267h-113l135 696h202zM250 590l-42 -216h94q54 0 88.5 35.5t34.5 100.5q0 80 -88 80h-87z" />
<glyph unicode="&#x3a3;" horiz-adv-x="424" d="M-15 0l20 103l172 255l-78 239l19 99h368l-20 -105h-239l79 -233l-172 -252h250l-21 -106h-378z" />
<glyph unicode="&#x3a4;" horiz-adv-x="426" d="M344 592l-116 -592h-113l115 592h-152l21 104h416l-20 -104h-151z" />
<glyph unicode="&#x3a5;" horiz-adv-x="471" d="M276 401q17 32 34.5 65.5t35.5 65.5q7 12 19.5 34.5t26.5 47.5t26.5 47.5t19.5 34.5h122q-11 -18 -31 -50t-44.5 -72t-51.5 -83.5t-51.5 -83.5t-44.5 -72.5t-31 -49.5l-56 -285h-110q2 12 6.5 34.5l10 50t11.5 58t11.5 58t9.5 50t7 34.5q-23 103 -47.5 205.5t-47.5 205.5 h116q2 -9 7.5 -36t11.5 -58t11 -57.5t7 -35.5q5 -24 9 -54.5t7 -53.5h6z" />
<glyph unicode="&#x3a6;" horiz-adv-x="648" d="M239 58q-10 2 -18 3.5t-16 4.5q-78 17 -111 67t-33 128q0 50 8.5 101t24.5 98q29 90 94 142.5t167 56.5l9 37h110l-7 -37q49 -3 83 -20t55 -44.5t30.5 -63.5t9.5 -77q0 -49 -7 -96.5t-21 -90.5q-14 -46 -36.5 -84t-55 -65.5t-76 -43t-99.5 -16.5l-11 -58h-111zM371 160 q43 4 72 25.5t49 59.5q17 32 28.5 80.5t13.5 105.5q3 25 -1.5 48t-15 40t-28 27t-41.5 11zM335 557q-37 -1 -65 -20.5t-48 -51.5q-12 -20 -21 -44.5t-15 -51.5t-9 -54t-4 -52q0 -50 18 -84.5t68 -38.5z" />
<glyph unicode="&#x3a7;" horiz-adv-x="490" d="M322 0q-16 62 -31.5 123t-32.5 123l-26 -35l-15 -22.5t-24.5 -37.5t-29.5 -45t-29.5 -45.5t-24.5 -38l-15 -22.5h-130q63 91 125.5 180t125.5 180q-26 85 -52 168t-52 168h124l57 -222h3l144 222h131q-59 -85 -117.5 -168t-118.5 -168q29 -91 57 -180t56 -180h-125z" />
<glyph unicode="&#x3a8;" horiz-adv-x="644" d="M619 351q-17 -92 -80 -149t-174 -62l-27 -140h-112l26 140q-47 5 -82.5 24.5t-58 50.5t-30 72t2.5 90l63 319h111l-64 -327q-10 -53 11 -84.5t68 -36.5l88 448h112l-87 -448q44 2 79 30t45 79l66 339h111l-68 -345v0z" />
<glyph unicode="&#x3a9;" horiz-adv-x="514" d="M75 106q-18 16 -24 40t-6 48q1 18 3 39t7 44q8 34 15 71t15 79q6 33 14.5 65t20.5 64q26 66 78.5 106t139.5 40q47 0 81.5 -14.5t57.5 -39t34 -58t11 -72.5q0 -11 -1 -23.5t-3 -26.5q-7 -40 -15 -81.5t-16 -87.5q-4 -24 -10.5 -51.5t-16 -54t-24 -49t-33.5 -37.5v-2h59 q-5 -26 -10 -52.5t-10 -52.5h-192l23 113q23 6 38.5 21t25.5 35q12 30 19 57.5t14 61.5l33 173q3 14 4 24t1 22q0 35 -20 61t-66 26q-41 0 -66.5 -23.5t-37.5 -59.5q-5 -14 -10 -33.5t-10 -46.5q-3 -16 -8.5 -45t-11 -59t-10 -53.5t-5.5 -28.5q-4 -17 -6.5 -36t0 -37 t13.5 -32.5t34 -23.5l-23 -116h-190q5 26 9.5 52.5t9.5 52.5h64z" />
<glyph unicode="&#x3aa;" horiz-adv-x="240" d="M22 0l136 696h113l-135 -696h-114zM260 742l21 108h106l-20 -108h-107zM79 742l20 108h108l-21 -108h-107z" />
<glyph unicode="&#x3ab;" horiz-adv-x="471" d="M276 401q17 32 34.5 65.5t35.5 65.5q7 12 19.5 34.5t26.5 47.5t26.5 47.5t19.5 34.5h122q-11 -18 -31 -50t-44.5 -72t-51.5 -83.5t-51.5 -83.5t-44.5 -72.5t-31 -49.5l-56 -285h-110q2 12 6.5 34.5l10 50t11.5 58t11.5 58t9.5 50t7 34.5q-23 103 -47.5 205.5t-47.5 205.5 h116q2 -9 7.5 -36t11.5 -58t11 -57.5t7 -35.5q5 -24 9 -54.5t7 -53.5h6zM376 742l21 108h106l-20 -108h-107zM195 742l20 108h108l-21 -108h-107z" />
<glyph unicode="&#x3ac;" horiz-adv-x="455" d="M251 0l9 42q-1 0 -2 0.5t-2 0.5q-43 -49 -104 -49q-34 0 -56.5 11t-36.5 30.5t-20 45.5t-6 57q0 32 4.5 67.5t11.5 64.5q11 49 26.5 91.5t39 73t55 48t75.5 17.5q28 0 52 -11t39 -36q1 0 1.5 0.5t1.5 0.5l9 40h108l-96 -494h-109zM202 98q26 0 44.5 18t27.5 42 q7 18 14 42.5t11.5 48.5t7.5 45t3 34q0 27 -12 46t-41 19q-21 0 -38 -10.5t-30 -33.5q-9 -17 -17 -43.5t-14 -56.5q-5 -23 -8.5 -44.5t-3.5 -39.5q0 -14 2.5 -26t8.5 -21t17 -14.5t28 -5.5zM227 571l118 184l91 -37l-150 -175z" />
<glyph unicode="&#x3ad;" horiz-adv-x="409" d="M140 141q0 -21 16.5 -33t41.5 -12q27 0 53 13.5t43 39.5q4 -2 16 -11t25 -19.5t25 -19.5t16 -11q-30 -42 -75 -68t-115 -26q-32 0 -61 7.5t-51 23.5t-34.5 39.5t-12.5 56.5q0 45 23 83t69 54v2q-26 10 -37 30t-11 44q0 38 15 69t41 52.5t60.5 33.5t73.5 12 q65 0 105 -31.5t54 -78.5l-94 -43q-6 23 -23.5 36.5t-42.5 13.5q-30 0 -54 -18t-24 -46q0 -23 15.5 -30.5t39.5 -7.5h57l-16 -86h-64q-29 0 -51.5 -18t-22.5 -51zM213 571l118 184l91 -37l-150 -175z" />
<glyph unicode="&#x3ae;" horiz-adv-x="459" d="M215 495l-9 -48h3q24 26 55 39.5t60 13.5q66 0 94.5 -39.5t17.5 -104.5q0 -2 -5.5 -32.5t-14.5 -77.5t-20 -104t-21.5 -110.5t-19 -97.5t-12.5 -65h-110q4 18 12 58.5t17.5 90.5t19.5 103.5t18.5 97.5t14 73t5.5 30q5 32 -6 52.5t-48 20.5q-33 0 -56 -23.5t-31 -59.5 l-60 -313h-109l97 496h108zM223 571l118 184l91 -37l-150 -175z" />
<glyph unicode="&#x3af;" horiz-adv-x="236" d="M162 -3q-8 -1 -17.5 -1h-15.5q-56 0 -76 21t-20 55q0 12 2 24.5t4 26.5l73 371h106l-67 -345q-3 -14 -3 -25q0 -13 6.5 -22.5t26.5 -13.5zM131 571l118 184l91 -37l-150 -175z" />
<glyph unicode="&#x3b0;" horiz-adv-x="456" d="M463 494l-62 -313q-18 -91 -66 -139t-136 -48q-44 0 -74 11.5t-49 31.5t-27 47t-8 57q0 13 1.5 25.5t3.5 26.5l58 301h110q-15 -72 -29.5 -143.5t-28.5 -143.5q-2 -12 -3.5 -23.5t-1.5 -22.5q0 -25 12.5 -44t43.5 -19q42 0 61 26.5t29 77.5l57 292h109zM217 567l111 188 l94 -33l-146 -179zM102 575l21 106h103l-20 -106h-104zM386 575l21 106h103l-21 -106h-103z" />
<glyph unicode="&#x3b1;" horiz-adv-x="455" d="M251 0l9 42q-1 0 -2 0.5t-2 0.5q-43 -49 -104 -49q-34 0 -56.5 11t-36.5 30.5t-20 45.5t-6 57q0 32 4.5 67.5t11.5 64.5q11 49 26.5 91.5t39 73t55 48t75.5 17.5q28 0 52 -11t39 -36q1 0 1.5 0.5t1.5 0.5l9 40h108l-96 -494h-109zM202 98q26 0 44.5 18t27.5 42 q7 18 14 42.5t11.5 48.5t7.5 45t3 34q0 27 -12 46t-41 19q-21 0 -38 -10.5t-30 -33.5q-9 -17 -17 -43.5t-14 -56.5q-5 -23 -8.5 -44.5t-3.5 -39.5q0 -14 2.5 -26t8.5 -21t17 -14.5t28 -5.5z" />
<glyph unicode="&#x3b2;" horiz-adv-x="460" d="M112 531q8 42 23.5 77.5t40 61t58.5 40t80 14.5q39 0 68 -11.5t47.5 -31.5t28 -47t9.5 -58q0 -60 -24.5 -102t-69.5 -61v-2q34 -12 47 -39.5t13 -64.5q0 -56 -15 -116q-10 -41 -26.5 -77t-40.5 -62.5t-57 -42t-75 -15.5q-27 0 -51 11.5t-38 37.5q-2 0 -2 -0.5t-2 -0.5 q-8 -43 -17.5 -88t-18.5 -90h-108zM152 177q-2 -12 -1 -26t6 -26t16.5 -20t31.5 -8q24 0 41.5 11.5t31 31t22 45t14.5 53.5q4 16 5.5 30t1.5 26q0 42 -22 57t-57 15h-13q5 21 8.5 42t7.5 42h18q44 0 69.5 30t25.5 81q0 26 -14.5 43.5t-40.5 17.5q-19 0 -33 -8t-24 -21 t-16 -29t-9 -32z" />
<glyph unicode="&#x3b3;" horiz-adv-x="408" d="M207 180q44 82 77 158t68 157h117q-29 -68 -56.5 -126.5t-56.5 -115.5t-61 -115t-70 -124l-42 -213h-107l38 196q-5 94 -13 180t-21 179q-4 28 -10 36t-27 9h-2v88q23 8 37.5 10t23.5 2q24 0 39 -8.5t24.5 -23.5t15 -36.5t8.5 -47.5q5 -42 8 -95t5 -110h5z" />
<glyph unicode="&#x3b4;" horiz-adv-x="443" d="M266 400q-23 -6 -39.5 -16.5t-28.5 -27t-21 -39t-17 -51.5q-7 -27 -11.5 -52t-4.5 -47q0 -13 3.5 -26t11 -23.5t19.5 -17t30 -6.5q20 0 35.5 13t28 33.5t21 45.5t14.5 48.5t8.5 43.5t2.5 30q0 32 -11 55.5t-41 36.5zM194 466q-46 40 -46 97q0 41 15 71.5t41 50.5t60.5 30 t72.5 10q25 0 58 -3.5t72 -17.5l-31 -93q-26 11 -48.5 14.5t-38.5 3.5q-15 0 -31.5 -3.5t-30 -10.5t-22.5 -19t-9 -28q0 -17 11.5 -31t28 -26.5t34.5 -24t32 -22.5q27 -20 46 -53t19 -85q0 -23 -3 -50.5t-8 -52.5q-13 -58 -34 -105t-52 -76q-51 -48 -129 -48 q-47 0 -78.5 12.5t-51.5 35t-28.5 52.5t-8.5 65q0 22 3.5 46.5t8.5 47.5q7 35 18.5 68.5t28.5 62t41.5 50t59.5 32.5z" />
<glyph unicode="&#x3b5;" horiz-adv-x="409" d="M140 141q0 -21 16.5 -33t41.5 -12q27 0 53 13.5t43 39.5q4 -2 16 -11t25 -19.5t25 -19.5t16 -11q-30 -42 -75 -68t-115 -26q-32 0 -61 7.5t-51 23.5t-34.5 39.5t-12.5 56.5q0 45 23 83t69 54v2q-26 10 -37 30t-11 44q0 38 15 69t41 52.5t60.5 33.5t73.5 12 q65 0 105 -31.5t54 -78.5l-94 -43q-6 23 -23.5 36.5t-42.5 13.5q-30 0 -54 -18t-24 -46q0 -23 15.5 -30.5t39.5 -7.5h57l-16 -86h-64q-29 0 -51.5 -18t-22.5 -51z" />
<glyph unicode="&#x3b6;" horiz-adv-x="387" d="M506 613q-87 -59 -152 -118t-108.5 -113.5t-65.5 -103t-22 -84.5q0 -23 10.5 -39.5t26.5 -29t35.5 -22.5t38.5 -19q46 -19 67 -43.5t21 -52.5q0 -20 -10 -43t-26.5 -48t-37 -49t-40.5 -45q-19 11 -37 26t-36 27q26 32 42 54t16 37q0 17 -20 29t-55 28q-53 23 -84.5 59 t-31.5 97q0 92 73.5 205.5t231.5 234.5l-192 1l19 100h354z" />
<glyph unicode="&#x3b7;" horiz-adv-x="459" d="M215 495l-9 -48h3q24 26 55 39.5t60 13.5q66 0 94.5 -39.5t17.5 -104.5q0 -2 -5.5 -32.5t-14.5 -77.5t-20 -104t-21.5 -110.5t-19 -97.5t-12.5 -65h-110q4 18 12 58.5t17.5 90.5t19.5 103.5t18.5 97.5t14 73t5.5 30q5 32 -6 52.5t-48 20.5q-33 0 -56 -23.5t-31 -59.5 l-60 -313h-109l97 496h108z" />
<glyph unicode="&#x3b8;" horiz-adv-x="441" d="M410 236q-7 -35 -14.5 -62t-18.5 -53q-28 -70 -75.5 -98.5t-113.5 -28.5q-74 0 -116.5 39.5t-42.5 102.5q0 24 4.5 54.5t10.5 62.5l43 216q11 55 26 106t47 86q26 29 61.5 45.5t89.5 16.5q42 0 71.5 -12t48 -33t27.5 -49.5t9 -61.5q0 -28 -5 -57t-10 -57zM140 158 q0 -12 3.5 -23.5t10.5 -20.5t18 -14.5t27 -5.5q22 0 37.5 9t26.5 24q15 22 23.5 56.5t16.5 69.5q4 19 7 37t8 37h-150q-5 -25 -9.5 -49t-9.5 -49q-4 -20 -6.5 -38t-2.5 -33zM346 468q6 27 9.5 60t-4.5 59q-11 34 -52 34q-20 0 -34.5 -8t-28.5 -26q-12 -16 -20.5 -40.5 t-15.5 -58.5q-2 -8 -3.5 -17t-3.5 -18l-9 -41h150z" />
<glyph unicode="&#x3b9;" horiz-adv-x="236" d="M162 -3q-8 -1 -17.5 -1h-15.5q-56 0 -76 21t-20 55q0 12 2 24.5t4 26.5l73 371h106l-67 -345q-3 -14 -3 -25q0 -13 6.5 -22.5t26.5 -13.5z" />
<glyph unicode="&#x3ba;" horiz-adv-x="455" d="M292 0q-19 54 -37 106.5t-36 106.5l-71 -73q-6 -35 -13 -70l-14 -70h-108l96 494h108l-36 -184h3l96 102l80 82h135l-191 -196q27 -75 54.5 -149t55.5 -149h-122z" />
<glyph unicode="&#x3bb;" horiz-adv-x="403" d="M383 83q-2 -22 -4 -42.5t-4 -41.5q-14 -2 -25 -3t-21 -1q-68 0 -81 58q-2 9 -3 18.5t-2 20.5l-8 101l-8 120h-4l-65 -139q-20 -44 -41.5 -87t-41.5 -87h-114l247 479l-4 99q-1 25 -11 38t-42 13h-13l9 93q17 4 34.5 5.5t29.5 1.5q51 0 72.5 -27.5t25.5 -81.5l39 -496 q2 -26 8.5 -33t26.5 -8z" />
<glyph unicode="&#x3bc;" horiz-adv-x="463" d="M219 496q-4 -19 -10 -49.5t-13 -66.5l-14 -72t-12.5 -66t-9 -49.5t-3.5 -20.5q-6 -33 6 -53t48 -20q32 0 55.5 23.5t30.5 60.5l61 313h109l-96 -496h-110l11 49h-3q-24 -27 -55.5 -40.5t-60.5 -13.5q-17 0 -30 3l-39 -196h-108l133 694h110z" />
<glyph unicode="&#x3bd;" horiz-adv-x="417" d="M455 494q-27 -70 -54.5 -133t-57.5 -123t-62.5 -118.5t-68.5 -119.5h-111l-54 494h115l12 -183q1 -14 2 -34t1.5 -43.5t0.5 -47.5v-45h4q44 84 81 170t72 183h120z" />
<glyph unicode="&#x3be;" horiz-adv-x="379" d="M314 722q61 0 101 -26t63 -75l-90 -52q-10 19 -31 32.5t-44 13.5q-42 0 -70.5 -28t-28.5 -87q0 -28 21 -47.5t62 -19.5h82l-18 -93h-87q-36 0 -61 -16.5t-40 -41t-22 -52t-7 -49.5q0 -30 15 -46t32 -26q30 -17 56.5 -29.5t47 -25.5t32.5 -28.5t12 -37.5q0 -21 -9 -42.5 t-22.5 -43.5t-31 -43.5t-33.5 -42.5l-40 22l-40 22q7 10 15.5 22.5t15.5 24.5t12 23.5t5 20.5q0 10 -5.5 17t-15 12t-23 10t-29.5 11q-54 21 -81.5 58.5t-27.5 103.5q0 38 8 73.5t24 65t40.5 51.5t58.5 34v1q-35 15 -47 44.5t-12 62.5q0 50 15 91.5t43 71.5t67.5 47t87.5 17 z" />
<glyph unicode="&#x3bf;" horiz-adv-x="444" d="M267 500q42 0 72.5 -13t50 -34.5t28.5 -50.5t9 -61q0 -30 -4.5 -64t-11.5 -63q-11 -51 -27.5 -91.5t-42 -69t-62 -44t-87.5 -15.5q-47 0 -77.5 13.5t-48 36.5t-24.5 53t-7 63q0 26 4.5 60.5t11.5 66.5q22 100 72.5 156.5t143.5 56.5zM258 401q-35 0 -58 -28t-40 -91 q-6 -24 -10.5 -54.5t-6.5 -53.5q0 -15 1 -29t7 -25t18 -18t34 -7q31 0 51 20.5t28 43.5q7 18 13.5 41t11 46.5t7 45t2.5 36.5q0 32 -14 52.5t-44 20.5z" />
<glyph unicode="&#x3c0;" horiz-adv-x="465" d="M261 0l79 407h-139l-79 -407h-109l97 496h357l-96 -496h-110z" />
<glyph unicode="&#x3c1;" horiz-adv-x="449" d="M53 260q6 30 14.5 61t22 59.5t32.5 52.5t46 40q42 27 104 27q44 0 75 -13t50.5 -35t28.5 -51t9 -60q0 -34 -6 -71t-13 -67q-11 -50 -27.5 -88.5t-40.5 -65t-56.5 -40t-75.5 -14.5q-26 0 -52 10.5t-41 31.5q-1 0 -1.5 -0.5t-1.5 -0.5q-11 -58 -22.5 -116.5t-23.5 -117.5 h-108zM264 401q-44 0 -70 -45q-9 -14 -16.5 -36t-13.5 -47t-10 -51t-5 -47q0 -15 1.5 -29.5t7.5 -25.5t17.5 -18t32.5 -7q16 0 29 5.5t22 13.5q19 17 29 46.5t20 67.5q7 26 11 56t4 47q0 29 -13.5 49.5t-45.5 20.5z" />
<glyph unicode="&#x3c2;" horiz-adv-x="402" d="M274 501q65 0 102.5 -29.5t48.5 -81.5q-24 -12 -49.5 -23t-48.5 -23q-6 29 -23 42t-36 13q-29 0 -50.5 -17.5t-35.5 -46t-21.5 -65t-7.5 -73.5q0 -20 6 -35t17.5 -27t27.5 -22.5t37 -21.5q45 -23 65.5 -42t20.5 -49q0 -18 -9 -39.5t-23 -44.5t-31.5 -46.5t-34.5 -44.5 q-19 11 -41.5 26t-41.5 26q23 33 35.5 55t12.5 36q0 17 -25 30q-71 28 -100.5 67.5t-29.5 101.5q0 73 15 134.5t44 106t73 69t103 24.5z" />
<glyph unicode="&#x3c3;" horiz-adv-x="455" d="M424 331q0 -29 -4.5 -61.5t-11.5 -61.5q-11 -50 -28 -89.5t-42.5 -67.5t-61 -42.5t-84.5 -14.5q-71 0 -112 36.5t-46 98.5q-2 29 0 60t7 60q9 54 26 99.5t42 76.5q26 33 64 51t86 18h235l-16 -87h-78q-1 -2 -1 -4q15 -14 20 -33t5 -39zM255 395q-34 0 -56 -25 q-23 -24 -40 -88q-7 -28 -12.5 -61.5t-5.5 -57.5q0 -27 12 -47.5t48 -20.5q17 0 29.5 6t23.5 17q12 12 23 37t19.5 54.5t13.5 60t5 55.5q0 28 -14.5 49t-45.5 21z" />
<glyph unicode="&#x3c4;" horiz-adv-x="304" d="M131 404h-83q1 7 3.5 19.5t5 26t5 26t4.5 19.5h283q-1 -7 -3.5 -19.5t-5 -26t-5 -26t-3.5 -19.5h-93l-48 -250q-5 -25 1 -39t35 -14h19l-19 -101q-7 -1 -23.5 -1h-23.5q-32 0 -54 10t-34.5 27t-16 39.5t1.5 48.5z" />
<glyph unicode="&#x3c5;" horiz-adv-x="456" d="M463 494l-62 -313q-18 -91 -66 -139t-136 -48q-44 0 -74 11.5t-49 31.5t-27 47t-8 57q0 13 1.5 25.5t3.5 26.5l58 301h110q-15 -72 -29.5 -143.5t-28.5 -143.5q-2 -12 -3.5 -23.5t-1.5 -22.5q0 -25 12.5 -44t43.5 -19q42 0 61 26.5t29 77.5l57 292h109z" />
<glyph unicode="&#x3c6;" horiz-adv-x="576" d="M393 500q45 0 76 -12t49.5 -33t27 -49t8.5 -59q0 -28 -3.5 -57.5t-7.5 -55.5q-9 -59 -27 -103t-47 -74t-71 -45.5t-100 -16.5q-10 -48 -19 -95t-18 -95h-107l36 189q-41 3 -70.5 16.5t-48 34.5t-27.5 47.5t-9 56.5q0 23 2 45.5t5 45.5q7 48 19 90t31.5 74.5t48 55 t69.5 33.5l24 -94q-35 -14 -52.5 -50t-28.5 -96q-3 -15 -6 -35.5t-3 -37.5q0 -16 2.5 -30.5t9.5 -26t20 -19t34 -10.5q20 103 39.5 203.5t39.5 202.5h104zM317 93q32 1 54.5 15t34.5 37q9 16 16 39t12 48.5t8 51t3 46.5q0 30 -16.5 48.5t-52.5 20.5z" />
<glyph unicode="&#x3c7;" horiz-adv-x="424" d="M256 0l-48 163h-1q-11 -15 -26 -36.5t-30.5 -45t-31 -45t-25.5 -36.5h-129l197 253q-10 22 -22.5 54.5t-25 66.5t-25 66t-22.5 55h124l45 -156h1l103 156h130q-48 -61 -95.5 -121.5t-95.5 -121.5q10 -23 23.5 -56.5t27 -69.5t27 -69.5t23.5 -56.5h-124z" />
<glyph unicode="&#x3c8;" horiz-adv-x="587" d="M160 -199l38 194q-46 1 -78 18.5t-50.5 45t-24 63.5t2.5 75l58 297h108q-14 -74 -28.5 -147.5t-28.5 -147.5q-2 -9 -3 -18t-1 -18q0 -32 18 -48.5t47 -19.5q20 103 39.5 204.5t39.5 204.5h107q-20 -103 -39.5 -204.5t-39.5 -204.5q16 1 32.5 6.5t30.5 17t24.5 28 t14.5 38.5q5 26 13 67.5t16.5 86.5t17 87t13.5 68h108q-14 -77 -29 -153t-30 -153q-19 -96 -76.5 -142t-153.5 -51l-38 -194h-108z" />
<glyph unicode="&#x3c9;" horiz-adv-x="653" d="M420 100q42 0 61 34.5t32 94.5q7 30 10.5 60t3.5 48q0 24 -11 41t-37 19l24 102q73 -8 102.5 -45.5t29.5 -97.5q0 -30 -3.5 -62.5t-8.5 -62.5q-9 -50 -23.5 -93t-38.5 -74.5t-60 -50t-88 -18.5q-35 0 -68 15.5t-45 48.5h-4q-26 -33 -58.5 -48.5t-67.5 -15.5 q-39 0 -65.5 11t-43 30t-24 44.5t-7.5 54.5q1 30 4.5 65t9.5 67q11 54 26 96t39 72t58.5 46.5t85.5 18.5l-8 -102q-20 -4 -35 -15t-26 -30.5t-19.5 -47t-15.5 -63.5q-4 -21 -6.5 -41.5t-2.5 -38.5q0 -27 9.5 -45.5t39.5 -18.5q19 0 33 8.5t23 22.5t15 32t10 38l29 147h106 l-29 -140q-3 -15 -5 -33t1 -34.5t14 -27.5t34 -11z" />
<glyph unicode="&#x3ca;" horiz-adv-x="236" d="M162 -3q-8 -1 -17.5 -1h-15.5q-56 0 -76 21t-20 55q0 12 2 24.5t4 26.5l73 371h106l-67 -345q-3 -14 -3 -25q0 -13 6.5 -22.5t26.5 -13.5zM222 575l21 108h105l-20 -108h-106zM42 575l21 108h105l-20 -108h-106z" />
<glyph unicode="&#x3cb;" horiz-adv-x="456" d="M463 494l-62 -313q-18 -91 -66 -139t-136 -48q-44 0 -74 11.5t-49 31.5t-27 47t-8 57q0 13 1.5 25.5t3.5 26.5l58 301h110q-15 -72 -29.5 -143.5t-28.5 -143.5q-2 -12 -3.5 -23.5t-1.5 -22.5q0 -25 12.5 -44t43.5 -19q42 0 61 26.5t29 77.5l57 292h109zM149 575l21 108 h105l-20 -108h-106zM329 575l21 108h105l-20 -108h-106z" />
<glyph unicode="&#x3cc;" horiz-adv-x="444" d="M267 500q42 0 72.5 -13t50 -34.5t28.5 -50.5t9 -61q0 -30 -4.5 -64t-11.5 -63q-11 -51 -27.5 -91.5t-42 -69t-62 -44t-87.5 -15.5q-47 0 -77.5 13.5t-48 36.5t-24.5 53t-7 63q0 26 4.5 60.5t11.5 66.5q22 100 72.5 156.5t143.5 56.5zM258 401q-35 0 -58 -28t-40 -91 q-6 -24 -10.5 -54.5t-6.5 -53.5q0 -15 1 -29t7 -25t18 -18t34 -7q31 0 51 20.5t28 43.5q7 18 13.5 41t11 46.5t7 45t2.5 36.5q0 32 -14 52.5t-44 20.5zM242 571l118 184l91 -37l-150 -175z" />
<glyph unicode="&#x3cd;" horiz-adv-x="456" d="M463 494l-62 -313q-18 -91 -66 -139t-136 -48q-44 0 -74 11.5t-49 31.5t-27 47t-8 57q0 13 1.5 25.5t3.5 26.5l58 301h110q-15 -72 -29.5 -143.5t-28.5 -143.5q-2 -12 -3.5 -23.5t-1.5 -22.5q0 -25 12.5 -44t43.5 -19q42 0 61 26.5t29 77.5l57 292h109zM233 571l118 184 l91 -37l-150 -175z" />
<glyph unicode="&#x3ce;" horiz-adv-x="653" d="M420 100q42 0 61 34.5t32 94.5q7 30 10.5 60t3.5 48q0 24 -11 41t-37 19l24 102q73 -8 102.5 -45.5t29.5 -97.5q0 -30 -3.5 -62.5t-8.5 -62.5q-9 -50 -23.5 -93t-38.5 -74.5t-60 -50t-88 -18.5q-35 0 -68 15.5t-45 48.5h-4q-26 -33 -58.5 -48.5t-67.5 -15.5 q-39 0 -65.5 11t-43 30t-24 44.5t-7.5 54.5q1 30 4.5 65t9.5 67q11 54 26 96t39 72t58.5 46.5t85.5 18.5l-8 -102q-20 -4 -35 -15t-26 -30.5t-19.5 -47t-15.5 -63.5q-4 -21 -6.5 -41.5t-2.5 -38.5q0 -27 9.5 -45.5t39.5 -18.5q19 0 33 8.5t23 22.5t15 32t10 38l29 147h106 l-29 -140q-3 -15 -5 -33t1 -34.5t14 -27.5t34 -11zM332 571l118 184l91 -37l-150 -175z" />
<glyph unicode="&#x401;" horiz-adv-x="467" d="M22 0l135 696h383l-21 -106h-269l-37 -186h232l-20 -104h-232l-37 -194h269l-20 -106h-383zM395 742l21 108h106l-20 -108h-107zM214 742l20 108h108l-21 -108h-107z" />
<glyph unicode="&#x402;" horiz-adv-x="604" d="M435 470q74 0 108 -42.5t31 -120.5q-7 -167 -67 -247t-188 -80h-12.5t-13.5 1l18 96q38 2 64 14.5t43 37t25.5 61.5t11.5 88q2 39 -14 65.5t-58 26.5q-35 0 -65.5 -24.5t-50.5 -66.5l-54 -279h-113l115 593h-145l19 102h451l-20 -102h-191l-36 -177h2q27 26 66 40t74 14z " />
<glyph unicode="&#x403;" horiz-adv-x="456" d="M250 590q-1 -5 -6.5 -32t-13.5 -68t-17.5 -91.5t-20 -103t-20 -103.5t-17.5 -91.5t-13.5 -68l-6.5 -32.5h-113l135 696h379l-21 -106h-265zM304 776l181 126l61 -75l-205 -102z" />
<glyph unicode="&#x404;" horiz-adv-x="486" d="M335 701q91 0 138.5 -45.5t52.5 -119.5q-28 -8 -55.5 -16t-55.5 -16q-1 38 -22 63.5t-60 25.5q-27 0 -46.5 -8.5t-33 -22.5t-21.5 -31.5t-13 -35.5q-12 -44 -21 -92h185l-19 -104h-186q-2 -15 -5 -30t-6 -29q-2 -12 -4 -25t-3 -24q-2 -16 1 -32t12 -29t25 -21t41 -8 q40 0 70 24t44 68l108 -35q-26 -77 -83 -120.5t-147 -43.5q-95 0 -141 47.5t-46 122.5q0 13 2 29.5t5 35.5l9 47q9 46 18.5 93t17.5 93q9 47 25 90.5t44 76.5t69.5 52.5t100.5 19.5z" />
<glyph unicode="&#x405;" horiz-adv-x="498" d="M116 181q17 -35 45.5 -56t73.5 -21q29 0 50.5 9t35.5 24t21 34.5t7 39.5q0 38 -25 57t-71 33q-80 26 -117 64.5t-37 101.5q0 53 16.5 96t47 74t73.5 47.5t96 16.5q76 0 123 -31.5t67 -79.5l-97 -67q-38 66 -108 66q-44 0 -70 -29t-26 -68q0 -21 8.5 -34.5t24.5 -23.5 t38 -18t48 -17q75 -26 105 -66t30 -100q0 -54 -17 -98t-49.5 -75.5t-78.5 -48.5t-103 -17q-86 0 -137 35t-74 89z" />
<glyph unicode="&#x406;" horiz-adv-x="240" d="M22 0l136 696h113l-135 -696h-114z" />
<glyph unicode="&#x407;" horiz-adv-x="240" d="M22 0l136 696h113l-135 -696h-114zM263 754l21 108h105l-20 -108h-106zM83 754l21 108h105l-20 -108h-106z" />
<glyph unicode="&#x408;" horiz-adv-x="416" d="M351 190q-20 -102 -72 -148.5t-143 -46.5q-51 0 -92.5 20.5t-66.5 62.5l87 66q12 -20 31.5 -32.5t42.5 -12.5q82 0 101 95l98 502h113l-99 -506v0z" />
<glyph unicode="&#x409;" horiz-adv-x="779" d="M292 591l-49 -253q-16 -80 -36 -141.5t-49 -105t-68.5 -70.5t-93.5 -37l-21 90q34 12 60 32.5t44.5 50.5t32 71t24.5 94l73 374h340l-54 -276h89q87 0 134.5 -44t47.5 -119q0 -58 -17.5 -105.5t-49 -81t-76.5 -52t-99 -18.5h-223l114 591h-123zM652 239q0 40 -23.5 58 t-62.5 18h-92l-40 -209h96q27 0 49.5 10t38.5 28t25 42t9 53z" />
<glyph unicode="&#x40a;" horiz-adv-x="772" d="M186 310l-59 -310h-114l135 696h114l-55 -281h169l55 281h113l-55 -281h92q87 0 133 -44t46 -119q0 -58 -17 -104.5t-48.5 -79.5t-75.5 -50.5t-99 -17.5h-224l59 310h-169zM646 234q0 39 -23.5 57t-62.5 18h-92l-39 -203h96q55 0 88 35.5t33 92.5z" />
<glyph unicode="&#x40b;" horiz-adv-x="614" d="M446 471q78 0 111.5 -44t19.5 -115l-60 -312h-115l55 280q3 17 2.5 33t-7.5 28t-21.5 19.5t-39.5 7.5q-35 0 -66.5 -23t-50.5 -63l-56 -282h-113q4 23 13 70t20.5 105t23.5 121.5t23.5 121.5t20.5 104.5t14 70.5h-146l19 102h456q-2 -8 -4.5 -22t-5.5 -29t-6 -29t-4 -22 h-196l-34 -177h2q15 14 33.5 24.5t38 17t38.5 10t35 3.5z" />
<glyph unicode="&#x40c;" horiz-adv-x="515" d="M20 0l135 696h111l-55 -289h48q16 0 32.5 4t33 15.5t33 33.5t33.5 58l81 176h114l-92 -202q-23 -45 -48.5 -79t-66.5 -50q38 -14 53.5 -47.5t18.5 -84.5l11 -231h-109l-9 202q-1 31 -8.5 51.5t-19.5 32t-28.5 16t-34.5 4.5h-62q-3 -12 -7.5 -36t-10 -54t-12 -63t-12 -63 t-10.5 -54t-7 -36h-112zM311 776l181 126l61 -75l-205 -102z" />
<glyph unicode="&#x40e;" horiz-adv-x="479" d="M258 311q1 0 2 0.5t2 0.5q20 39 38.5 78t37.5 78q26 58 53.5 114t53.5 113h116q-71 -138 -139.5 -275t-140.5 -274q-26 -49 -49 -78.5t-46.5 -46t-47 -22t-49.5 -5.5h-56q4 23 8.5 46.5t9.5 47.5h26q34 0 56.5 17.5t48.5 64.5q-20 132 -39.5 262.5t-39.5 262.5h113 q1 -12 4.5 -42t8 -69t9 -82.5t8.5 -82t7.5 -68t4.5 -40.5zM337 707q-40 0 -66 14t-41 35.5t-19 48t-1 51.5h85q-2 -11 0.5 -23t8.5 -22t17 -17t26 -7q16 0 29 6.5t23 17t16.5 22.5t8.5 23h89q-6 -26 -19 -52t-34.5 -48t-52 -35.5t-70.5 -13.5z" />
<glyph unicode="&#x40f;" horiz-adv-x="541" d="M568 696l-134 -696h-154l-31 -157h-103l31 157h-155l134 696h113l-113 -588h186l113 588h113z" />
<glyph unicode="&#x410;" horiz-adv-x="520" d="M355 0l-8 150h-192l-69 -150h-121l335 696h109l64 -696h-118zM334 391l-6 149h-4l-61 -147l-63 -141h141z" />
<glyph unicode="&#x411;" horiz-adv-x="504" d="M476 590h-230l-33 -170h95q83 0 129 -42.5t46 -116.5q0 -57 -17 -104.5t-48.5 -82.5t-75.5 -54.5t-99 -19.5h-226l135 696h345zM367 240q0 38 -23 56.5t-62 18.5h-90l-41 -209h96q54 0 86.5 34.5t33.5 99.5z" />
<glyph unicode="&#x412;" horiz-adv-x="518" d="M412 364q0 -1 -0.5 -1.5t-0.5 -2.5q39 -14 55.5 -48.5t16.5 -77.5q-2 -65 -24.5 -110t-59 -72.5t-83.5 -39.5t-98 -12h-197q6 29 16.5 84t24 122.5t28 141.5t27.5 141.5t23.5 122.5t16.5 84h197q84 0 129 -38t45 -114q0 -69 -28.5 -114.5t-87.5 -65.5zM195 311l-41 -206 h100q28 0 50 11.5t36.5 30t22 42.5t7.5 49q0 35 -20.5 54t-58.5 19h-96zM250 592l-36 -182h77q26 0 49 7.5t40 22t27 36t10 49.5q0 35 -22 51t-60 16h-85z" />
<glyph unicode="&#x413;" horiz-adv-x="456" d="M250 590q-1 -5 -6.5 -32t-13.5 -68t-17.5 -91.5t-20 -103t-20 -103.5t-17.5 -91.5t-13.5 -68l-6.5 -32.5h-113l135 696h379l-21 -106h-265z" />
<glyph unicode="&#x414;" horiz-adv-x="601" d="M69 0q-7 -36 -13.5 -71.5t-14.5 -71.5h-95q11 60 22 118t22 118l50 11q19 14 34 31t27 40.5t22 53.5t20 70l93 397h381q-29 -149 -58 -297t-58 -297h55l-48 -245h-97l29 143h-371zM391 102q23 124 47 245t48 245h-173l-71 -303q-14 -61 -32 -108t-44 -79h225z" />
<glyph unicode="&#x415;" horiz-adv-x="467" d="M22 0l135 696h383l-21 -106h-269l-37 -186h232l-20 -104h-232l-37 -194h269l-20 -106h-383z" />
<glyph unicode="&#x416;" horiz-adv-x="789" d="M299 0q14 76 28.5 151t29.5 151h-41q-21 0 -40.5 -3.5t-36.5 -14.5t-33 -31.5t-31 -54.5q-23 -50 -43.5 -99t-41.5 -99h-113l98 227q22 51 51 84.5t71 47.5q-32 14 -46.5 48.5t-17.5 80.5q-4 52 -7 103.5t-6 102.5h106l14 -192q2 -32 10 -51.5t20.5 -30t27.5 -14t31 -3.5 h47q14 73 28 146.5t28 146.5h112q-14 -73 -28 -146.5t-28 -146.5h41q48 0 77.5 25t51.5 74l86 192h110l-80 -185q-25 -57 -56 -95.5t-69 -54.5q37 -14 52.5 -47.5t18.5 -84.5q3 -57 6 -113.5t7 -113.5h-112l-10 198q-2 31 -9 51t-18.5 32t-27 16.5t-33.5 4.5h-54 q-15 -76 -29.5 -151t-28.5 -151h-112z" />
<glyph unicode="&#x417;" horiz-adv-x="464" d="M297 701q95 0 137.5 -44.5t42.5 -122.5q0 -23 -5 -47.5t-17.5 -47.5t-33 -42.5t-51.5 -32.5q34 -18 48 -48.5t14 -64.5q0 -55 -16.5 -101.5t-47.5 -81t-75.5 -54t-99.5 -19.5q-86 0 -136 39t-55 117q27 8 53.5 16.5t53.5 17.5q6 -41 30 -62.5t63 -21.5q21 0 41 9.5 t35.5 28t25 45t9.5 59.5q0 35 -21 52.5t-51 17.5h-56q4 24 8.5 48t9.5 48h54q48 0 76 33t28 84q0 33 -23.5 49.5t-53.5 16.5q-37 0 -66 -20.5t-47 -57.5q-24 11 -47.5 23t-46.5 23q34 73 91 107t129 34z" />
<glyph unicode="&#x418;" horiz-adv-x="571" d="M441 449q-15 -23 -31 -45.5t-33 -45.5l-250 -358h-106l135 696h112l-89 -456q1 0 1.5 -0.5t1.5 -0.5q18 26 37 53.5t39 56.5q28 42 59 87.5t62.5 91t61.5 88.5t57 80h104q-33 -175 -66.5 -348t-67.5 -348h-112q22 112 43.5 224t44.5 225h-3z" />
<glyph unicode="&#x419;" horiz-adv-x="571" d="M441 449q-15 -23 -31 -45.5t-33 -45.5l-250 -358h-106l135 696h112l-89 -456q1 0 1.5 -0.5t1.5 -0.5q18 26 37 53.5t39 56.5q28 42 59 87.5t62.5 91t61.5 88.5t57 80h104q-33 -175 -66.5 -348t-67.5 -348h-112q22 112 43.5 224t44.5 225h-3zM388 739q-40 0 -66 14 t-41 35.5t-19 48t-1 51.5h85q-2 -11 0.5 -23t8.5 -22t17 -17t26 -7q16 0 29 6.5t23 17t16.5 22.5t8.5 23h89q-6 -26 -19 -52t-34.5 -48t-52 -35.5t-70.5 -13.5z" />
<glyph unicode="&#x41a;" horiz-adv-x="515" d="M20 0l135 696h111l-55 -289h48q16 0 32.5 4t33 15.5t33 33.5t33.5 58l81 176h114l-92 -202q-23 -45 -48.5 -79t-66.5 -50q38 -14 53.5 -47.5t18.5 -84.5l11 -231h-109l-9 202q-1 31 -8.5 51.5t-19.5 32t-28.5 16t-34.5 4.5h-62q-3 -12 -7.5 -36t-10 -54t-12 -63t-12 -63 t-10.5 -54t-7 -36h-112z" />
<glyph unicode="&#x41b;" horiz-adv-x="546" d="M239 332q-17 -86 -37 -146.5t-48 -101t-64.5 -64t-86.5 -35.5l-28 87q33 13 58 31.5t43.5 46.5t32 68t24.5 98l74 380h369l-135 -696h-111l114 590h-155z" />
<glyph unicode="&#x41c;" horiz-adv-x="662" d="M453 0l79 406q-1 0 -2 0.5t-2 0.5q-13 -23 -25.5 -44.5t-26.5 -43.5q-29 -49 -58.5 -97.5t-60.5 -96.5h-80l-42 187l-19 95h-4l-79 -407h-113l135 696h107q13 -66 28 -131.5t28 -131.5l30 -138h4l98 168l141 233h110l-135 -696h-113z" />
<glyph unicode="&#x41d;" horiz-adv-x="543" d="M328 0l59 301h-194l-58 -301h-113l135 696h113l-57 -292h194l57 292h112l-135 -696h-113z" />
<glyph unicode="&#x41e;" horiz-adv-x="516" d="M473 211q-20 -103 -74.5 -160t-152.5 -57q-63 0 -105 19.5t-65.5 52.5t-29.5 76t3 90l50 254q7 37 23 75t43.5 69t69 51t100.5 20q55 0 94.5 -19.5t62.5 -51.5t30.5 -72.5t-0.5 -82.5zM410 484q3 13 1 31.5t-11.5 35.5t-28.5 28.5t-50 11.5q-28 0 -47 -10.5t-31.5 -26 t-19.5 -33.5t-10 -34l-50 -263q-5 -26 -3 -48t12 -38.5t29 -25.5t48 -9q42 0 70 26.5t37 72.5z" />
<glyph unicode="&#x41f;" horiz-adv-x="537" d="M322 0l114 591h-186l-115 -591h-113l135 696h412l-135 -696h-112z" />
<glyph unicode="&#x420;" horiz-adv-x="496" d="M359 696q84 0 131.5 -40.5t47.5 -122.5q0 -60 -17 -109.5t-48.5 -84t-77.5 -53.5t-103 -19h-105l-52 -267h-113l135 696h202zM250 590l-42 -216h94q54 0 88.5 35.5t34.5 100.5q0 80 -88 80h-87z" />
<glyph unicode="&#x421;" horiz-adv-x="492" d="M336 701q89 0 137 -46.5t53 -118.5q-28 -8 -55.5 -16t-55.5 -16q-2 37 -23 63t-61 26q-32 0 -53 -12.5t-34.5 -33t-21.5 -46t-14 -51.5q-12 -52 -21 -105t-20 -106q-3 -17 -5 -32t-2 -31q0 -32 16 -53.5t63 -21.5q40 0 70 23.5t44 67.5q27 -8 54.5 -16.5t54.5 -17.5 q-24 -73 -80.5 -118.5t-146.5 -45.5q-51 0 -87 13.5t-58.5 36.5t-33 55t-10.5 70q0 16 2 33.5t5 36.5q2 12 4 23.5t4 22.5q8 38 16 78t15 78q10 49 26 96t43.5 83.5t70 58.5t104.5 22z" />
<glyph unicode="&#x422;" horiz-adv-x="426" d="M344 592l-116 -592h-113l115 592h-152l21 104h416l-20 -104h-151z" />
<glyph unicode="&#x423;" horiz-adv-x="479" d="M258 311q1 0 2 0.5t2 0.5q20 39 38.5 78t37.5 78q26 58 53.5 114t53.5 113h116q-71 -138 -139.5 -275t-140.5 -274q-26 -49 -49 -78.5t-46.5 -46t-47 -22t-49.5 -5.5h-56q4 23 8.5 46.5t9.5 47.5h26q34 0 56.5 17.5t48.5 64.5q-20 132 -39.5 262.5t-39.5 262.5h113 q1 -12 4.5 -42t8 -69t9 -82.5t8.5 -82t7.5 -68t4.5 -40.5z" />
<glyph unicode="&#x424;" horiz-adv-x="648" d="M239 58q-10 2 -18 3.5t-16 4.5q-78 17 -111 67t-33 128q0 50 8.5 101t24.5 98q29 90 94 142.5t167 56.5l9 37h110l-7 -37q49 -3 83 -20t55 -44.5t30.5 -63.5t9.5 -77q0 -49 -7 -96.5t-21 -90.5q-14 -46 -36.5 -84t-55 -65.5t-76 -43t-99.5 -16.5l-11 -58h-111zM371 160 q43 4 72 25.5t49 59.5q17 32 28.5 80.5t13.5 105.5q3 25 -1.5 48t-15 40t-28 27t-41.5 11zM335 557q-37 -1 -65 -20.5t-48 -51.5q-12 -20 -21 -44.5t-15 -51.5t-9 -54t-4 -52q0 -50 18 -84.5t68 -38.5z" />
<glyph unicode="&#x425;" horiz-adv-x="490" d="M322 0q-16 62 -31.5 123t-32.5 123l-26 -35l-15 -22.5t-24.5 -37.5t-29.5 -45t-29.5 -45.5t-24.5 -38l-15 -22.5h-130q63 91 125.5 180t125.5 180q-26 85 -52 168t-52 168h124l57 -222h3l144 222h131q-59 -85 -117.5 -168t-118.5 -168q29 -91 57 -180t56 -180h-125z" />
<glyph unicode="&#x426;" horiz-adv-x="559" d="M568 696l-114 -591h65l-47 -249h-98l28 144h-380l133 696h114l-114 -590h186q5 23 14 69.5t20 104.5t23.5 121t23.5 121t19.5 104t13.5 70h113z" />
<glyph unicode="&#x427;" horiz-adv-x="513" d="M247 697l-41 -217q-5 -26 -5.5 -47.5t7 -37t23.5 -24t44 -8.5q23 0 51 7.5t51 20.5q3 13 7.5 37t10.5 53.5t12.5 62t12 62t10 54t7.5 37.5h112l-135 -696h-112q2 12 6.5 35t10 51t11.5 58.5t11.5 58.5t9.5 50.5t7 35.5q-31 -14 -64 -21t-59 -7q-92 0 -127 51t-17 143 l45 241h111z" />
<glyph unicode="&#x428;" horiz-adv-x="767" d="M664 0h-642l135 696h111l-114 -589h154l113 589h112l-114 -589h154l115 589h111z" />
<glyph unicode="&#x429;" horiz-adv-x="789" d="M632 0h-612l133 696h112l-114 -590h155l114 590h112l-114 -590h156l114 590h112q-29 -149 -57.5 -295.5t-57.5 -295.5h63l-47 -248h-97z" />
<glyph unicode="&#x42a;" horiz-adv-x="616" d="M602 257q0 -58 -17 -105.5t-48.5 -81t-76 -52t-99.5 -18.5h-224l114 590h-171l20 106h285l-53 -276h89q87 0 134 -44t47 -119zM488 239q0 40 -23 58t-62 18h-92l-41 -209h97q27 0 49.5 10t38.5 28t24.5 42t8.5 53z" />
<glyph unicode="&#x42b;" horiz-adv-x="707" d="M487 257q0 -63 -19 -111.5t-53.5 -80.5t-81.5 -48.5t-104 -16.5h-207l135 696h113l-53 -276h89q87 0 134 -44t47 -119zM609 0h-113l135 696h113zM371 233q0 82 -84 82h-91l-41 -209h96q53 0 86.5 33.5t33.5 93.5z" />
<glyph unicode="&#x42c;" horiz-adv-x="491" d="M480 257q0 -63 -19 -111.5t-52 -80.5t-78.5 -48.5t-99.5 -16.5h-216q1 3 6.5 33.5t15 78t21 108t24 124t24 124.5t21 110t16 81t7.5 37h113q-4 -18 -11.5 -56.5t-16 -81.5t-16 -81.5t-10.5 -56.5h89q88 0 135 -44t47 -119zM365 233q0 82 -85 82h-91l-41 -209h95 q53 0 87.5 33.5t34.5 93.5z" />
<glyph unicode="&#x42d;" horiz-adv-x="475" d="M177 405h185l9 48q3 15 5 30.5t2 29.5q0 33 -20 57t-66 24q-35 0 -62 -21t-41 -60l-105 37q27 72 82.5 112t140.5 40q47 0 82 -13t58 -36t34.5 -54.5t11.5 -68.5q0 -15 -4.5 -47.5t-10.5 -63.5l-35 -184q-9 -48 -25.5 -91.5t-45 -76.5t-70.5 -52.5t-102 -19.5 q-88 0 -135 43.5t-52 117.5l111 31q2 -37 22.5 -60.5t58.5 -23.5q25 0 44.5 8t33 21.5t22.5 30.5t14 36q7 25 12.5 50.5t10.5 51.5h-186z" />
<glyph unicode="&#x42e;" horiz-adv-x="702" d="M525 701q88 0 135 -43.5t50 -114.5q0 -28 -4 -59t-10 -60q-3 -16 -8 -42t-10 -53.5t-10 -54t-9 -42.5q-12 -53 -28.5 -97t-42.5 -75.5t-65.5 -48.5t-96.5 -17q-92 0 -138.5 46.5t-46.5 120.5q0 11 1 22.5t3 22.5q4 24 8 46.5t9 48.5h-74l-58 -301h-114l135 696h114 q-15 -74 -29 -146.5t-29 -145.5h75q5 23 9.5 45.5t10.5 45.5q11 43 27.5 80.5t42.5 65.5t63.5 44t89.5 16zM543 214q13 65 27.5 132t24.5 130q5 22 5 40q0 34 -20 56t-62 22q-27 0 -44.5 -9t-29.5 -23t-19 -32t-12 -36q-9 -36 -15 -67q-3 -16 -8 -41.5t-10.5 -53.5 t-10 -54.5t-7.5 -43.5q-3 -19 -5.5 -32.5t-2.5 -28.5q0 -32 18.5 -53t61.5 -21q49 0 73.5 33t35.5 82z" />
<glyph unicode="&#x42f;" horiz-adv-x="526" d="M560 696l-133 -696h-113l58 297h-62q-16 0 -33 -5t-33 -17t-31 -33t-27 -53l-70 -189h-119l76 211q16 40 38.5 73t63.5 45q-36 18 -54.5 53t-18.5 80q0 60 19.5 104t51.5 73t74 43t88 14h225zM216 475q0 -42 24.5 -59.5t64.5 -17.5h86l38 193h-96q-52 0 -84.5 -29.5 t-32.5 -86.5z" />
<glyph unicode="&#x430;" horiz-adv-x="455" d="M251 0l9 42q-1 0 -2 0.5t-2 0.5q-43 -49 -104 -49q-34 0 -56.5 11t-36.5 30.5t-20 45.5t-6 57q0 32 4.5 67.5t11.5 64.5q11 49 26.5 91.5t39 73t55 48t75.5 17.5q28 0 52 -11t39 -36q1 0 1.5 0.5t1.5 0.5l9 40h108l-96 -494h-109zM202 98q26 0 44.5 18t27.5 42 q7 18 14 42.5t11.5 48.5t7.5 45t3 34q0 27 -12 46t-41 19q-21 0 -38 -10.5t-30 -33.5q-9 -17 -17 -43.5t-14 -56.5q-5 -23 -8.5 -44.5t-3.5 -39.5q0 -14 2.5 -26t8.5 -21t17 -14.5t28 -5.5z" />
<glyph unicode="&#x431;" horiz-adv-x="446" d="M292 473q35 0 59.5 -12t40 -31.5t22.5 -44.5t7 -50q1 -27 -3 -58t-10 -60q-12 -53 -29 -94.5t-43 -70t-62.5 -44t-86.5 -15.5q-43 0 -73 12t-48.5 33.5t-27 51t-8.5 64.5q0 20 6 75t20 125q10 51 23.5 104.5t32.5 101.5q20 51 47.5 81.5t66 47.5t89 24t116.5 12l7 -92 q-47 -5 -83.5 -9.5t-64.5 -15t-49 -31t-36 -57.5q-14 -34 -24 -82l2 -3q25 23 55.5 30.5t53.5 7.5zM254 376q-18 0 -32.5 -7.5t-26.5 -21.5q-9 -11 -17.5 -28t-15.5 -39q-8 -24 -13 -53t-7 -49q-2 -35 11 -59.5t48 -24.5q33 0 54 24q9 10 18 28.5t16 41t12 48t7 49.5 q3 16 2 32t-7.5 29t-18.5 21.5t-30 8.5z" />
<glyph unicode="&#x432;" horiz-adv-x="446" d="M202 94q28 0 47.5 9.5t31 23t16.5 28t5 25.5q0 25 -18.5 37t-52.5 12h-24q5 18 8.5 39t8.5 39h22q29 0 49 13.5t20 35.5q0 19 -14.5 33.5t-45.5 14.5q-19 0 -33.5 -7t-25 -19t-17.5 -27t-11 -31l-27 -122q-5 -23 -5 -43q0 -26 15.5 -43.5t50.5 -17.5zM261 501 q47 0 78 -11t49.5 -28t26 -37.5t7.5 -40.5q0 -32 -16.5 -64t-54.5 -44v-1q35 -12 49.5 -39t14.5 -56t-12.5 -62t-39.5 -60.5t-69.5 -45.5t-102.5 -18q-75 0 -119 36t-44 105q0 18 2 35.5t6 34.5l27 120q7 33 21.5 64.5t38.5 56.5t57.5 40t80.5 15z" />
<glyph unicode="&#x433;" horiz-adv-x="418" d="M258 502q32 0 60 -7.5t48.5 -23t32.5 -38.5t13 -54q0 -38 -13.5 -65.5t-38.5 -48t-59 -35.5t-75 -26q-17 -5 -33.5 -9.5t-29.5 -12t-20.5 -19.5t-7.5 -30q0 -21 17 -30.5t44 -9.5t58 14t49 37l75 -53q-33 -48 -81.5 -72.5t-117.5 -25.5q-69 0 -113 30.5t-44 93.5 q0 46 16 76.5t42.5 51t61 33.5t72.5 23q48 11 67 25t19 37q0 20 -15 29t-37 9q-32 0 -59.5 -14t-47.5 -37l-69 59q32 44 77.5 68.5t108.5 24.5z" />
<glyph unicode="&#x434;" horiz-adv-x="452" d="M248 377q-36 0 -60 -32q-9 -12 -17 -32t-15 -45t-11 -51t-4 -50q0 -14 2.5 -27.5t9 -23.5t18 -16t29.5 -6q19 0 32 8t24 22t21 38t17.5 50.5t12 52t4.5 42.5q0 29 -13.5 49.5t-49.5 20.5zM237 478q23 0 53 -9.5t49 -36.5l3 1q6 30 6 53t0 22q0 25 -5 45t-17 34.5 t-31.5 22.5t-49.5 8q-32 0 -71 -11q-3 23 -7 45t-7 45q58 16 109 16q49 0 83 -14t55.5 -40t31.5 -63t10 -83q0 -47 -8 -121.5t-29 -162.5q-13 -52 -31 -95t-44 -74.5t-61 -49t-81 -17.5t-77.5 13.5t-50.5 35t-27 49t-8 55.5q0 39 6.5 80t17 78t24.5 66.5t29 46.5 q23 29 54 45t74 16z" />
<glyph unicode="&#x435;" horiz-adv-x="436" d="M256 401q-38 0 -61.5 -30.5t-34.5 -81.5q8 -2 18.5 -1.5t18.5 0.5q63 1 88 21t25 49q0 19 -14 31t-40 12zM185 -5q-81 0 -117.5 45t-36.5 120q0 54 11 114.5t37.5 111t71 83.5t111.5 33q79 0 119 -36t40 -91q0 -45 -17 -78t-48.5 -55t-75 -32.5t-95.5 -10.5h-20.5 t-21.5 1q-3 -20 -3 -38q0 -28 14 -46.5t44 -18.5q23 0 48.5 12.5t44.5 37.5l86 -51q-33 -50 -82 -75.5t-110 -25.5z" />
<glyph unicode="&#x436;" horiz-adv-x="880" d="M343 302q2 0 4 -2q30 46 55 94t51 99h85l-57 -296q1 0 2 -0.5t2 -0.5q12 25 24.5 47t24.5 45q25 46 47.5 84.5t48 67t57 44.5t75.5 16q51 0 85 -23t45 -68l-79 -47q-8 21 -25 31t-34 10q-21 0 -40.5 -16t-35 -46.5t-25 -75t-10.5 -102.5q0 -32 11 -50t40 -18q18 0 39.5 9 t36.5 33q20 -12 37.5 -24t36.5 -24q-23 -43 -62.5 -68.5t-97.5 -25.5q-77 0 -109.5 40.5t-32.5 103.5q0 5 0.5 13.5t3.5 29.5q-2 0 -2.5 0.5t-1.5 0.5q-28 -48 -50.5 -90.5t-47.5 -92.5h-91l59 291q-1 1 -3 1q-14 -29 -26.5 -52t-25.5 -46t-29 -48t-38 -58 q-29 -43 -65.5 -68t-96.5 -25q-54 0 -86.5 23t-44.5 67l80 49q7 -21 22.5 -31.5t33.5 -10.5q22 0 42 16t35.5 47t25 75t9.5 101q0 30 -12.5 49t-37.5 19q-18 0 -36 -8.5t-32 -28.5l-66 54q23 39 60.5 61.5t86.5 22.5q71 0 105.5 -40t34.5 -108q0 -8 -1.5 -22t-3.5 -28z" />
<glyph unicode="&#x437;" horiz-adv-x="405" d="M309 255q26 -12 36.5 -32.5t10.5 -44.5q0 -42 -15.5 -76t-42.5 -57.5t-63 -36.5t-76 -13q-124 0 -158 102l91 45q8 -26 23 -39t42 -13q32 0 56 19.5t24 57.5q0 26 -14 36t-40 10h-43l17 82h48q32 0 51 17.5t19 46.5q0 20 -15.5 32.5t-41.5 12.5q-50 0 -82 -49l-79 50 q31 49 76.5 72t105.5 23q66 0 108 -32.5t42 -90.5q0 -33 -18 -67.5t-62 -53.5v-1v0z" />
<glyph unicode="&#x438;" horiz-adv-x="461" d="M216 496q-4 -19 -10 -49.5t-13 -66.5l-14 -72t-12.5 -66t-9 -49.5t-3.5 -20.5q-6 -33 6 -53t48 -20q32 0 55.5 23.5t30.5 60.5l61 313h109l-96 -496h-110l11 49h-3q-24 -27 -55.5 -40.5t-60.5 -13.5q-66 0 -94.5 39.5t-17.5 103.5q0 2 4 23t10 53.5t14 72.5t15.5 79.5 t14 73.5t10.5 56h110z" />
<glyph unicode="&#x439;" horiz-adv-x="461" d="M296 556q-40 0 -66 14t-41 35.5t-19 48t-1 51.5h85q-2 -11 0.5 -23t8.5 -22t17 -17t26 -7q16 0 29 6.5t23 17t16.5 22.5t8.5 23h89q-6 -26 -19 -52t-34.5 -48t-52 -35.5t-70.5 -13.5zM216 496q-4 -19 -10 -49.5t-13 -66.5l-14 -72t-12.5 -66t-9 -49.5t-3.5 -20.5 q-6 -33 6 -53t48 -20q32 0 55.5 23.5t30.5 60.5l61 313h109l-96 -496h-110l11 49h-3q-24 -27 -55.5 -40.5t-60.5 -13.5q-66 0 -94.5 39.5t-17.5 103.5q0 2 4 23t10 53.5t14 72.5t15.5 79.5t14 73.5t10.5 56h110z" />
<glyph unicode="&#x43a;" horiz-adv-x="443" d="M8 0l95 494h109l-39 -201h36q12 0 24 2t23.5 9.5t23 22t22.5 38.5l59 129h111l-67 -144q-17 -36 -39.5 -60.5t-51.5 -32.5q32 -8 44 -34t14 -63l13 -160h-105l-7 127q-3 48 -21.5 62t-47.5 14h-49l-39 -203h-108z" />
<glyph unicode="&#x43b;" horiz-adv-x="459" d="M229 398q-2 -10 -6.5 -35t-10 -53.5t-10.5 -53.5l-7 -35q-12 -57 -29 -98.5t-41.5 -69.5t-56.5 -44t-74 -22q-1 6 -3 17.5t-5 24t-5 24t-3 17.5q30 8 51 23.5t35 38.5t23.5 54.5t17.5 71.5l45 237h311l-95 -495h-107l76 398h-106z" />
<glyph unicode="&#x43c;" horiz-adv-x="559" d="M413 264l-59 -90q-3 -5 -11.5 -17t-18.5 -26.5t-18.5 -27t-11.5 -17.5h-72q-2 6 -6 20.5t-9 30.5t-9.5 30.5t-5.5 20.5l-22 76h-2l-51 -264h-108l96 495h98l49 -168q1 -5 5.5 -20t9 -31.5t9 -31.5t5.5 -20h2q3 6 14 22t24 34.5t24 34.5t14 21l110 159h101l-96 -495h-109 l51 264h-3z" />
<glyph unicode="&#x43d;" horiz-adv-x="457" d="M369 0h-108l40 207h-143l-40 -207h-109l96 495h109l-39 -201h143l39 201h108z" />
<glyph unicode="&#x43e;" horiz-adv-x="444" d="M267 500q42 0 72.5 -13t50 -34.5t28.5 -50.5t9 -61q0 -30 -4.5 -64t-11.5 -63q-11 -51 -27.5 -91.5t-42 -69t-62 -44t-87.5 -15.5q-47 0 -77.5 13.5t-48 36.5t-24.5 53t-7 63q0 26 4.5 60.5t11.5 66.5q22 100 72.5 156.5t143.5 56.5zM258 401q-35 0 -58 -28t-40 -91 q-6 -24 -10.5 -54.5t-6.5 -53.5q0 -15 1 -29t7 -25t18 -18t34 -7q31 0 51 20.5t28 43.5q7 18 13.5 41t11 46.5t7 45t2.5 36.5q0 32 -14 52.5t-44 20.5z" />
<glyph unicode="&#x43f;" horiz-adv-x="459" d="M205 495l-9 -48h3q24 26 55 39.5t60 13.5q66 0 94.5 -39.5t17.5 -104.5q0 -2 -4 -23t-10 -53.5t-13.5 -72l-15 -79t-14.5 -74t-11 -55.5h-110q4 19 10 49.5t13 66t14 72t12.5 66t9 49t3.5 20.5q5 32 -6 52.5t-48 20.5q-33 0 -56 -23.5t-31 -59.5l-60 -313h-109l97 496 h108z" />
<glyph unicode="&#x440;" horiz-adv-x="450" d="M-30 -197q32 174 66 346t67 346h109q-2 -11 -4 -20.5t-4 -20.5q1 0 1 -0.5t1 -0.5q23 23 49.5 35t58.5 12q33 0 55.5 -10.5t36 -29.5t19.5 -45.5t6 -57.5q0 -15 -1 -32t-3.5 -35t-5 -35t-5.5 -31q-9 -45 -23 -86.5t-36.5 -73t-56.5 -50.5t-83 -19q-25 0 -50.5 11 t-40.5 33h-3l-45 -236h-108zM262 395q-23 0 -43.5 -15.5t-34.5 -53.5q-11 -29 -17.5 -62t-10.5 -64q-3 -20 -3 -37q0 -26 12.5 -45t40.5 -19q39 0 64 37q12 19 21 49t15 62q4 20 6.5 39t3.5 34q0 14 -1.5 27.5t-7 24t-16.5 17t-29 6.5z" />
<glyph unicode="&#x441;" horiz-adv-x="396" d="M185 -5q-46 0 -76 14t-48 37.5t-25 54t-7 62.5q0 20 2.5 45.5t7 52t11.5 51.5t15 45q13 31 31.5 57.5t43.5 45.5t56.5 30t70.5 11q57 0 97.5 -28.5t48.5 -82.5l-96 -46q-5 29 -21 42t-37 13q-26 0 -44 -12t-31 -31.5t-21 -46t-14 -54.5q-4 -22 -7 -42t-3 -38 q0 -36 12.5 -56t45.5 -20q26 0 47 13.5t36 36.5l85 -47q-28 -49 -73 -78t-107 -29z" />
<glyph unicode="&#x442;" horiz-adv-x="714" d="M573 500q33 0 55 -9.5t35.5 -26t19 -38t5.5 -45.5q0 -28 -6 -56l-64 -325h-109l63 321q1 5 1.5 9.5t0.5 9.5q0 18 -11 33t-35 15q-39 0 -64 -24.5t-33 -61.5l-59 -302h-110q22 108 36.5 183.5t26.5 137.5q1 5 1.5 10.5t0.5 10.5q0 20 -10.5 34.5t-37.5 14.5 q-37 0 -62.5 -23t-33.5 -69l-58 -299h-108l96 494h109q-3 -11 -5 -23t-5 -24h4q23 23 53.5 37.5t59.5 14.5q45 0 70 -17t37 -47h1q30 29 64 47t72 18z" />
<glyph unicode="&#x443;" horiz-adv-x="402" d="M175 118q20 37 39.5 82.5t37.5 94.5t35 100t32 99h116q-31 -86 -62.5 -166t-63.5 -152t-64.5 -134t-64.5 -110q-46 -69 -105.5 -105t-127.5 -33l-2 95q24 3 45 9.5t40.5 19.5t36.5 33.5t33 51.5q-2 21 -6.5 60t-10 87t-11.5 100.5t-12 100t-10.5 85.5t-7.5 58h115 q2 -26 4.5 -59.5t5 -64.5t4 -55t1.5 -31q2 -35 3.5 -77t-3.5 -89h3z" />
<glyph unicode="&#x444;" horiz-adv-x="578" d="M193 -9q-66 5 -104 35t-50 75q-4 18 -4.5 36.5t-0.5 37.5q3 56 17.5 114t39.5 101q29 54 79 81t122 31l40 200h106l-40 -201q66 -5 104.5 -35t49.5 -76q3 -11 4 -22.5t1 -25.5q0 -24 -2.5 -51t-7.5 -54t-11.5 -53t-15.5 -48q-26 -66 -80 -104t-140 -40l-36 -186h-107z M318 91q24 1 42.5 10t32.5 24q18 20 28.5 49.5t17.5 66.5q4 23 7 44t3 40q0 18 -5 35q-6 16 -21 27t-44 13zM273 400q-48 -3 -73.5 -32t-38.5 -76q-8 -24 -13 -57.5t-7 -59.5q0 -34 16 -56.5t55 -27.5z" />
<glyph unicode="&#x445;" horiz-adv-x="424" d="M256 0l-48 163h-1q-11 -15 -26 -36.5t-30.5 -45t-31 -45t-25.5 -36.5h-129l197 253q-10 22 -22.5 54.5t-25 66.5t-25 66t-22.5 55h124l45 -156h1l103 156h130q-48 -61 -95.5 -121.5t-95.5 -121.5q10 -23 23.5 -56.5t27 -69.5t27 -69.5t23.5 -56.5h-124z" />
<glyph unicode="&#x446;" horiz-adv-x="478" d="M336 -2q-20 7 -32.5 22.5t-15.5 35.5h-1q-14 -17 -31.5 -28.5t-35.5 -19t-36 -10.5t-32 -3q-32 0 -53.5 9.5t-35 25.5t-19.5 37.5t-6 46.5q0 13 1.5 25.5t3.5 26.5q17 83 32 164.5t32 163.5h109l-59 -301q-3 -14 -3.5 -31t4 -31t16 -23.5t33.5 -9.5q19 0 33 7.5t24.5 20 t17.5 28.5t12 32q4 12 6.5 23.5t4.5 23.5l51 261h109l-61 -309q-3 -15 -6 -31.5t-3 -32.5q0 -22 11 -40t37 -26l-38 -184h-89z" />
<glyph unicode="&#x447;" horiz-adv-x="430" d="M192 495l-29 -146q-15 -76 65 -76q13 0 33 5.5t34 13.5q1 4 4 19.5t7 36.5t8.5 45t9 45.5t7.5 37t4 19.5h106l-95 -495h-107l38 196q-18 -8 -42 -13t-39 -5q-85 0 -120 41t-21 117l31 159h106z" />
<glyph unicode="&#x448;" horiz-adv-x="707" d="M150 -5q-33 0 -55.5 9.5t-36 26t-19 38t-5.5 45.5q0 28 6 55l7 35t11.5 58t14 69.5t14 69.5t11 58t6.5 35h109q-15 -81 -31 -160.5t-31 -160.5q-1 -5 -1.5 -9t-0.5 -9q0 -20 11 -34t35 -14q38 0 63.5 23.5t33.5 61.5l58 302h110l-63 -321q-1 -5 -1 -9.5v-9.5 q0 -50 48 -50q78 0 95 91q1 7 6 30t11 54t12.5 66t12.5 66t10.5 53.5t5.5 29.5h109l-96 -494h-109l9 47h-4q-23 -23 -53 -37t-59 -14q-45 0 -70.5 16.5t-37.5 46.5q-30 -29 -64 -46.5t-72 -17.5z" />
<glyph unicode="&#x449;" horiz-adv-x="719" d="M644 175q-6 -28 -6.5 -38t-0.5 -16q0 -22 9.5 -40t35.5 -26l-42 -184h-86l24 127q-20 7 -32.5 22.5t-15.5 35.5h-1q-12 -15 -29.5 -26.5t-36 -19t-37 -11t-33.5 -3.5q-45 0 -69.5 16.5t-36.5 46.5h-1q-30 -29 -64 -46.5t-72 -17.5q-33 0 -55 9.5t-35.5 26t-19 37.5 t-5.5 45q0 27 6 56q16 81 31.5 162.5t32.5 162.5h109l-63 -321q-1 -5 -1.5 -9t-0.5 -9q0 -22 12.5 -35t34.5 -13q38 0 63 23.5t33 61.5l59 302h110q-22 -108 -37 -183t-26 -138q-1 -4 -1.5 -7t-0.5 -7q0 -26 10 -43.5t44 -17.5q36 0 59 28t31 69l57 299h109z" />
<glyph unicode="&#x44a;" horiz-adv-x="517" d="M159 401h-127l18 94h237q-9 -45 -18 -88.5t-17 -88.5h84q47 0 77 -13.5t47.5 -33.5t24.5 -44.5t7 -46.5q0 -29 -11.5 -62t-37 -60.5t-67 -45.5t-101.5 -18q-74 1 -115.5 36t-45.5 98v14q0 12 1 24t4 26zM287 94q25 0 42 7.5t28 19t16 25.5t5 28q0 23 -16.5 37.5 t-51.5 14.5h-77l-10 -56q-5 -31 10.5 -53.5t53.5 -22.5z" />
<glyph unicode="&#x44b;" horiz-adv-x="632" d="M207 495q-9 -45 -18 -88.5t-17 -88.5h84q47 0 77 -13.5t47.5 -33.5t24 -44.5t6.5 -46.5q0 -29 -11 -62t-36 -60.5t-66.5 -45.5t-101.5 -18q-78 1 -120 39t-42 107q0 16 3 36l8 48l53 271h109zM536 0h-109l49.5 247.5t48.5 247.5h107zM207 94q25 0 42.5 7.5t28 19 t15.5 25.5t5 28q0 23 -17 37.5t-52 14.5h-76l-10 -56q-5 -31 10.5 -53.5t53.5 -22.5z" />
<glyph unicode="&#x44c;" horiz-adv-x="442" d="M211 495q-9 -45 -18 -88.5t-17 -88.5h84q47 0 77 -13.5t47.5 -33.5t24 -44.5t6.5 -46.5q0 -29 -11 -62t-36 -60.5t-66.5 -45.5t-101.5 -18q-78 1 -120 39t-42 107q0 16 3 36l8 48l53 271h109zM211 94q25 0 42.5 7.5t28 19t15.5 25.5t5 28q0 23 -17 37.5t-52 14.5h-76 l-10 -56q-5 -31 10.5 -53.5t53.5 -22.5z" />
<glyph unicode="&#x44d;" horiz-adv-x="408" d="M141 292h139q2 11 2.5 19t0.5 16q0 29 -13 48.5t-46 19.5q-21 0 -45.5 -10t-41.5 -34l-77 53q28 47 70 72t102 25q43 0 73 -12.5t49.5 -34.5t28.5 -52.5t9 -66.5q0 -60 -11 -120.5t-38 -109t-71.5 -79.5t-111.5 -31q-60 0 -101 27.5t-52 78.5l94 45q6 -25 23.5 -38 t38.5 -13q46 0 68.5 30.5t33.5 81.5h-141z" />
<glyph unicode="&#x44e;" horiz-adv-x="609" d="M435 500q46 0 76 -14.5t46.5 -39t23 -56t6.5 -65.5q-1 -25 -6 -57t-10 -57q-11 -50 -27.5 -90.5t-42 -68.5t-60.5 -43t-83 -15q-41 0 -69.5 13t-46.5 34.5t-26 49t-8 56.5q0 17 1.5 29t3.5 31h-59q-11 -52 -20.5 -104t-19.5 -103h-108l96 494h108l-39 -201h57 q8 34 18.5 62.5t24.5 51.5q27 45 67.5 69t96.5 24zM425 401q-31 0 -53 -24q-13 -14 -23 -39.5t-18 -57.5q-4 -16 -7 -33t-5.5 -33t-3.5 -29.5t-1 -20.5q0 -13 2 -25.5t8 -22.5t17 -16t29 -6q17 0 30.5 7.5t23.5 19.5q11 12 21 37t18 55t13 62t5 58q0 28 -13 48t-43 20z" />
<glyph unicode="&#x44f;" horiz-adv-x="442" d="M232 199q-25 0 -45.5 -15t-37.5 -59l-47 -125h-109l50 133q11 29 28 55.5t48 37.5q-31 16 -44 41.5t-13 58.5q0 42 14.5 74t40 53t59 31.5t72.5 10.5h201q-4 -21 -11.5 -60t-16.5 -87t-18.5 -101t-18.5 -101t-16.5 -87t-11.5 -59h-109l38 199h-53zM169 332q0 -46 62 -46 h71q1 9 4.5 25t7 32.5t6.5 32.5t5 25h-70q-15 0 -30 -3t-27.5 -10.5t-20.5 -21t-8 -34.5z" />
<glyph unicode="&#x451;" horiz-adv-x="436" d="M256 401q-38 0 -61.5 -30.5t-34.5 -81.5q8 -2 18.5 -1.5t18.5 0.5q63 1 88 21t25 49q0 19 -14 31t-40 12zM185 -5q-81 0 -117.5 45t-36.5 120q0 54 11 114.5t37.5 111t71 83.5t111.5 33q79 0 119 -36t40 -91q0 -45 -17 -78t-48.5 -55t-75 -32.5t-95.5 -10.5h-20.5 t-21.5 1q-3 -20 -3 -38q0 -28 14 -46.5t44 -18.5q23 0 48.5 12.5t44.5 37.5l86 -51q-33 -50 -82 -75.5t-110 -25.5zM328 582l21 108h105l-20 -108h-106zM148 582l21 108h105l-20 -108h-106z" />
<glyph unicode="&#x452;" horiz-adv-x="479" d="M205 75q32 0 54 9t36 27t23 46t16 67q7 33 8.5 53t1.5 34q0 35 -12 57.5t-49 22.5q-24 0 -41 -11.5t-29.5 -31t-21 -44t-13.5 -51.5l-50 -253h-110q28 143 55.5 283.5t54.5 283.5h-57q3 18 6.5 36.5t7.5 36.5h57l17 86h110l-17 -86h170q-3 -18 -6.5 -36.5t-7.5 -36.5 h-169q-7 -32 -13 -63.5t-12 -63.5h2q26 26 58.5 40t64.5 14q34 0 56.5 -11t36 -30.5t19.5 -47t6 -60.5q0 -22 -1.5 -46t-5.5 -50q-8 -59 -22.5 -106t-36.5 -80q-26 -39 -67 -60t-106 -22h-15t-16 1z" />
<glyph unicode="&#x453;" horiz-adv-x="418" d="M234 571l117 184l92 -37l-151 -175zM258 502q32 0 60 -7.5t48.5 -23t32.5 -38.5t13 -54q0 -38 -13.5 -65.5t-38.5 -48t-59 -35.5t-75 -26q-17 -5 -33.5 -9.5t-29.5 -12t-20.5 -19.5t-7.5 -30q0 -21 17 -30.5t44 -9.5t58 14t49 37l75 -53q-33 -48 -81.5 -72.5 t-117.5 -25.5q-69 0 -113 30.5t-44 93.5q0 46 16 76.5t42.5 51t61 33.5t72.5 23q48 11 67 25t19 37q0 20 -15 29t-37 9q-32 0 -59.5 -14t-47.5 -37l-69 59q32 44 77.5 68.5t108.5 24.5z" />
<glyph unicode="&#x454;" horiz-adv-x="408" d="M185 -5q-45 0 -75 14t-48 37t-25.5 53t-7.5 62q0 25 2.5 51t7.5 50q8 48 25 91t44.5 76t66.5 52.5t92 19.5q57 0 97.5 -28.5t48.5 -82.5l-96 -46q-12 53 -53 53q-45 0 -70.5 -29t-37.5 -77h144l-16 -85h-143q-2 -8 -2 -15.5v-15.5q0 -38 13 -58.5t51 -20.5 q22 0 42.5 13.5t34.5 39.5l85 -47q-28 -49 -73 -78t-107 -29z" />
<glyph unicode="&#x455;" horiz-adv-x="419" d="M94 150q14 -29 36.5 -43.5t57.5 -14.5q15 0 29 4t25.5 12t18.5 20t7 27q0 12 -6.5 20.5t-17.5 14t-26 9.5t-31 9q-24 7 -46.5 16t-39.5 23t-27 34.5t-10 49.5q0 40 15.5 72t41 53.5t59.5 33t71 11.5q61 0 102 -26t58 -71q-4 -2 -16.5 -9.5t-26 -16t-26 -16.5t-16.5 -10 q-10 27 -32 38.5t-49 11.5q-35 0 -53.5 -18t-18.5 -39q0 -10 8 -17.5t20 -13.5t27 -10t29 -8q24 -6 46.5 -15t39.5 -23.5t27.5 -35.5t10.5 -51q0 -41 -14.5 -74t-41 -55.5t-63.5 -34.5t-82 -12q-69 1 -113.5 29t-61.5 79z" />
<glyph unicode="&#x456;" horiz-adv-x="220" d="M130 592l20 104h110l-20 -104h-110zM15 0l96 495h110l-96 -495h-110z" />
<glyph unicode="&#x457;" horiz-adv-x="220" d="M222 575l21 108h105l-20 -108h-106zM42 575l21 108h105l-20 -108h-106zM15 0l96 495h110l-96 -495h-110z" />
<glyph unicode="&#x458;" horiz-adv-x="230" d="M136 592l20 104h110l-20 -104h-110zM120 -54q-13 -66 -54 -105.5t-111 -39.5h-9h-14.5t-14.5 0.5t-9 0.5l20 101q2 0 11.5 -0.5t11.5 0.5q32 0 45.5 20.5t19.5 49.5l101 523h110z" />
<glyph unicode="&#x459;" horiz-adv-x="674" d="M233 401q-8 -47 -17 -93t-19 -91q-23 -110 -71 -163.5t-127 -66.5l-17 84q28 9 48.5 23.5t35 36t24 51t16.5 68.5l47 245h297l-35 -177h84q47 0 77.5 -13.5t48 -33.5t24 -44.5t6.5 -46.5q0 -29 -11 -62t-36.5 -60.5t-67 -45.5t-101.5 -18q-51 0 -85 16.5t-53 45t-23 67.5 t5 85l39 193h-89zM451 94q25 0 42 7.5t28 19t16 25.5t5 28q0 23 -17 37.5t-52 14.5h-77l-10 -56q-1 -5 -1 -15q0 -26 16.5 -43.5t49.5 -17.5z" />
<glyph unicode="&#x45a;" horiz-adv-x="677" d="M445 495l-35 -177h84q47 0 77.5 -13.5t48 -33.5t24 -44.5t6.5 -46.5q0 -29 -11 -62t-36.5 -60.5t-67 -45.5t-101.5 -18q-42 0 -74 12t-53 34t-30 52.5t-3 68.5l10 65h-124l-44 -226h-107l96 495h108q-9 -45 -17.5 -88.5t-16.5 -88.5h123l34 177h109zM446 94q25 0 42 7.5 t28 19t16 25.5t5 28q0 23 -17 37.5t-52 14.5h-77l-9 -56q-5 -31 10.5 -53.5t53.5 -22.5z" />
<glyph unicode="&#x45b;" horiz-adv-x="460" d="M259 -1q4 19 10 49.5t13 66t14 72t13 66t9.5 49t3.5 20.5q5 32 -6.5 52t-45.5 20q-33 0 -57 -22.5t-32 -59.5l-61 -313h-109l110 568h-57l14 73h57l17 87h110l-17 -87h166l-14 -73h-167l-23 -120l3 -1q25 26 56 40t60 14q65 0 93 -39.5t17 -107.5q0 -1 -4 -22t-10 -53.5 t-13 -72t-14.5 -78t-14 -73t-10.5 -55.5h-111z" />
<glyph unicode="&#x45c;" horiz-adv-x="443" d="M222 571l117 184l92 -37l-151 -175zM8 0l95 494h109l-39 -201h36q12 0 24 2t23.5 9.5t23 22t22.5 38.5l59 129h111l-67 -144q-17 -36 -39.5 -60.5t-51.5 -32.5q32 -8 44 -34t14 -63l13 -160h-105l-7 127q-3 48 -21.5 62t-47.5 14h-49l-39 -203h-108z" />
<glyph unicode="&#x45e;" horiz-adv-x="402" d="M175 118q20 37 39.5 82.5t37.5 94.5t35 100t32 99h116q-31 -86 -62.5 -166t-63.5 -152t-64.5 -134t-64.5 -110q-46 -69 -105.5 -105t-127.5 -33l-2 95q24 3 45 9.5t40.5 19.5t36.5 33.5t33 51.5q-2 21 -6.5 60t-10 87t-11.5 100.5t-12 100t-10.5 85.5t-7.5 58h115 q2 -26 4.5 -59.5t5 -64.5t4 -55t1.5 -31q2 -35 3.5 -77t-3.5 -89h3zM256 556q-40 0 -66 14t-41 35.5t-19 48t-1 51.5h85q-2 -11 0.5 -23t8.5 -22t17 -17t26 -7q16 0 29 6.5t23 17t16.5 22.5t8.5 23h89q-6 -26 -19 -52t-34.5 -48t-52 -35.5t-70.5 -13.5z" />
<glyph unicode="&#x45f;" horiz-adv-x="461" d="M216 496q-4 -19 -10 -49.5t-13 -66.5l-14 -72t-12.5 -66t-9 -49.5t-3.5 -20.5q-6 -33 6 -53t48 -20q32 0 55.5 23.5t30.5 60.5l61 313h109l-96 -496h-110l11 49h-3q-24 -27 -55.5 -40.5t-60.5 -13.5q-66 0 -94.5 39.5t-17.5 103.5q0 2 4 23t10 53.5t14 72.5t15.5 79.5 t14 73.5t10.5 56h110zM116 -193l35 153l98 14l-44 -167h-89z" />
<glyph unicode="&#x490;" horiz-adv-x="458" d="M510 590h-262l-113 -590h-112l133 696h278l26 120h95z" />
<glyph unicode="&#x491;" horiz-adv-x="387" d="M448 606l-20 -104t-21 -104h-214q-19 -100 -38 -199t-39 -199h-106q24 125 48 247.5t47 247.5h231l23 111h89v0z" />
<glyph unicode="&#x4d9;" horiz-adv-x="436" d="M197 95q38 0 60 30.5t34 81.5q-10 2 -20 2h-19q-54 -1 -82 -21t-28 -50q0 -19 14.5 -31t40.5 -12zM267 502q80 0 117 -42.5t37 -119.5q0 -57 -11 -118t-38 -111.5t-71 -83t-110 -32.5q-79 0 -119.5 35.5t-40.5 91.5q0 45 18 78t49.5 54.5t73.5 32.5t90 11q11 0 22 -0.5 t23 -1.5q5 23 5 43q-1 26 -14.5 43t-42.5 17q-23 0 -48 -12t-45 -38q-4 2 -16 9.5t-26 16t-26 16t-16 9.5q31 51 80 76.5t109 25.5z" />
<glyph unicode="&#x1e80;" horiz-adv-x="717" d="M523 0h-102q-4 72 -5 145t-5 145q-2 40 -3 79.5t-2 79.5h-4q-20 -46 -38.5 -91.5t-37.5 -91.5l-114 -266h-101q-2 174 -3 347.5t-2 348.5h120l-5 -234q-2 -54 -3 -108.5t-4 -108.5h4l70 169l117 282h94q2 -94 6 -185t4 -185q1 -22 1.5 -43.5t0.5 -43.5h5l50 147 q9 25 22 62t28 79t31 86t30 83h122zM472 741l-186 100l64 76l161 -125z" />
<glyph unicode="&#x1e81;" horiz-adv-x="655" d="M331 320q-18 -52 -34.5 -97t-36.5 -87q-16 -34 -32.5 -67.5t-36.5 -68.5h-110l-37 494h116q1 -55 3 -110t2 -111q0 -33 0.5 -60.5t-2.5 -64.5h4q40 78 75 166.5t64 179.5h112l7 -198q1 -19 1 -35t-0.5 -32.5t-1 -34.5t-1.5 -39h5q39 77 71.5 158.5t64.5 180.5h120 q-24 -72 -49.5 -135.5t-54 -123t-61 -117t-69.5 -118.5h-108q-2 67 -4.5 131t-2.5 139v24.5t1 25.5h-5zM359 543l-124 182l89 38l91 -190z" />
<glyph unicode="&#x1e82;" horiz-adv-x="717" d="M523 0h-102q-4 72 -5 145t-5 145q-2 40 -3 79.5t-2 79.5h-4q-20 -46 -38.5 -91.5t-37.5 -91.5l-114 -266h-101q-2 174 -3 347.5t-2 348.5h120l-5 -234q-2 -54 -3 -108.5t-4 -108.5h4l70 169l117 282h94q2 -94 6 -185t4 -185q1 -22 1.5 -43.5t0.5 -43.5h5l50 147 q9 25 22 62t28 79t31 86t30 83h122zM416 776l181 126l61 -75l-205 -102z" />
<glyph unicode="&#x1e83;" horiz-adv-x="655" d="M331 320q-18 -52 -34.5 -97t-36.5 -87q-16 -34 -32.5 -67.5t-36.5 -68.5h-110l-37 494h116q1 -55 3 -110t2 -111q0 -33 0.5 -60.5t-2.5 -64.5h4q40 78 75 166.5t64 179.5h112l7 -198q1 -19 1 -35t-0.5 -32.5t-1 -34.5t-1.5 -39h5q39 77 71.5 158.5t64.5 180.5h120 q-24 -72 -49.5 -135.5t-54 -123t-61 -117t-69.5 -118.5h-108q-2 67 -4.5 131t-2.5 139v24.5t1 25.5h-5zM353 571l117 184l92 -37l-151 -175z" />
<glyph unicode="&#x1e84;" horiz-adv-x="717" d="M523 0h-102q-4 72 -5 145t-5 145q-2 40 -3 79.5t-2 79.5h-4q-20 -46 -38.5 -91.5t-37.5 -91.5l-114 -266h-101q-2 174 -3 347.5t-2 348.5h120l-5 -234q-2 -54 -3 -108.5t-4 -108.5h4l70 169l117 282h94q2 -94 6 -185t4 -185q1 -22 1.5 -43.5t0.5 -43.5h5l50 147 q9 25 22 62t28 79t31 86t30 83h122zM320 742l20 108h108l-21 -108h-107zM501 742l21 108h106l-20 -108h-107z" />
<glyph unicode="&#x1e85;" horiz-adv-x="655" d="M331 320q-18 -52 -34.5 -97t-36.5 -87q-16 -34 -32.5 -67.5t-36.5 -68.5h-110l-37 494h116q1 -55 3 -110t2 -111q0 -33 0.5 -60.5t-2.5 -64.5h4q40 78 75 166.5t64 179.5h112l7 -198q1 -19 1 -35t-0.5 -32.5t-1 -34.5t-1.5 -39h5q39 77 71.5 158.5t64.5 180.5h120 q-24 -72 -49.5 -135.5t-54 -123t-61 -117t-69.5 -118.5h-108q-2 67 -4.5 131t-2.5 139v24.5t1 25.5h-5zM238 575l21 108h105l-20 -108h-106zM418 575l21 108h105l-20 -108h-106z" />
<glyph unicode="&#x1ef2;" horiz-adv-x="471" d="M276 401q17 32 34.5 65.5t35.5 65.5q7 12 19.5 34.5t26.5 47.5t26.5 47.5t19.5 34.5h122q-11 -18 -31 -50t-44.5 -72t-51.5 -83.5t-51.5 -83.5t-44.5 -72.5t-31 -49.5l-56 -285h-110q2 12 6.5 34.5l10 50t11.5 58t11.5 58t9.5 50t7 34.5q-23 103 -47.5 205.5t-47.5 205.5 h116q2 -9 7.5 -36t11.5 -58t11 -57.5t7 -35.5q5 -24 9 -54.5t7 -53.5h6zM344 726l-186 100l64 76l161 -125z" />
<glyph unicode="&#x1ef3;" horiz-adv-x="402" d="M175 118q20 37 39.5 82.5t37.5 94.5t35 100t32 99h116q-31 -86 -62.5 -166t-63.5 -152t-64.5 -134t-64.5 -110q-46 -69 -105.5 -105t-127.5 -33l-2 95q24 3 45 9.5t40.5 19.5t36.5 33.5t33 51.5q-2 21 -6.5 60t-10 87t-11.5 100.5t-12 100t-10.5 85.5t-7.5 58h115 q2 -26 4.5 -59.5t5 -64.5t4 -55t1.5 -31q2 -35 3.5 -77t-3.5 -89h3zM225 543l-124 182l89 38l91 -190z" />
<glyph unicode="&#x2013;" horiz-adv-x="501" d="M23 225l19 96h462l-19 -96h-462z" />
<glyph unicode="&#x2014;" horiz-adv-x="1013" d="M19 225l19 96h972l-19 -96h-972z" />
<glyph unicode="&#x2015;" horiz-adv-x="1003" d="M23 225l19 96h963l-19 -96h-963z" />
<glyph unicode="&#x2018;" horiz-adv-x="256" d="M288 719l-57 -131h29l-26 -132h-124l25 128l93 135h60z" />
<glyph unicode="&#x2019;" horiz-adv-x="256" d="M110 456l57 131h-29l26 133h124l-25 -129l-92 -135h-61z" />
<glyph unicode="&#x201a;" horiz-adv-x="245" d="M-4 -134l57 131h-28l25 132h124l-25 -128l-92 -135h-61z" />
<glyph unicode="&#x201c;" horiz-adv-x="358" d="M263 719l-57 -131h29l-26 -132h-124l25 128l92 135h61zM421 719l-57 -131h29l-26 -132h-123l25 128l92 135h60z" />
<glyph unicode="&#x201d;" horiz-adv-x="358" d="M247 456l57 131h-29l26 133h123l-25 -129l-92 -135h-60zM87 456l58 131h-29l26 133h124l-25 -129l-92 -135h-62z" />
<glyph unicode="&#x201e;" horiz-adv-x="402" d="M154 -133l57 131h-28l26 132h123l-25 -128l-92 -135h-61zM-4 -133l57 131h-28l26 132h123l-25 -128l-92 -135h-61z" />
<glyph unicode="&#x2020;" horiz-adv-x="428" d="M298 377l-106 -543h-102l106 543h-147l19 94h146l42 215h102l-42 -215h146l-18 -94h-146z" />
<glyph unicode="&#x2021;" horiz-adv-x="432" d="M198 377h-148l18 94h148l42 215h103l-42 -215h148l-18 -94h-148l-34 -175h148l-19 -94h-147l-53 -274h-104l53 274h-147l18 94h148z" />
<glyph unicode="&#x2022;" horiz-adv-x="443" d="M86 274q0 29 11 55t30.5 45.5t45.5 31t56 11.5t56 -11.5t45.5 -31t31 -45.5t11.5 -55q0 -30 -11.5 -56t-31 -45.5t-45.5 -31t-56 -11.5t-56 11.5t-45.5 31t-30.5 45.5t-11 56z" />
<glyph unicode="&#x2023;" horiz-adv-x="545" d="M509 282l-428 -246v481z" />
<glyph unicode="&#x2026;" horiz-adv-x="805" d="M26 0l25 130h121l-25 -130h-121zM302 0l25 130h122l-25 -130h-122zM576 0l25 130h121l-25 -130h-121z" />
<glyph unicode="&#x2030;" horiz-adv-x="985" d="M170 -17h-80l511 730h81zM321 387q-11 -52 -42 -81.5t-88 -29.5q-28 0 -51 9t-38.5 25t-21.5 38.5t-1 49.5l38 191q10 52 43.5 81.5t86.5 29.5q26 0 48 -8.5t37.5 -24t22.5 -37.5t2 -48zM274 582q4 17 -5 30.5t-28 13.5q-17 0 -28.5 -10.5t-14.5 -27.5l-37 -195 q-3 -17 5.5 -30t28.5 -13q19 0 29 11.5t13 26.5zM658 107q-11 -52 -42 -81.5t-88 -29.5q-28 0 -51 9t-38.5 25t-21.5 38.5t-1 49.5l38 191q10 52 43.5 81.5t86.5 29.5q26 0 48 -8.5t37.5 -24t22.5 -37.5t2 -48zM611 302q4 17 -5 30.5t-28 13.5q-17 0 -28.5 -10.5 t-14.5 -27.5l-37 -195q-3 -17 5.5 -30t28.5 -13q19 0 29 11.5t13 26.5zM930 107q-11 -52 -42 -81.5t-88 -29.5q-28 0 -51 9t-38.5 25t-21.5 38.5t-1 49.5l38 191q10 52 43.5 81.5t86.5 29.5q26 0 48 -8.5t37.5 -24t22.5 -37.5t2 -48zM883 302q4 17 -5 30.5t-28 13.5 q-17 0 -28.5 -10.5t-14.5 -27.5l-37 -195q-3 -17 5.5 -30t28.5 -13q19 0 29 11.5t13 26.5z" />
<glyph unicode="&#x2039;" horiz-adv-x="336" d="M124 37l-87 197l163 196h106l-164 -198l85 -195h-103z" />
<glyph unicode="&#x203a;" horiz-adv-x="327" d="M11 37l165 198l-85 196h103l86 -197l-162 -197h-107z" />
<glyph unicode="&#x2044;" horiz-adv-x="174" d="M-112 -17h-80l511 730h81z" />
<glyph unicode="&#x2070;" horiz-adv-x="291" d="M292 477q-11 -52 -42 -81.5t-88 -29.5q-28 0 -51 9t-38.5 25t-21.5 38.5t-1 49.5l38 191q10 52 43.5 81.5t86.5 29.5q26 0 48 -8.5t37.5 -24t22.5 -37.5t2 -48zM245 672q4 17 -5 30.5t-28 13.5q-17 0 -28.5 -10.5t-14.5 -27.5l-37 -195q-3 -17 5.5 -30t28.5 -13 q19 0 29 11.5t13 26.5z" />
<glyph unicode="&#x2074;" horiz-adv-x="295" d="M256 428l-12 -59h-78l12 59h-163l13 65l180 293h84l-175 -285h75q0 3 3 17.5t6.5 31t6.5 30.5t4 17h76l-18 -96h32l-14 -73h-32z" />
<glyph unicode="&#x2075;" horiz-adv-x="290" d="M216 652q43 0 61.5 -22t18.5 -63q0 -40 -8 -76.5t-26 -64.5t-47 -44.5t-70 -16.5q-51 0 -80.5 28.5t-29.5 80.5l84 12q-1 -4 -1 -12q0 -16 8.5 -24.5t21.5 -8.5q16 0 28 10.5t19.5 26t11.5 33t4 31.5t-4 27t-27 13q-10 0 -23 -5.5t-23 -22.5h-73q12 58 23 116t23 116h229 l-15 -73h-151l-15 -76h1q8 6 27 10.5t33 4.5z" />
<glyph unicode="&#x2076;" horiz-adv-x="290" d="M146 365q-54 0 -81.5 27t-27.5 70q0 26 11.5 59.5t29.5 59.5l142 203h88q-29 -44 -59 -86.5t-59 -85.5l3 1q5 2 13.5 3t10.5 1q37 0 54 -21t17 -60q0 -14 -4 -38t-12 -47q-12 -33 -42.5 -59.5t-83.5 -26.5zM176 553q-30 0 -43 -28q-5 -11 -9 -26t-4 -27q0 -16 6.5 -26 t23.5 -10t27.5 8.5t16.5 22.5t9 30.5t3 25.5q0 30 -30 30z" />
<glyph unicode="&#x2077;" horiz-adv-x="270" d="M117 369h-87l199 343h-74l-10 -50h-80l24 124h246l-12 -65z" />
<glyph unicode="&#x2078;" horiz-adv-x="293" d="M215 790q49 0 78 -25t29 -70q0 -11 -3 -27t-10 -31.5t-18.5 -29.5t-28.5 -21q12 -8 18 -18.5t8.5 -22t1.5 -23.5l-2 -24q-7 -57 -42.5 -94.5t-98.5 -37.5q-43 0 -76 22t-36 67v14t2 16q4 29 19 59t47 44q-14 8 -20 23t-7 29q0 16 3.5 32.5t8.5 32.5q14 39 46.5 62 t80.5 23zM174 553q-25 0 -38.5 -18.5t-17.5 -41.5q-1 -5 -1 -9v-8q0 -15 7 -27t28 -12q15 0 24.5 5.5t16 14.5t10 20.5t5.5 23.5q4 20 -3.5 36t-30.5 16zM208 719q-19 0 -29.5 -10.5t-15.5 -27.5q-2 -8 -4 -19t-2 -19q1 -12 9.5 -18.5t21.5 -6.5q27 0 40 23t13 47 q0 14 -8.5 22.5t-24.5 8.5z" />
<glyph unicode="&#x2079;" horiz-adv-x="290" d="M209 789q54 0 81.5 -27t27.5 -70q0 -26 -11.5 -59.5t-29.5 -59.5l-142 -203h-88q29 44 59 86.5t59 85.5l-3 -1q-5 -2 -13.5 -3t-10.5 -1q-37 0 -54 21t-17 60q0 14 4 38t12 47q12 33 42.5 59.5t83.5 26.5zM179 601q30 0 43 28q5 11 9 26t4 27q0 16 -6.5 26t-23.5 10 t-27.5 -8.5t-16.5 -22.5t-9 -30.5t-3 -25.5q0 -30 30 -30z" />
<glyph unicode="&#x207a;" horiz-adv-x="303" d="M221 515l-20 -102h-70l20 102h-109l13 64h108l19 100h70l-19 -100h108l-14 -64h-106z" />
<glyph unicode="&#x207b;" horiz-adv-x="255" d="M56 497l14 70h203l-13 -70h-204z" />
<glyph unicode="&#x207c;" horiz-adv-x="303" d="M51 570l12 64h286l-12 -64h-286zM30 460l12 64h286l-12 -64h-286z" />
<glyph unicode="&#x207d;" horiz-adv-x="187" d="M120 295q-30 45 -49 95t-19 105q0 46 13 89t35.5 82.5t52.5 75t63 65.5l46 -26q-63 -69 -96 -145t-33 -146q0 -42 10 -83.5t30 -78.5z" />
<glyph unicode="&#x207e;" horiz-adv-x="187" d="M141 807q29 -42 48 -90.5t19 -103.5q0 -47 -13 -90t-36.5 -83t-54 -76t-64.5 -68l-42 33q59 63 93.5 140t34.5 151q0 40 -10 82t-31 80l56 25v0z" />
<glyph unicode="&#x207f;" horiz-adv-x="317" d="M218 279l39 209q4 19 -2.5 31.5t-28.5 12.5q-21 0 -34.5 -13.5t-18.5 -35.5l-40 -204h-84l63 328h84l-4 -26q17 16 38 22.5t37 6.5q28 0 45 -10t25.5 -26t9.5 -36t-3 -41l-40 -218h-86z" />
<glyph unicode="&#x2080;" horiz-adv-x="291" d="M218 17q-11 -52 -42 -81.5t-88 -29.5q-28 0 -51 9t-38.5 25t-21.5 38.5t-1 49.5l38 191q10 52 43.5 81.5t86.5 29.5q26 0 48 -8.5t37.5 -24t22.5 -37.5t2 -48zM171 212q4 17 -5 30.5t-28 13.5q-17 0 -28.5 -10.5t-14.5 -27.5l-37 -195q-3 -17 5.5 -30t28.5 -13 q19 0 29 11.5t13 26.5z" />
<glyph unicode="&#x2081;" horiz-adv-x="243" d="M23 -91l64 327q-2 -2 -12.5 -8t-22.5 -13.5t-22.5 -14t-12.5 -7.5l17 86l79 47h75l-81 -417h-84z" />
<glyph unicode="&#x2082;" horiz-adv-x="290" d="M4 209q17 58 55.5 89.5t90.5 31.5t81 -24.5t27 -72.5q0 -27 -13 -52t-36 -50l-136 -146h135l-15 -76h-243l13 67l183 195q12 13 19 27t7 27q1 12 -7 21t-26 9q-17 0 -31 -14t-22 -44z" />
<glyph unicode="&#x2083;" horiz-adv-x="291" d="M257 237q0 -14 -3 -29.5t-10.5 -31t-20 -29t-31.5 -22.5q20 -9 26 -25.5t6 -33.5q0 -27 -7 -55.5t-24 -51.5t-45 -38t-70 -15q-21 0 -40.5 5.5t-34.5 17t-24 29.5t-9 42v13l79 11v-10q0 -17 10.5 -24.5t25.5 -7.5q18 0 29 7t17 17.5t8 23t2 23.5q0 17 -10 28.5t-32 11.5 h-29q4 15 7.5 31.5t5.5 33.5h30q30 0 44.5 20t14.5 46q0 11 -6.5 21.5t-24.5 10.5q-15 0 -30 -11t-22 -37l-77 12q14 57 52 83.5t86 26.5q54 0 80.5 -26.5t26.5 -66.5z" />
<glyph unicode="&#x2084;" horiz-adv-x="295" d="M212 -32l-12 -59h-78l12 59h-163l13 65l180 293h84l-175 -285h75q0 3 3 17.5t6.5 31t6.5 30.5t4 17h76l-18 -96h32l-14 -73h-32z" />
<glyph unicode="&#x2085;" horiz-adv-x="290" d="M162 192q43 0 61.5 -22t18.5 -63q0 -40 -8 -76.5t-26 -64.5t-47 -44.5t-70 -16.5q-51 0 -80.5 28.5t-29.5 80.5l84 12q-1 -4 -1 -12q0 -16 8.5 -24.5t21.5 -8.5q16 0 28 10.5t19.5 26t11.5 33t4 31.5t-4 27t-27 13q-10 0 -23 -5.5t-23 -22.5h-73q12 58 23 116t23 116h229 l-15 -73h-151l-15 -76h1q8 6 27 10.5t33 4.5z" />
<glyph unicode="&#x2086;" horiz-adv-x="290" d="M82 -95q-54 0 -81.5 27t-27.5 70q0 26 11.5 59.5t29.5 59.5l142 203h88q-29 -44 -59 -86.5t-59 -85.5l3 1q5 2 13.5 3t10.5 1q37 0 54 -21t17 -60q0 -14 -4 -38t-12 -47q-12 -33 -42.5 -59.5t-83.5 -26.5zM112 93q-30 0 -43 -28q-5 -11 -9 -26t-4 -27q0 -16 6.5 -26 t23.5 -10t27.5 8.5t16.5 22.5t9 30.5t3 25.5q0 30 -30 30z" />
<glyph unicode="&#x2087;" horiz-adv-x="270" d="M53 -91h-87l199 343h-74l-10 -50h-80l24 124h246l-12 -65z" />
<glyph unicode="&#x2088;" horiz-adv-x="293" d="M151 330q49 0 78 -25t29 -70q0 -11 -3 -27t-10 -31.5t-18.5 -29.5t-28.5 -21q12 -8 18 -18.5t8.5 -22t1.5 -23.5l-2 -24q-7 -57 -42.5 -94.5t-98.5 -37.5q-43 0 -76 22t-36 67v14t2 16q4 29 19 59t47 44q-14 8 -20 23t-7 29q0 16 3.5 32.5t8.5 32.5q14 39 46.5 62 t80.5 23zM110 93q-25 0 -38.5 -18.5t-17.5 -41.5q-1 -5 -1 -9v-8q0 -15 7 -27t28 -12q15 0 24.5 5.5t16 14.5t10 20.5t5.5 23.5q4 20 -3.5 36t-30.5 16zM144 259q-19 0 -29.5 -10.5t-15.5 -27.5q-2 -8 -4 -19t-2 -19q1 -12 9.5 -18.5t21.5 -6.5q27 0 40 23t13 47 q0 14 -8.5 22.5t-24.5 8.5z" />
<glyph unicode="&#x2089;" horiz-adv-x="290" d="M145 329q54 0 81.5 -27t27.5 -70q0 -26 -11.5 -59.5t-29.5 -59.5l-142 -203h-88q29 44 59 86.5t59 85.5l-3 -1q-5 -2 -13.5 -3t-10.5 -1q-37 0 -54 21t-17 60q0 14 4 38t12 47q12 33 42.5 59.5t83.5 26.5zM115 141q30 0 43 28q5 11 9 26t4 27q0 16 -6.5 26t-23.5 10 t-27.5 -8.5t-16.5 -22.5t-9 -30.5t-3 -25.5q0 -30 30 -30z" />
<glyph unicode="&#x208a;" horiz-adv-x="303" d="M163 55l-20 -101h-69l19 101h-108l12 64h109l19 100h70l-20 -100h107l-12 -64h-107z" />
<glyph unicode="&#x208b;" horiz-adv-x="255" d="M-1 37l13 70h204l-14 -70h-203z" />
<glyph unicode="&#x208c;" horiz-adv-x="303" d="M-6 110l13 64h285l-12 -64h-286zM-26 0l12 64h285l-12 -64h-285z" />
<glyph unicode="&#x208d;" horiz-adv-x="187" d="M56 -165q-30 45 -49 95t-19 105q0 46 13 89t35.5 82.5t52.5 75t63 65.5l46 -26q-63 -69 -96 -145t-33 -146q0 -42 10 -83.5t30 -78.5z" />
<glyph unicode="&#x208e;" horiz-adv-x="187" d="M77 347q29 -42 48 -90.5t19 -103.5q0 -47 -13 -90t-36.5 -83t-54 -76t-64.5 -68l-42 33q59 63 93.5 140t34.5 151q0 40 -10 82t-31 80l56 25v0z" />
<glyph unicode="&#x20ab;" horiz-adv-x="465" d="M166 124q-45 0 -71 24t-26 78q0 31 3 56.5t8 48.5q3 16 7.5 33.5t10 34t11.5 31t12 23.5q9 14 19.5 26.5t24.5 21.5t32.5 14.5t43.5 5.5q20 0 41 -7.5t33 -22.5l13 67h-84q3 17 6 33.5t7 32.5h84l13 67h98l-13 -67h39l-13 -66h-39q-21 -109 -42 -215.5t-41 -214.5h-97 l6 29q-17 -17 -41.5 -25t-44.5 -8zM340 77q-5 -20 -8.5 -40.5t-7.5 -40.5h-302l16 81h302zM212 214q19 0 32 12.5t21 31.5q6 14 11 32t8 36t5 32.5t2 20.5q0 50 -39 50q-35 -1 -50.5 -31.5t-23.5 -76.5q-3 -17 -4.5 -31t-2.5 -26q0 -20 7 -35t34 -15z" />
<glyph unicode="&#x20ac;" horiz-adv-x="465" d="M200 370l-9 -46h163l-13 -63h-162l-6 -28t-5 -28q-2 -9 -3 -18t-1 -18q0 -29 15 -49t57 -20q35 0 63 22.5t43 62.5l54 -16l54 -16q-24 -70 -79 -114.5t-140 -44.5q-48 0 -82 12.5t-56 34t-32 52t-10 66.5q0 20 3 39.5t7 41.5q2 5 2 10.5t2 10.5h-38q3 16 6 31.5t7 31.5 h37l9 46h-38q4 17 6.5 32.5t6.5 31.5h37l10 44q9 45 24.5 85t41 71t64.5 49t95 18q39 0 72.5 -12t57.5 -33t38.5 -50t16.5 -64l-110 -33q-3 34 -23 59.5t-57 25.5q-25 0 -42.5 -9.5t-30 -25.5t-20.5 -37t-13 -43l-10 -45h162q-2 -16 -5.5 -31.5t-5.5 -32.5h-163z" />
<glyph unicode="&#x2103;" horiz-adv-x="760" d="M604 701q89 0 137 -46.5t53 -118.5q-28 -8 -55.5 -16t-55.5 -16q-2 37 -23 63t-61 26q-32 0 -53 -12.5t-34.5 -33t-21.5 -46t-14 -51.5q-12 -52 -21 -105t-20 -106q-3 -17 -5 -32t-2 -31q0 -32 16 -53.5t63 -21.5q40 0 70 23.5t44 67.5q27 -8 54.5 -16.5t54.5 -17.5 q-24 -73 -80.5 -118.5t-146.5 -45.5q-51 0 -87 13.5t-58.5 36.5t-33 55t-10.5 70q0 16 2 33.5t5 36.5q2 12 4 23.5t4 22.5q8 38 16 78t15 78q10 49 26 96t43.5 83.5t70 58.5t104.5 22zM325 571q0 -27 -10.5 -50.5t-28.5 -41.5t-42 -28t-51 -10t-51.5 10t-42.5 28t-28.5 41.5 t-10.5 50.5t10.5 50.5t28.5 41.5t42.5 28t51.5 10q28 0 52 -10t42 -28t28 -41.5t10 -50.5zM255 571q0 26 -18 43.5t-44 17.5t-44 -17.5t-18 -43.5t18 -44t44 -18t44 18t18 44z" />
<glyph unicode="&#x2105;" horiz-adv-x="714" d="M553 357q30 0 52.5 -8.5t38 -23.5t23 -35t7.5 -42q0 -50 -9 -95.5t-28.5 -80.5t-51 -55.5t-76.5 -20.5q-62 0 -91 30t-30 74v2q0 22 2.5 45.5t7.5 45.5q15 78 50.5 121t104.5 43zM163 -17h-79q128 183 254 365t254 365h79zM207 341q-30 0 -51.5 9.5t-34.5 25t-19 37 t-6 45.5q0 48 9 92.5t29 78.5t51.5 54t77.5 20q44 0 73.5 -23t37.5 -64l-77 -36q-5 18 -15.5 29t-24.5 11q-22 0 -36 -17t-22.5 -41t-11.5 -49.5t-3 -42.5q0 -19 10 -31t34 -12q11 0 24 11.5t23 25.5q17 -9 33.5 -19t33.5 -19q-45 -85 -135 -85zM547 275q-17 0 -29 -12.5 t-20.5 -33t-13.5 -46.5t-7 -54q0 -23 8.5 -36.5t30.5 -13.5q19 0 32.5 16.5t21 39.5t11 48t3.5 42q0 23 -7.5 36.5t-29.5 13.5z" />
<glyph unicode="&#x2109;" horiz-adv-x="727" d="M519 588l-37 -189h232l-21 -104h-231l-58 -297h-113l135 696h383l-21 -106h-269zM325 571q0 -27 -10.5 -50.5t-28.5 -41.5t-42 -28t-51 -10t-51.5 10t-42.5 28t-28.5 41.5t-10.5 50.5t10.5 50.5t28.5 41.5t42.5 28t51.5 10q28 0 52 -10t42 -28t28 -41.5t10 -50.5z M255 571q0 26 -18 43.5t-44 17.5t-44 -17.5t-18 -43.5t18 -44t44 -18t44 18t18 44z" />
<glyph unicode="&#x2113;" horiz-adv-x="438" d="M398 151q-37 -78 -87.5 -119.5t-107.5 -41.5q-59 0 -90 35t-31 90q0 10 2 25.5t9 54.5q-2 -2 -9 -6.5t-15 -10t-15.5 -10.5t-9.5 -6l-21 53q3 1 15.5 10t27.5 19.5t28 19.5t15 11l41 212q12 60 30.5 101.5t42.5 68t52 38.5t58 12q35 0 62.5 -23.5t27.5 -73.5 q0 -48 -17 -92t-48.5 -87.5t-75 -88t-95.5 -94.5q-6 -30 -11 -59.5t-5 -40.5q0 -42 17 -58.5t37 -16.5q27 0 56 26.5t55 79.5zM206 350q28 33 53.5 64t45 61t31.5 59.5t12 60.5q0 15 -7.5 27.5t-25.5 12.5q-20 0 -42.5 -31.5t-36.5 -100.5z" />
<glyph unicode="&#x2116;" horiz-adv-x="835" d="M343 0l-52 190l-42 150q-7 25 -13 49.5t-12 49.5h-4q-21 -110 -42 -219.5t-43 -219.5h-114l135 696h104q14 -47 27 -92.5t26 -92.5l41 -151q7 -26 13 -51t12 -51q2 0 2.5 0.5t1.5 0.5q22 110 43 218.5t42 218.5h114l-135 -696h-104zM747 700q50 0 78.5 -22.5t36.5 -55.5 q3 -9 3 -23t-1 -29.5t-3.5 -31.5t-5.5 -28q-6 -30 -17 -56.5t-28.5 -46t-43 -31t-61.5 -11.5q-32 0 -54 8.5t-35.5 23t-19.5 32.5t-6 38q0 17 1.5 32t3.5 30q6 36 18 71.5t35 61.5q35 38 99 38zM562 256q3 17 6.5 35t7.5 36h235q-3 -18 -6.5 -36t-7.5 -35h-235zM743 628 q-17 0 -28.5 -10t-18.5 -27q-9 -23 -15.5 -53t-8.5 -52q0 -17 6 -32t31 -15q14 0 24 6.5t16.5 18t11 25.5t8.5 29q5 17 8 35t4 32q0 17 -9 30t-29 13z" />
<glyph unicode="&#x2117;" horiz-adv-x="758" d="M378 -10q-75 0 -136 26.5t-104 73t-66 111t-23 140.5t23.5 141t66 112t103.5 74t136 27q74 0 134.5 -26.5t103 -74t66 -112.5t23.5 -141q0 -75 -23.5 -139.5t-66 -111.5t-103 -73.5t-134.5 -26.5zM378 627q-59 0 -106.5 -22t-80.5 -61t-50.5 -91t-17.5 -112 q0 -59 18 -111t51.5 -90.5t80.5 -60.5t105 -22t105 22t80 60.5t51 90.5t18 111q0 61 -18 113t-51 90.5t-80 60.5t-105 22zM405 546q62 0 97.5 -32.5t35.5 -103.5q0 -57 -33 -96.5t-99 -39.5h-59v-158h-79v430h137zM347 473v-125h54q30 0 44.5 17t14.5 46q0 62 -58 62h-55z " />
<glyph unicode="&#x2122;" horiz-adv-x="813" d="M643 467q-14 -32 -27.5 -63t-27.5 -63h-55q-10 24 -21 49.5t-28 63.5q-8 20 -16 39t-17 39h-2v-241h-77v404h87l53 -121q14 -29 25.5 -57.5t24.5 -57.5h1q25 60 50.5 118t51.5 118h86v-404h-79v240h-2zM222 622v-331h-79v331h-104v74h287v-74h-104z" />
<glyph unicode="&#x2126;" horiz-adv-x="514" d="M75 106q-18 16 -24 40t-6 48q1 18 3 39t7 44q8 34 15 71t15 79q6 33 14.5 65t20.5 64q26 66 78.5 106t139.5 40q47 0 81.5 -14.5t57.5 -39t34 -58t11 -72.5q0 -11 -1 -23.5t-3 -26.5q-7 -40 -15 -81.5t-16 -87.5q-4 -24 -10.5 -51.5t-16 -54t-24 -49t-33.5 -37.5v-2h59 q-5 -26 -10 -52.5t-10 -52.5h-192l23 113q23 6 38.5 21t25.5 35q12 30 19 57.5t14 61.5l33 173q3 14 4 24t1 22q0 35 -20 61t-66 26q-41 0 -66.5 -23.5t-37.5 -59.5q-5 -14 -10 -33.5t-10 -46.5q-3 -16 -8.5 -45t-11 -59t-10 -53.5t-5.5 -28.5q-4 -17 -6.5 -36t0 -37 t13.5 -32.5t34 -23.5l-23 -116h-190q5 26 9.5 52.5t9.5 52.5h64z" />
<glyph unicode="&#x212b;" horiz-adv-x="520" d="M355 0l-8 150h-192l-69 -150h-121l335 696h23q-26 8 -41.5 29t-15.5 49q0 24 9 46t25 38.5t38 26.5t49 10q38 0 64 -24t26 -60q0 -42 -23.5 -73t-61.5 -42h17l64 -696h-118zM334 391l-6 149h-4l-61 -147l-63 -141h141zM364 750q20 0 35.5 14.5t15.5 36.5q0 14 -10 24 t-26 10q-20 0 -36 -15.5t-16 -35.5q0 -15 10.5 -24.5t26.5 -9.5z" />
<glyph unicode="&#x212e;" horiz-adv-x="817" d="M202 303v-34t0.5 -49t0.5 -49v-34q15 -24 37.5 -43.5t49.5 -33.5t56.5 -21.5t59.5 -7.5q63 0 117.5 28.5t92.5 76.5h80q-56 -68 -131.5 -107.5t-159.5 -39.5q-72 0 -135 26.5t-110 71.5t-74.5 105.5t-27.5 129.5t27.5 129t74.5 104.5t110 70.5t135 26q73 0 135.5 -26 t108.5 -72.5t73 -110.5t30 -140h-550zM606 507q-14 24 -36 42.5t-49 32t-56.5 20.5t-58.5 7q-53 0 -107 -28.5t-96 -77.5v-31t-0.5 -49.5t-0.5 -49.5v-31h404v165z" />
<glyph unicode="&#x2153;" horiz-adv-x="710" d="M695 327q0 -14 -3 -29.5t-10.5 -31t-20 -29t-31.5 -22.5q20 -9 26 -25.5t6 -33.5q0 -27 -7 -55.5t-24 -51.5t-45 -38t-70 -15q-21 0 -40.5 5.5t-34.5 17t-24 29.5t-9 42v13l79 11v-10q0 -17 10.5 -24.5t25.5 -7.5q18 0 29 7t17 17.5t8 23t2 23.5q0 17 -10 28.5t-32 11.5 h-29q4 15 7.5 31.5t5.5 33.5h30q30 0 44.5 20t14.5 46q0 11 -6.5 21.5t-24.5 10.5q-15 0 -30 -11t-22 -37l-77 12q14 57 52 83.5t86 26.5q54 0 80.5 -26.5t26.5 -66.5zM154 -17h-80l511 730h81zM153 279l64 327q-2 -2 -12.5 -8t-22.5 -13.5t-22.5 -14t-12.5 -7.5l17 86 l79 47h75l-81 -417h-84z" />
<glyph unicode="&#x2154;" horiz-adv-x="710" d="M110 579q17 58 55.5 89.5t90.5 31.5t81 -24.5t27 -72.5q0 -27 -13 -52t-36 -50l-136 -146h135l-15 -76h-243l13 67l183 195q12 13 19 27t7 27q1 12 -7 21t-26 9q-17 0 -31 -14t-22 -44zM714 327q0 -14 -3 -29.5t-10.5 -31t-20 -29t-31.5 -22.5q20 -9 26 -25.5t6 -33.5 q0 -27 -7 -55.5t-24 -51.5t-45 -38t-70 -15q-21 0 -40.5 5.5t-34.5 17t-24 29.5t-9 42v13l79 11v-10q0 -17 10.5 -24.5t25.5 -7.5q18 0 29 7t17 17.5t8 23t2 23.5q0 17 -10 28.5t-32 11.5h-29q4 15 7.5 31.5t5.5 33.5h30q30 0 44.5 20t14.5 46q0 11 -6.5 21.5t-24.5 10.5 q-15 0 -30 -11t-22 -37l-77 12q14 57 52 83.5t86 26.5q54 0 80.5 -26.5t26.5 -66.5zM194 -17h-80l511 730h81z" />
<glyph unicode="&#x2155;" horiz-adv-x="710" d="M589 282q43 0 61.5 -22t18.5 -63q0 -40 -8 -76.5t-26 -64.5t-47 -44.5t-70 -16.5q-51 0 -80.5 28.5t-29.5 80.5l84 12q-1 -4 -1 -12q0 -16 8.5 -24.5t21.5 -8.5q16 0 28 10.5t19.5 26t11.5 33t4 31.5t-4 27t-27 13q-10 0 -23 -5.5t-23 -22.5h-73q12 58 23 116t23 116h229 l-15 -73h-151l-15 -76h1q8 6 27 10.5t33 4.5zM140 -17h-80l511 730h81zM143 279l64 327q-2 -2 -12.5 -8t-22.5 -13.5t-22.5 -14t-12.5 -7.5l17 86l79 47h75l-81 -417h-84z" />
<glyph unicode="&#x2156;" horiz-adv-x="710" d="M610 282q43 0 61.5 -22t18.5 -63q0 -40 -8 -76.5t-26 -64.5t-47 -44.5t-70 -16.5q-51 0 -80.5 28.5t-29.5 80.5l84 12q-1 -4 -1 -12q0 -16 8.5 -24.5t21.5 -8.5q16 0 28 10.5t19.5 26t11.5 33t4 31.5t-4 27t-27 13q-10 0 -23 -5.5t-23 -22.5h-73q12 58 23 116t23 116h229 l-15 -73h-151l-15 -76h1q8 6 27 10.5t33 4.5zM93 579q17 58 55.5 89.5t90.5 31.5t81 -24.5t27 -72.5q0 -27 -13 -52t-36 -50l-136 -146h135l-15 -76h-243l13 67l183 195q12 13 19 27t7 27q1 12 -7 21t-26 9q-17 0 -31 -14t-22 -44zM173 -17h-80l511 730h81z" />
<glyph unicode="&#x2157;" horiz-adv-x="710" d="M597 282q43 0 61.5 -22t18.5 -63q0 -40 -8 -76.5t-26 -64.5t-47 -44.5t-70 -16.5q-51 0 -80.5 28.5t-29.5 80.5l84 12q-1 -4 -1 -12q0 -16 8.5 -24.5t21.5 -8.5q16 0 28 10.5t19.5 26t11.5 33t4 31.5t-4 27t-27 13q-10 0 -23 -5.5t-23 -22.5h-73q12 58 23 116t23 116h229 l-15 -73h-151l-15 -76h1q8 6 27 10.5t33 4.5zM339 607q0 -14 -3 -29.5t-10.5 -31t-20 -29t-31.5 -22.5q20 -9 26 -25.5t6 -33.5q0 -27 -7 -55.5t-24 -51.5t-45 -38t-70 -15q-21 0 -40.5 5.5t-34.5 17t-24 29.5t-9 42v13l79 11v-10q0 -17 10.5 -24.5t25.5 -7.5q18 0 29 7 t17 17.5t8 23t2 23.5q0 17 -10 28.5t-32 11.5h-29q4 15 7.5 31.5t5.5 33.5h30q30 0 44.5 20t14.5 46q0 11 -6.5 21.5t-24.5 10.5q-15 0 -30 -11t-22 -37l-77 12q14 57 52 83.5t86 26.5q54 0 80.5 -26.5t26.5 -66.5zM154 -17h-80l511 730h81z" />
<glyph unicode="&#x2158;" horiz-adv-x="710" d="M610 282q43 0 61.5 -22t18.5 -63q0 -40 -8 -76.5t-26 -64.5t-47 -44.5t-70 -16.5q-51 0 -80.5 28.5t-29.5 80.5l84 12q-1 -4 -1 -12q0 -16 8.5 -24.5t21.5 -8.5q16 0 28 10.5t19.5 26t11.5 33t4 31.5t-4 27t-27 13q-10 0 -23 -5.5t-23 -22.5h-73q12 58 23 116t23 116h229 l-15 -73h-151l-15 -76h1q8 6 27 10.5t33 4.5zM175 -17h-80l511 730h81zM281 338l-12 -59h-78l12 59h-163l13 65l180 293h84l-175 -285h75q0 3 3 17.5t6.5 31t6.5 30.5t4 17h76l-18 -96h32l-14 -73h-32z" />
<glyph unicode="&#x2159;" horiz-adv-x="710" d="M496 -5q-54 0 -81.5 27t-27.5 70q0 26 11.5 59.5t29.5 59.5l142 203h88q-29 -44 -59 -86.5t-59 -85.5l3 1q5 2 13.5 3t10.5 1q37 0 54 -21t17 -60q0 -14 -4 -38t-12 -47q-12 -33 -42.5 -59.5t-83.5 -26.5zM169 -17h-80l511 730h81zM152 279l64 327q-2 -2 -12.5 -8 t-22.5 -13.5t-22.5 -14t-12.5 -7.5l17 86l79 47h75l-81 -417h-84zM526 183q-30 0 -43 -28q-5 -11 -9 -26t-4 -27q0 -16 6.5 -26t23.5 -10t27.5 8.5t16.5 22.5t9 30.5t3 25.5q0 30 -30 30z" />
<glyph unicode="&#x215a;" horiz-adv-x="710" d="M256 562q43 0 61.5 -22t18.5 -63q0 -40 -8 -76.5t-26 -64.5t-47 -44.5t-70 -16.5q-51 0 -80.5 28.5t-29.5 80.5l84 12q-1 -4 -1 -12q0 -16 8.5 -24.5t21.5 -8.5q16 0 28 10.5t19.5 26t11.5 33t4 31.5t-4 27t-27 13q-10 0 -23 -5.5t-23 -22.5h-73q12 58 23 116t23 116h229 l-15 -73h-151l-15 -76h1q8 6 27 10.5t33 4.5zM499 -5q-54 0 -81.5 27t-27.5 70q0 26 11.5 59.5t29.5 59.5l142 203h88q-29 -44 -59 -86.5t-59 -85.5l3 1q5 2 13.5 3t10.5 1q37 0 54 -21t17 -60q0 -14 -4 -38t-12 -47q-12 -33 -42.5 -59.5t-83.5 -26.5zM183 -17h-80l511 730 h81zM529 183q-30 0 -43 -28q-5 -11 -9 -26t-4 -27q0 -16 6.5 -26t23.5 -10t27.5 8.5t16.5 22.5t9 30.5t3 25.5q0 30 -30 30z" />
<glyph unicode="&#x215b;" horiz-adv-x="710" d="M155 -17h-80l511 730h81zM153 279l64 327q-2 -2 -12.5 -8t-22.5 -13.5t-22.5 -14t-12.5 -7.5l17 86l79 47h75l-81 -417h-84zM587 420q49 0 78 -25t29 -70q0 -11 -3 -27t-10 -31.5t-18.5 -29.5t-28.5 -21q12 -8 18 -18.5t8.5 -22t1.5 -23.5l-2 -24q-7 -57 -42.5 -94.5 t-98.5 -37.5q-43 0 -76 22t-36 67v14t2 16q4 29 19 59t47 44q-14 8 -20 23t-7 29q0 16 3.5 32.5t8.5 32.5q14 39 46.5 62t80.5 23zM546 183q-25 0 -38.5 -18.5t-17.5 -41.5q-1 -5 -1 -9v-8q0 -15 7 -27t28 -12q15 0 24.5 5.5t16 14.5t10 20.5t5.5 23.5q4 20 -3.5 36 t-30.5 16zM580 349q-19 0 -29.5 -10.5t-15.5 -27.5q-2 -8 -4 -19t-2 -19q1 -12 9.5 -18.5t21.5 -6.5q27 0 40 23t13 47q0 14 -8.5 22.5t-24.5 8.5z" />
<glyph unicode="&#x215c;" horiz-adv-x="710" d="M591 420q49 0 78 -25t29 -70q0 -11 -3 -27t-10 -31.5t-18.5 -29.5t-28.5 -21q12 -8 18 -18.5t8.5 -22t1.5 -23.5l-2 -24q-7 -57 -42.5 -94.5t-98.5 -37.5q-43 0 -76 22t-36 67v14t2 16q4 29 19 59t47 44q-14 8 -20 23t-7 29q0 16 3.5 32.5t8.5 32.5q14 39 46.5 62 t80.5 23zM359 607q0 -14 -3 -29.5t-10.5 -31t-20 -29t-31.5 -22.5q20 -9 26 -25.5t6 -33.5q0 -27 -7 -55.5t-24 -51.5t-45 -38t-70 -15q-21 0 -40.5 5.5t-34.5 17t-24 29.5t-9 42v13l79 11v-10q0 -17 10.5 -24.5t25.5 -7.5q18 0 29 7t17 17.5t8 23t2 23.5q0 17 -10 28.5 t-32 11.5h-29q4 15 7.5 31.5t5.5 33.5h30q30 0 44.5 20t14.5 46q0 11 -6.5 21.5t-24.5 10.5q-15 0 -30 -11t-22 -37l-77 12q14 57 52 83.5t86 26.5q54 0 80.5 -26.5t26.5 -66.5zM171 -17h-80l511 730h81zM550 183q-25 0 -38.5 -18.5t-17.5 -41.5q-1 -5 -1 -9v-8q0 -15 7 -27 t28 -12q15 0 24.5 5.5t16 14.5t10 20.5t5.5 23.5q4 20 -3.5 36t-30.5 16zM584 349q-19 0 -29.5 -10.5t-15.5 -27.5q-2 -8 -4 -19t-2 -19q1 -12 9.5 -18.5t21.5 -6.5q27 0 40 23t13 47q0 14 -8.5 22.5t-24.5 8.5z" />
</font>
</defs>
</svg>
